<svg version="1.1" id="Layer_1" xmlns="http://www.w3.org/2000/svg" xmlns:xlink="http://www.w3.org/1999/xlink" x="0px" y="0px"
	 width="100%" viewBox="0 0 112 256" enable-background="new 0 0 112 256" xml:space="preserve">
<path fill="#000000" opacity="1.000000" stroke="none" 
	d="
M24.416666,257.000000 
	C14.066413,240.948349 7.675149,223.792038 7.685651,204.642776 
	C7.690837,195.186234 7.244903,185.701538 10.552114,176.551208 
	C11.145614,174.909119 10.851785,172.921600 10.851760,171.093567 
	C10.851530,153.768066 10.553768,136.437042 10.903937,119.118988 
	C11.137341,107.575668 7.906295,96.293083 8.841327,84.763542 
	C9.657761,74.696358 11.011541,64.807610 13.987792,54.989990 
	C16.475170,46.784992 18.754507,38.517769 21.652689,30.429508 
	C23.030096,26.585430 24.964027,23.123169 28.156710,20.605631 
	C31.466963,17.995384 34.743664,19.384243 36.311100,23.288481 
	C38.033165,27.577885 38.277088,31.943939 38.248692,36.452545 
	C38.171066,48.778271 38.221966,61.104801 38.221966,73.364197 
	C44.257515,61.529411 46.905777,48.975281 45.813984,35.592770 
	C45.353165,29.944319 45.821449,24.353342 48.564503,19.110298 
	C49.950401,16.461300 52.019249,14.717622 54.710789,14.757280 
	C57.426338,14.797291 58.689167,17.367933 59.794621,19.691803 
	C62.743069,25.889969 65.764275,32.053528 69.186073,38.087040 
	C70.480896,31.233408 69.484566,24.450497 70.498138,17.736923 
	C71.135490,13.515347 72.755295,10.353962 76.943398,9.242928 
	C81.401329,8.060313 84.553398,10.381055 87.207909,13.760499 
	C91.069557,18.676752 91.907547,24.742779 93.056480,30.471901 
	C95.687347,43.590630 99.196037,56.451763 102.871162,69.289627 
	C103.414841,71.188759 103.504875,73.213928 103.869743,75.168663 
	C108.173363,98.224182 107.448677,121.484528 106.640358,144.740341 
	C106.566376,146.868942 105.742928,148.965744 105.329605,151.089401 
	C104.240120,156.687119 103.294815,162.143768 107.718582,167.074371 
	C110.776382,170.482529 110.910545,175.311188 112.784760,179.710358 
	C113.000000,196.687561 113.000000,213.375122 112.727463,230.787704 
	C110.805557,233.350403 111.436043,235.622070 111.341347,237.725342 
	C111.172867,241.467102 110.333763,245.020416 108.039719,247.987289 
	C105.627541,251.106964 102.412186,253.157120 98.550690,250.803207 
	C94.900459,248.578079 90.516014,248.299011 87.540482,249.730194 
	C81.234138,252.763474 76.827255,249.469070 71.745415,246.817413 
	C66.315712,253.139297 60.656799,258.739899 52.586758,251.137360 
	C50.395077,252.943771 49.341961,254.767395 49.000000,257.000000 
	C47.285641,257.000000 45.571285,257.000000 43.428463,257.000000 
	C49.053722,244.334579 59.198475,235.169342 70.185875,225.474594 
	C70.394325,230.268127 70.611221,234.525909 72.909355,238.472672 
	C77.099655,245.669006 78.273392,246.445587 86.355904,245.121323 
	C90.135460,244.502090 93.967125,244.490356 97.768799,245.278778 
	C103.377419,246.441925 105.957352,244.855377 106.528572,239.049866 
	C107.131638,232.920593 109.181877,226.970963 109.664879,221.025558 
	C111.032791,204.187622 111.302528,187.306885 104.704697,171.058289 
	C102.696793,166.113434 99.690262,166.299286 96.219925,167.594330 
	C89.864487,169.965973 83.884720,169.304016 77.353645,167.897903 
	C70.290421,166.377228 63.030033,165.065292 55.812523,164.514709 
	C50.605247,164.117462 45.377815,166.033783 40.803909,168.916061 
	C33.883217,173.277145 26.824015,177.211563 18.340624,177.413788 
	C16.501253,177.457642 14.943923,178.141403 14.563713,180.034241 
	C12.173136,191.935379 11.437822,203.759109 13.473814,215.948502 
	C15.104279,225.710022 18.279669,234.747559 21.915777,243.789581 
	C23.729912,248.300827 26.764929,252.049332 28.989037,256.646942 
	C27.611111,257.000000 26.222221,257.000000 24.416666,257.000000 
M101.670815,103.636139 
	C101.555664,89.631660 99.780319,75.718407 96.029198,62.350468 
	C92.369125,49.306976 89.326263,36.177509 86.676468,22.931692 
	C85.859352,18.847042 81.568802,12.814752 79.045784,13.614912 
	C74.436493,15.076724 74.933388,19.413334 74.626678,23.151762 
	C74.599541,23.482513 74.630341,23.817711 74.627106,24.150774 
	C74.442741,43.115795 74.592102,62.091957 73.960487,81.042084 
	C73.503830,94.742981 70.532600,107.962288 62.471100,119.526443 
	C59.870766,123.256607 56.784710,126.143288 51.780487,125.487000 
	C46.867687,124.842720 43.803200,121.899689 41.721870,117.524902 
	C39.459240,112.769043 39.950687,107.348030 38.157814,102.635918 
	C34.569756,93.205620 32.722084,83.615189 32.792900,73.556328 
	C32.892582,59.397663 32.847885,45.237663 32.789223,31.078545 
	C32.780155,28.890387 33.353073,26.402691 30.697542,24.410067 
	C25.468493,30.187149 24.310057,37.478550 21.977346,44.224911 
	C16.292582,60.665653 12.977602,77.463020 14.247242,94.969559 
	C14.704308,101.271828 15.441390,107.542839 15.396219,113.895493 
	C15.268303,131.885101 15.476372,149.877228 15.327971,167.866486 
	C15.290604,172.396133 17.399639,173.708801 21.165277,172.579910 
	C25.420538,171.304230 29.859114,170.459091 33.623398,167.725998 
	C44.899067,159.539139 56.976280,158.480316 70.402748,162.172073 
	C78.245934,164.328644 86.749359,165.121552 95.123543,163.176910 
	C98.434158,162.408112 99.732292,160.909836 100.023499,157.488022 
	C101.521538,139.884781 102.082703,122.263565 101.670815,103.636139 
M63.214664,37.182915 
	C60.320339,31.569351 57.426018,25.955788 54.271091,19.836782 
	C49.961288,25.441460 49.776527,31.154219 50.273476,36.962742 
	C51.342789,49.461243 48.874504,61.239883 44.055580,72.780258 
	C41.583988,78.699242 37.304871,84.289078 39.278889,91.554520 
	C40.313572,95.362701 42.983791,98.390198 43.349571,102.587082 
	C43.746273,107.138809 45.103062,111.673653 46.547176,116.048843 
	C48.047180,120.593353 53.587307,122.340897 56.554493,119.178230 
	C59.120918,116.442711 61.776020,113.271011 62.909962,109.806999 
	C66.508713,98.813377 69.679398,87.668060 69.442039,75.866280 
	C69.181557,62.913971 72.047722,49.514294 63.214664,37.182915 
M68.079185,239.247269 
	C67.104401,238.394531 67.345177,236.659332 65.888420,236.162628 
	C63.158737,237.661957 58.502644,241.851562 57.206497,243.933456 
	C56.484909,245.092484 55.872601,246.302002 56.710701,247.605438 
	C57.567474,248.937958 58.919361,249.573273 60.481384,249.593094 
	C64.280807,249.641357 68.939789,243.854172 68.079185,239.247269 
z"/>
</svg>