<svg version="1.1" id="Layer_1" xmlns="http://www.w3.org/2000/svg" xmlns:xlink="http://www.w3.org/1999/xlink" x="0px" y="0px"
	 width="100%" viewBox="0 0 80 224" enable-background="new 0 0 80 224" xml:space="preserve">
<path fill="#000000" opacity="1.000000" stroke="none" 
	d="
M81.000000,154.583344 
	C72.947227,154.769196 65.206360,153.642014 58.439125,148.630478 
	C51.722927,143.656723 44.631397,143.178146 36.884480,146.751251 
	C32.062534,148.975250 26.608484,149.509491 21.262646,148.583603 
	C17.463274,147.925552 15.607533,148.926193 13.696380,152.723846 
	C7.254691,165.524155 7.338928,179.150314 8.775151,192.572586 
	C9.413327,198.536682 12.218474,204.854584 16.386003,210.091003 
	C23.468021,218.989426 34.026970,217.275604 41.513306,207.625961 
	C48.390469,198.761536 55.573509,197.575928 64.426346,204.354507 
	C69.459930,208.208694 74.838051,207.973633 80.661560,205.176910 
	C81.000000,206.714355 81.000000,208.428711 81.000000,210.571533 
	C79.220543,211.392807 77.189812,212.542404 75.704536,212.049240 
	C68.773224,209.747772 63.740669,212.931686 58.367874,216.645935 
	C53.093029,220.292465 47.098831,221.280212 41.046295,217.806503 
	C39.259895,216.781235 37.337082,216.232285 35.416161,217.614609 
	C27.081934,223.611984 17.356556,219.802658 11.898771,211.458572 
	C7.053706,204.051239 3.616380,195.924393 3.839405,186.803909 
	C4.029794,179.018066 2.773629,171.133987 5.091435,163.475174 
	C5.759300,161.268311 6.908668,159.206299 7.565466,156.997086 
	C11.533427,143.650345 11.294300,143.722198 6.246583,130.248306 
	C4.704517,126.132042 4.189118,121.460098 4.063313,117.018280 
	C3.757729,106.228951 2.757357,95.347992 5.063143,84.671883 
	C9.322277,64.951515 15.983593,46.191624 28.528969,30.022196 
	C30.127703,27.961632 32.201675,26.190781 34.301426,24.613022 
	C40.193890,20.185398 44.120251,21.444752 46.842880,28.736403 
	C51.602966,26.976591 56.220295,26.578711 59.121071,31.629200 
	C60.409233,31.924761 60.882980,31.169853 61.439644,30.591085 
	C65.974335,25.876318 71.040810,26.887112 73.289116,32.911621 
	C75.714233,39.409916 78.207466,45.882793 80.835495,52.683380 
	C81.000000,57.024544 81.000000,61.049088 81.000000,65.536819 
	C77.024345,59.232067 75.490875,51.536819 72.735733,44.305607 
	C71.187508,40.242123 69.396545,36.271130 67.630310,32.056530 
	C63.958595,33.970657 63.299274,36.490303 63.297916,39.489712 
	C63.292023,52.480888 63.586231,65.488350 63.018768,78.456963 
	C62.688168,86.012428 63.259609,93.792931 60.282692,101.089417 
	C58.465611,105.543152 55.569794,108.902252 50.601627,109.304214 
	C45.587368,109.709892 41.743649,107.175858 38.957161,103.081566 
	C36.671108,99.722595 35.009979,95.924042 34.994259,91.949554 
	C34.938026,77.729309 33.226177,63.455742 37.867977,49.414097 
	C39.586105,44.216682 39.816650,38.448071 41.502216,33.069454 
	C42.026108,31.397720 42.560574,28.699041 40.216927,27.733875 
	C38.168873,26.890438 36.455238,28.516418 35.030315,29.957632 
	C27.901415,37.168056 23.401075,46.029636 19.177290,55.087528 
	C14.803337,64.467461 13.050602,74.562157 10.358398,84.440376 
	C7.377149,95.379173 8.389409,106.199478 8.619498,117.009727 
	C8.763810,123.789993 10.988036,130.687927 13.210439,137.215988 
	C15.387701,143.611465 20.608513,145.681000 27.552320,144.572418 
	C32.819828,143.731461 37.714050,141.581100 42.795300,140.177383 
	C48.324707,138.649857 52.813427,140.029449 56.746586,142.677551 
	C62.672150,146.667099 69.152100,148.688492 75.855064,150.431915 
	C77.329582,150.815430 78.830986,150.717743 80.643326,150.105362 
	C81.000000,151.388885 81.000000,152.777786 81.000000,154.583344 
M54.590721,33.794415 
	C52.002670,31.366749 49.974052,31.762686 49.290237,35.278629 
	C48.128296,41.252895 46.697521,47.265697 46.449581,53.306221 
	C46.049526,63.052628 44.366535,72.579262 40.843460,81.482498 
	C37.947304,88.801430 39.828342,94.793800 43.163891,100.771027 
	C45.649742,105.225616 53.985355,105.400299 55.215092,101.038498 
	C57.356373,93.443504 57.932491,85.481354 58.472221,77.584267 
	C58.502571,77.140274 58.157986,76.652847 57.935379,76.212181 
	C56.171429,72.720360 55.720856,68.970016 55.581974,65.119705 
	C55.213036,54.891338 53.504951,44.692879 54.590721,33.794415 
M60.799435,207.225082 
	C52.924732,201.956924 48.560745,203.530869 43.304279,213.535034 
	C48.748848,217.470856 57.841335,214.529770 60.799435,207.225082 
z"/>
</svg>