<svg version="1.1" id="Layer_1" xmlns="http://www.w3.org/2000/svg" xmlns:xlink="http://www.w3.org/1999/xlink" x="0px" y="0px"
	 width="100%" viewBox="0 0 112 240" enable-background="new 0 0 112 240" xml:space="preserve">
<path fill="#000000" opacity="1.000000" stroke="none" 
	d="
M66.705536,183.592102 
	C67.030373,173.310654 67.364632,163.458969 65.547447,153.770340 
	C64.514191,148.261398 62.568504,142.916656 59.716244,138.013763 
	C58.007362,135.076279 55.765282,136.332718 54.527058,138.166321 
	C51.941002,141.995804 49.729424,146.063766 49.348476,150.897919 
	C48.304531,164.145264 51.111702,177.040802 52.721481,190.049316 
	C54.060005,200.865845 57.232800,211.442032 56.452873,222.551239 
	C56.168964,226.595230 55.087429,229.837601 51.520088,231.644348 
	C48.185448,233.333267 45.233440,231.351379 42.873749,229.297455 
	C30.531990,218.554886 22.395567,205.135117 17.664936,189.489502 
	C10.894740,167.098465 10.129808,144.145050 10.677599,121.024536 
	C10.843246,114.033066 10.285433,107.000137 10.838436,100.048203 
	C11.557569,91.007820 8.261843,82.885925 6.356989,74.391129 
	C3.860719,63.258888 3.953622,52.073273 6.804002,40.850071 
	C8.527685,34.063179 10.032317,27.387627 14.262795,21.574102 
	C21.229156,12.000926 34.339756,5.869832 46.542236,13.208141 
	C52.600742,16.851597 59.279324,19.761526 66.867493,18.824434 
	C68.857857,18.578634 70.784164,18.550592 72.617096,17.536312 
	C80.248817,13.313189 87.314751,15.099536 94.767006,18.789600 
	C111.061729,26.858103 111.867004,37.131306 110.918617,56.850471 
	C110.604530,63.381069 110.347275,70.134048 108.061760,76.478279 
	C107.952484,76.781609 108.099197,77.206917 107.940880,77.458488 
	C103.028656,85.264641 106.672775,93.398262 107.092850,101.374916 
	C107.681114,112.545380 107.767448,123.771477 106.029358,134.755249 
	C103.120331,153.138809 98.339523,171.157639 92.969246,188.982880 
	C91.352432,194.349472 89.298363,199.634842 86.904663,204.702377 
	C84.614525,209.550674 80.262268,212.494690 75.408783,214.573196 
	C73.572533,215.359558 71.854164,214.684097 70.213219,213.679276 
	C65.109276,210.553955 63.746471,204.731277 64.439316,200.238190 
	C65.266235,194.875641 64.966393,189.296860 66.705536,183.592102 
M43.533772,224.078613 
	C45.415806,225.821884 47.521233,227.640488 50.163994,226.459366 
	C52.907078,225.233383 51.611427,222.351547 51.795040,220.169205 
	C52.671013,209.757523 49.456596,199.752014 48.039242,189.632065 
	C46.236053,176.757294 44.276588,163.969421 45.173855,151.012680 
	C45.682610,143.666077 47.955650,136.620178 54.801880,132.190781 
	C58.204052,129.989624 61.081116,130.851547 62.799717,134.099197 
	C64.331467,136.993744 65.649887,140.073807 67.042953,143.049133 
	C70.070839,149.516159 70.566719,156.545044 71.764809,163.284729 
	C72.993767,170.198044 73.096626,177.569412 71.435005,184.616486 
	C70.019913,190.618011 69.185463,196.673782 69.365791,202.793716 
	C69.438904,205.275223 69.570778,208.551331 72.776375,209.399857 
	C75.973000,210.246033 78.435913,208.601883 80.535736,206.105240 
	C85.647079,200.027985 87.255249,192.316284 89.292824,185.160553 
	C93.671867,169.781830 98.121689,154.383377 100.369522,138.419510 
	C102.655434,122.185211 104.343880,106.080978 100.974869,89.827293 
	C100.618408,88.107552 100.508270,86.470963 98.255219,86.343697 
	C89.406929,85.843925 81.001686,86.313072 72.772903,90.893288 
	C62.480503,96.622116 51.202042,98.008270 40.571388,91.528793 
	C33.491692,87.213654 26.419827,87.840393 18.957718,89.135986 
	C15.963268,89.655899 15.299504,91.294205 15.314020,94.005325 
	C15.362205,103.004242 15.312003,112.005119 15.173768,121.003311 
	C14.823795,143.784180 15.295262,166.440201 22.130875,188.514114 
	C26.290094,201.945267 32.812218,213.810898 43.533772,224.078613 
M10.485383,43.948742 
	C10.683548,47.688740 8.556889,50.893494 8.232893,54.616379 
	C7.415428,64.009514 10.641035,72.618294 12.636180,81.463554 
	C13.530140,85.426826 16.273077,86.170235 19.838827,84.524078 
	C26.855146,81.284912 33.831051,82.574654 39.842918,86.392212 
	C50.647781,93.253311 61.194000,92.115250 71.732651,86.662766 
	C78.402779,83.211769 85.138412,80.980347 92.706657,81.664742 
	C94.522224,81.828926 96.365669,81.682304 98.196289,81.683334 
	C101.382172,81.685127 103.107124,79.998917 103.592194,76.949684 
	C105.360085,65.836594 107.816162,54.728054 106.555107,43.414192 
	C105.610001,34.935081 103.718864,26.714146 94.576035,22.666719 
	C88.564423,20.005445 82.208855,18.593948 76.191795,20.875441 
	C64.906464,25.154518 54.796986,23.240711 44.982441,17.149296 
	C34.872826,10.874741 24.996967,15.392020 18.513796,22.964302 
	C13.551057,28.760733 12.566512,36.136253 10.485383,43.948742 
z"/>
<path fill="#000000" opacity="1.000000" stroke="none" 
	d="
M73.623413,33.820358 
	C72.262016,34.122807 71.131172,34.093025 70.338928,34.596291 
	C62.696514,39.451054 56.253132,36.096424 50.468456,31.271822 
	C44.322575,26.145952 37.750401,25.282223 30.403860,27.458714 
	C29.001266,27.874247 27.561390,28.613314 26.201488,27.324856 
	C28.270521,22.923193 37.208321,20.226261 43.038490,22.369062 
	C46.784130,23.745722 50.463570,25.413296 53.300793,28.303631 
	C58.176495,33.270611 63.549255,34.041538 69.584045,30.721869 
	C76.811333,26.746235 83.347076,30.079613 89.927681,32.689854 
	C90.368660,32.864777 90.538437,33.723423 91.381020,35.262833 
	C85.051315,34.701328 79.653534,31.125710 73.623413,33.820358 
z"/>
</svg>