<svg version="1.1" id="Layer_1" xmlns="http://www.w3.org/2000/svg" xmlns:xlink="http://www.w3.org/1999/xlink" x="0px" y="0px"
	 width="100%" viewBox="0 0 86 272" enable-background="new 0 0 86 272" xml:space="preserve">
<path fill="#FAFAFA" opacity="1.000000" stroke="none" 
	d="
M0.999999,73.000000 
	C1.000000,71.933327 1.000000,70.866661 1.334638,69.350739 
	C1.446184,67.934326 1.223092,66.967163 1.000000,66.000000 
	C1.000000,63.299988 1.000000,60.599972 1.347067,57.389793 
	C3.676198,55.190392 3.774675,53.838165 1.000000,53.000000 
	C1.000000,52.250000 1.000000,51.500000 1.345173,50.323402 
	C2.198553,47.893051 2.444055,45.773987 3.263558,43.906860 
	C5.862009,37.986645 7.730010,31.416790 11.623746,26.470432 
	C17.622379,18.850145 23.759607,11.142943 33.153248,6.741527 
	C41.443665,2.857027 48.176952,3.882480 55.141521,9.427229 
	C58.453316,12.063869 61.607803,15.389161 64.879333,17.325157 
	C71.968353,21.520235 78.635162,25.919859 84.381409,31.792902 
	C85.009453,32.434803 86.115608,32.608917 87.000000,33.000000 
	C87.000000,51.020893 87.000000,69.041786 86.649887,87.568680 
	C84.198364,90.716522 82.096962,93.358368 79.742249,95.810776 
	C79.286530,95.024826 79.084129,94.428322 78.895340,93.451080 
	C78.949112,92.056580 78.989288,91.042793 79.081978,89.650932 
	C80.474258,84.176994 81.814026,79.081139 83.209503,73.519669 
	C83.200172,63.036274 83.135139,53.018482 83.205818,42.746521 
	C82.913834,40.987663 82.486130,39.482979 82.083359,37.665932 
	C81.794121,36.876667 81.479942,36.399765 81.050964,35.596985 
	C79.766403,33.618462 78.946396,31.411072 77.363777,30.413286 
	C71.778587,26.892021 65.931725,23.785881 60.184925,20.520842 
	C58.850681,19.762793 57.519745,18.998922 56.187286,18.237732 
	C55.969940,18.601881 55.752598,18.966030 55.535255,19.330179 
	C59.292061,22.134497 62.692135,25.811878 66.893372,27.528488 
	C72.507912,29.822567 76.769798,33.075150 79.783569,38.505714 
	C80.240227,42.102680 80.764168,45.322868 81.278397,48.973602 
	C81.323692,56.134052 81.378693,62.863960 81.146416,69.839355 
	C79.311684,75.772408 77.737350,81.453018 76.263695,87.159622 
	C76.134506,87.659866 76.665497,88.330597 76.626282,89.064789 
	C75.971481,89.285011 75.580246,89.362587 75.002754,89.047455 
	C71.775917,86.541771 68.770714,85.249847 65.985916,89.401596 
	C65.985580,90.500305 65.983650,91.232765 65.765472,92.082718 
	C65.278809,92.404579 65.088257,92.666946 64.682129,93.009842 
	C63.924618,93.352470 63.462536,93.672569 62.664989,94.039856 
	C62.553219,95.064758 62.776917,96.042480 63.103699,97.299057 
	C62.592419,99.042084 61.978046,100.506264 61.085644,102.633064 
	C59.620251,100.902901 58.801510,99.936218 57.945824,98.623672 
	C56.788315,96.533287 55.667755,94.788773 54.546886,93.043785 
	C47.910210,95.947708 54.448593,98.419434 54.095787,100.961304 
	C54.062443,100.973557 53.995895,100.998474 53.580143,100.998932 
	C51.777950,101.000099 50.391506,101.000809 49.002869,100.645477 
	C48.643246,99.670204 48.285828,99.050987 47.928413,98.431763 
	C47.318871,99.067268 46.114380,99.841080 46.223286,100.309570 
	C46.452053,101.293671 47.370785,102.117386 48.003532,103.003677 
	C48.000778,103.000420 47.993820,102.993538 47.982475,103.360458 
	C45.983006,106.805481 43.994881,109.883575 41.744072,112.799690 
	C39.027687,111.083961 36.573982,109.530205 34.031109,107.788559 
	C33.941940,107.600670 33.928356,107.185249 33.909081,106.825775 
	C33.169724,106.013702 32.449642,105.561111 31.436729,104.970528 
	C29.362038,103.049263 27.580181,101.265999 25.830179,99.118378 
	C24.320459,97.498650 22.778881,96.243279 21.087879,94.670799 
	C18.649883,90.893005 16.361311,87.432320 14.336760,83.755592 
	C14.257292,82.609688 13.913804,81.679825 13.507685,80.395172 
	C12.677917,77.229599 11.347816,74.438782 11.247227,71.604332 
	C10.921091,62.414417 11.045809,53.208508 11.045128,43.629578 
	C11.153650,43.002819 11.213936,42.755230 11.568848,42.419456 
	C16.387663,35.328003 20.781637,28.234869 25.515079,21.376013 
	C26.942547,19.307579 29.312653,17.889681 31.591610,16.050558 
	C37.287018,12.403286 42.895741,10.384108 49.608986,13.698626 
	C48.862305,8.538793 45.120476,8.965521 42.363873,8.804750 
	C36.893986,8.485739 30.936565,12.263159 29.633432,15.933159 
	C26.978785,17.581621 24.603197,19.200474 22.478346,21.099833 
	C20.306049,23.041599 17.951149,24.991240 16.440248,27.413937 
	C13.787775,31.667120 11.718098,36.283760 9.084745,40.955643 
	C8.510680,42.110371 8.256186,43.057613 7.999834,44.422249 
	C7.922502,46.226143 7.847030,47.612644 7.415890,49.094208 
	C6.373655,51.777390 5.042380,54.399338 5.175910,56.944435 
	C5.318792,59.667786 6.842082,62.318707 7.832724,65.442520 
	C8.458628,70.609947 9.014670,75.336105 9.414511,80.460281 
	C10.193368,81.950142 11.128428,83.041985 12.003769,84.455490 
	C12.419233,87.803406 12.894415,90.829651 13.079590,94.013336 
	C13.304679,94.707710 13.819777,95.244659 14.317146,95.769348 
	C14.299420,95.757080 14.346198,95.733894 14.237555,96.174492 
	C14.837602,100.222603 15.546292,103.830116 16.340912,107.791786 
	C16.427641,109.816902 16.428442,111.487869 16.301765,113.580765 
	C16.710323,115.335419 17.246359,116.668129 17.875967,118.425980 
	C17.993031,120.879356 18.016518,122.907585 18.004616,125.376831 
	C17.976871,127.876732 17.984514,129.935608 17.606911,131.949112 
	C14.048955,130.963181 10.772326,129.626160 9.001411,134.289032 
	C8.995352,134.521301 8.985909,134.985886 8.753918,134.991821 
	C8.521926,134.997757 8.057578,135.008286 7.678165,135.042480 
	C6.536316,137.048752 5.773880,139.020828 4.645077,140.925476 
	C2.170600,136.666275 4.910602,130.305374 9.345867,129.094681 
	C15.516704,127.410225 17.072821,123.121750 13.466046,117.915375 
	C12.831465,116.999352 12.241535,115.920280 12.061181,114.844391 
	C11.247074,109.987961 10.443828,105.120789 9.927075,100.226814 
	C9.622809,97.345222 10.440289,94.256989 9.735269,91.524330 
	C8.286304,85.908150 6.263388,80.426537 4.196439,74.996216 
	C3.840386,74.060783 2.100602,73.652039 0.999999,73.000000 
M53.656193,16.720459 
	C53.154213,16.333654 52.652229,15.946847 52.150246,15.560040 
	C51.912430,15.918929 51.674610,16.277819 51.436790,16.636707 
	C52.232513,16.826992 53.028233,17.017277 53.656193,16.720459 
M55.481411,15.498848 
	C55.481411,15.498848 55.458256,15.552019 55.481411,15.498848 
z"/>
<path fill="#FFFFFF" opacity="1.000000" stroke="none" 
	d="
M0.999999,73.468658 
	C2.100602,73.652039 3.840386,74.060783 4.196439,74.996216 
	C6.263388,80.426537 8.286304,85.908150 9.735269,91.524330 
	C10.440289,94.256989 9.622809,97.345222 9.927075,100.226814 
	C10.443828,105.120789 11.247074,109.987961 12.061181,114.844391 
	C12.241535,115.920280 12.831465,116.999352 13.466046,117.915375 
	C17.072821,123.121750 15.516704,127.410225 9.345867,129.094681 
	C4.910602,130.305374 2.170600,136.666275 4.899261,141.034424 
	C6.003325,141.477386 6.486838,141.743988 7.006536,142.326752 
	C7.690139,143.418274 8.337561,144.193634 9.319182,144.984833 
	C10.098916,145.005371 10.544450,145.010071 11.322068,145.019913 
	C12.096466,145.040237 12.538777,145.055389 12.980451,145.439804 
	C14.018933,148.101929 7.808344,151.446548 14.315472,153.016663 
	C15.072380,153.364670 15.535216,153.684845 15.998312,154.473373 
	C15.999458,168.759949 15.816546,182.581879 16.095078,196.394516 
	C16.200941,201.644379 17.233519,206.897598 18.190071,212.085434 
	C18.340490,212.901245 20.337814,213.376526 21.519068,214.407333 
	C21.533783,215.868744 21.510603,216.932098 21.119972,218.008713 
	C19.841822,219.009247 18.213518,219.953140 18.150736,220.991669 
	C17.935297,224.555496 18.269619,228.152435 18.392168,231.736832 
	C18.742340,241.979050 23.492876,250.961411 26.830677,260.308777 
	C28.323679,264.489868 29.727961,269.318756 35.060131,270.842773 
	C35.539764,270.979858 35.694424,272.253937 36.000004,273.000000 
	C24.369646,273.000000 12.739293,273.000000 1.000000,273.000000 
	C1.000000,237.979172 1.000000,202.958252 1.402077,167.467682 
	C7.990478,166.437775 10.003104,163.736526 9.963194,155.695618 
	C9.513910,155.077713 9.103976,154.758759 8.694040,154.439819 
	C8.462550,154.959229 8.231062,155.478622 7.749688,155.998825 
	C7.499802,155.999619 7.000028,155.999130 7.003593,155.675980 
	C7.006726,154.922821 7.006292,154.492828 7.010946,153.707047 
	C6.341922,151.903717 5.667811,150.456177 4.965783,148.715454 
	C4.292819,148.275864 3.647772,148.129440 2.668922,147.983948 
	C1.890079,147.989914 1.445040,147.994965 1.000000,148.000000 
	C1.000000,123.312439 1.000000,98.624878 0.999999,73.468658 
z"/>
<path fill="#FFFFFF" opacity="1.000000" stroke="none" 
	d="
M87.000000,196.000000 
	C87.000000,221.565079 87.000000,247.130173 87.000000,273.000000 
	C75.980980,273.000000 64.959145,273.000000 53.503403,272.649750 
	C57.937996,268.110809 55.695999,261.423309 58.628780,256.331238 
	C59.958176,254.023041 58.409477,249.922043 57.766174,246.714630 
	C57.618458,245.978134 55.823589,245.572006 54.716759,244.731644 
	C54.423512,243.968399 54.200268,243.487350 54.153481,242.697769 
	C54.505886,241.245773 54.681831,240.102310 55.265610,238.969910 
	C59.486580,239.160263 60.757523,237.200623 61.076786,233.544174 
	C61.868446,224.477356 63.043251,215.443741 64.085678,206.399261 
	C64.348602,204.118073 64.506340,201.801712 65.037689,199.579285 
	C66.153473,194.912445 67.290718,190.228424 68.886650,185.716843 
	C69.219254,184.776596 71.575935,184.552368 73.258789,184.105499 
	C74.011520,184.475433 74.505302,184.738022 75.005615,185.363678 
	C79.008102,189.151138 83.004051,192.575562 87.000000,196.000000 
z"/>
<path fill="#FFFFFF" opacity="1.000000" stroke="none" 
	d="
M87.000000,32.531342 
	C86.115608,32.608917 85.009453,32.434803 84.381409,31.792902 
	C78.635162,25.919859 71.968353,21.520235 64.879333,17.325157 
	C61.607803,15.389161 58.453316,12.063869 55.141521,9.427229 
	C48.176952,3.882480 41.443665,2.857027 33.153248,6.741527 
	C23.759607,11.142943 17.622379,18.850145 11.623746,26.470432 
	C7.730010,31.416790 5.862009,37.986645 3.263558,43.906860 
	C2.444055,45.773987 2.198553,47.893051 1.345173,49.948402 
	C1.000000,33.709564 1.000000,17.419128 1.000000,1.064346 
	C29.548361,1.064346 58.096897,1.064346 87.000000,1.064346 
	C87.000000,11.351530 87.000000,21.707106 87.000000,32.531342 
z"/>
<path fill="#FFFFFF" opacity="1.000000" stroke="none" 
	d="
M79.995560,96.000221 
	C82.096962,93.358368 84.198364,90.716522 86.649887,88.037338 
	C87.000000,121.020897 87.000000,154.041794 86.631721,187.527344 
	C83.175629,186.327988 80.087814,184.663986 76.965950,182.656738 
	C75.621109,181.210022 74.310318,180.106537 72.749489,179.002167 
	C72.332764,179.000854 72.166077,179.000427 71.993034,178.611816 
	C72.287384,174.914429 72.534576,171.599335 72.899467,168.297241 
	C73.769852,160.420898 74.320030,152.482666 75.728477,144.701370 
	C76.703346,139.315521 75.963531,136.670273 71.389969,135.651215 
	C71.151787,134.552414 71.065697,133.802582 70.998680,132.695862 
	C71.678398,131.558701 72.339050,130.778442 73.352982,129.942841 
	C74.801933,128.145233 76.729202,126.458000 76.848801,124.651123 
	C77.356293,116.983688 77.866028,109.403282 80.811722,102.143158 
	C81.209435,101.162941 79.686295,99.403366 79.152130,97.745636 
	C79.499626,96.991150 79.747589,96.495682 79.995560,96.000221 
z"/>
<path fill="#F9FAFA" opacity="1.000000" stroke="none" 
	d="
M54.786766,245.013855 
	C55.823589,245.572006 57.618458,245.978134 57.766174,246.714630 
	C58.409477,249.922043 59.958176,254.023041 58.628780,256.331238 
	C55.695999,261.423309 57.937996,268.110809 53.034744,272.649750 
	C47.645069,273.000000 42.290142,273.000000 36.467609,273.000000 
	C35.694424,272.253937 35.539764,270.979858 35.060131,270.842773 
	C29.727961,269.318756 28.323679,264.489868 26.830677,260.308777 
	C23.492876,250.961411 18.742340,241.979050 18.392168,231.736832 
	C18.269619,228.152435 17.935297,224.555496 18.150736,220.991669 
	C18.213518,219.953140 19.841822,219.009247 21.227901,218.449738 
	C22.283724,223.568665 22.492943,228.350266 23.604403,232.912048 
	C24.143793,235.125870 26.372852,236.928024 28.120491,239.110382 
	C28.328867,240.666199 28.253719,242.028183 28.195305,243.086868 
	C29.117563,244.170563 31.027637,245.512238 30.823420,246.318054 
	C29.208136,252.691620 34.714302,255.982849 36.774403,260.705505 
	C37.630421,262.667877 39.295254,264.344574 40.818222,265.934784 
	C43.851940,269.102448 47.066914,266.259949 50.297447,266.281555 
	C50.426830,267.210876 50.465340,267.859406 50.518036,268.746826 
	C54.553638,262.074066 52.894749,254.978653 53.291859,247.891403 
	C53.941879,246.791824 54.364323,245.902847 54.786766,245.013855 
z"/>
<path fill="#EFEFEF" opacity="1.000000" stroke="none" 
	d="
M4.993701,149.008621 
	C5.667811,150.456177 6.341922,151.903717 6.738461,153.564987 
	C5.767641,153.402786 5.074391,153.026886 4.381142,152.650970 
	C4.149013,152.946167 3.916884,153.241364 3.684755,153.536560 
	C4.789858,154.691071 5.894962,155.845566 7.000031,157.000031 
	C6.999999,157.000000 6.997457,156.997559 6.998640,157.340866 
	C7.126862,158.435577 7.253902,159.186981 7.380942,159.938385 
	C7.586271,159.913696 7.791600,159.889023 7.996929,159.864349 
	C7.996929,158.910583 7.996929,157.956818 7.998463,157.001526 
	C7.999997,157.000000 8.000077,156.999924 8.257101,156.887146 
	C9.010263,156.514435 9.506403,156.254501 10.002542,155.994583 
	C10.003104,163.736526 7.990478,166.437775 1.402077,166.999023 
	C1.000000,160.978851 1.000000,154.957703 1.000000,148.468277 
	C1.445040,147.994965 1.890079,147.989914 2.833051,148.232361 
	C3.885223,148.656113 4.439463,148.832367 4.993701,149.008621 
z"/>
<path fill="#FAFAFA" opacity="1.000000" stroke="none" 
	d="
M77.000000,183.000000 
	C80.087814,184.663986 83.175629,186.327988 86.631721,187.996002 
	C87.000000,190.370560 87.000000,192.741104 87.000000,195.555832 
	C83.004051,192.575562 79.008102,189.151138 75.326523,185.322113 
	C76.093933,184.278336 76.546967,183.639160 77.000000,183.000000 
z"/>
<path fill="#FFFFFF" opacity="1.000000" stroke="none" 
	d="
M1.000000,53.399994 
	C3.774675,53.838165 3.676198,55.190392 1.347067,56.939812 
	C1.000000,55.933331 1.000000,54.866661 1.000000,53.399994 
z"/>
<path fill="#FFFFFF" opacity="1.000000" stroke="none" 
	d="
M1.000000,66.375000 
	C1.223092,66.967163 1.446184,67.934326 1.334638,68.950745 
	C1.000000,68.250000 1.000000,67.500000 1.000000,66.375000 
z"/>
<path fill="#DCDCDC" opacity="1.000000" stroke="none" 
	d="
M34.120277,107.976456 
	C36.573982,109.530205 39.027687,111.083961 41.945583,113.069901 
	C43.279514,113.658142 44.149258,113.814178 45.350647,113.986855 
	C46.125324,114.006134 46.568352,114.008774 47.364777,114.014404 
	C49.899242,114.079758 52.080318,114.142113 54.185684,114.549355 
	C54.014107,116.201019 53.918243,117.507805 53.825523,118.771690 
	C55.876797,118.156281 57.487007,117.673203 59.067299,117.553085 
	C57.807571,122.775436 54.009159,123.042809 49.864586,122.670120 
	C47.846729,120.963615 45.980404,119.549202 43.784683,117.978088 
	C41.640434,117.215042 39.825577,116.608696 37.846924,115.706223 
	C36.104683,113.515564 34.526237,111.621040 33.021973,109.468765 
	C33.437527,108.799492 33.778904,108.387978 34.120277,107.976456 
z"/>
<path fill="#F3F3F3" opacity="1.000000" stroke="none" 
	d="
M57.982765,98.969543 
	C58.801510,99.936218 59.620251,100.902901 61.085644,102.633064 
	C61.978046,100.506264 62.592419,99.042084 63.100391,96.920258 
	C62.996151,95.505974 62.998302,94.749321 63.000458,93.992676 
	C63.462536,93.672569 63.924618,93.352470 64.691742,93.354973 
	C65.351959,94.454895 65.707115,95.232201 66.370201,96.167847 
	C68.175476,96.905785 69.672821,97.485390 71.042694,98.375839 
	C70.397278,100.146141 69.879333,101.605598 69.017769,103.050003 
	C68.444878,103.031258 68.215614,103.027573 67.827682,102.772636 
	C67.116920,102.343285 66.564827,102.165199 65.998596,101.746323 
	C65.859459,101.232315 65.734444,100.959084 65.609428,100.685852 
	C65.485886,100.774818 65.250221,100.935165 65.254890,100.942497 
	C65.486343,101.306046 65.738411,101.656464 66.100601,102.231903 
	C66.485886,102.639511 66.758797,102.823547 67.021454,103.366821 
	C66.976433,104.440697 66.941666,105.155350 66.686707,105.994186 
	C66.295029,106.404015 66.123543,106.689636 65.681793,107.118698 
	C64.313179,107.538017 63.214825,107.813904 61.952385,108.130997 
	C62.320847,109.192123 62.622162,110.059883 62.604141,110.955124 
	C61.857697,110.997238 61.430592,111.011871 60.862011,110.728134 
	C58.805634,108.609978 56.890728,106.790184 54.838791,104.653244 
	C54.466476,103.223557 54.231186,102.111015 53.995895,100.998474 
	C53.995895,100.998474 54.062443,100.973557 54.351585,101.065781 
	C55.754738,100.428528 56.868752,99.699036 57.982765,98.969543 
z"/>
<path fill="#727475" opacity="1.000000" stroke="none" 
	d="
M9.404316,40.748165 
	C11.718098,36.283760 13.787775,31.667120 16.440248,27.413937 
	C17.951149,24.991240 20.306049,23.041599 22.478346,21.099833 
	C24.603197,19.200474 26.978785,17.581621 29.787359,15.901605 
	C30.651350,15.981665 30.958200,16.051739 31.250957,16.173788 
	C29.312653,17.889681 26.942547,19.307579 25.515079,21.376013 
	C20.781637,28.234869 16.387663,35.328003 11.652939,42.105186 
	C10.763041,41.502125 10.083678,41.125145 9.404316,40.748165 
z"/>
<path fill="#535556" opacity="1.000000" stroke="none" 
	d="
M9.570713,80.062263 
	C9.014670,75.336105 8.458628,70.609947 7.888387,64.978577 
	C7.839978,59.048626 7.805768,54.023884 7.771557,48.999146 
	C7.847030,47.612644 7.922502,46.226143 8.365427,44.305092 
	C9.487551,43.849945 10.242222,43.929352 10.996893,44.008755 
	C11.045809,53.208508 10.921091,62.414417 11.247227,71.604332 
	C11.347816,74.438782 12.677917,77.229599 13.184135,80.262131 
	C11.805715,80.343338 10.688213,80.202805 9.570713,80.062263 
z"/>
<path fill="#E7E7E7" opacity="1.000000" stroke="none" 
	d="
M54.975819,104.970390 
	C56.890728,106.790184 58.805634,108.609978 60.766037,110.937408 
	C60.658226,111.731804 60.426201,111.923103 59.779633,112.050140 
	C58.959297,112.727295 58.474781,113.373245 57.614815,114.046150 
	C56.246704,114.116898 55.254051,114.160683 54.261395,114.204468 
	C52.080318,114.142113 49.899242,114.079758 47.361679,113.643753 
	C46.786346,112.332382 46.567497,111.394669 46.348648,110.456947 
	C46.041012,110.477608 45.733372,110.498260 45.425732,110.518921 
	C45.290154,111.669350 45.154575,112.819786 45.018997,113.970215 
	C44.149258,113.814178 43.279514,113.658142 42.208267,113.231888 
	C43.994881,109.883575 45.983006,106.805481 48.294930,103.513535 
	C50.277813,105.222061 51.936890,107.144447 54.451744,110.058434 
	C54.727398,107.382217 54.851608,106.176300 54.975819,104.970390 
z"/>
<path fill="#AEAFAF" opacity="1.000000" stroke="none" 
	d="
M69.361389,103.065056 
	C69.879333,101.605598 70.397278,100.146141 71.337563,98.210487 
	C72.211601,96.506905 72.663292,95.279518 73.482460,93.995743 
	C74.275810,92.613251 74.701675,91.287132 75.156464,89.832405 
	C75.185379,89.703789 75.189011,89.440163 75.189011,89.440163 
	C75.580246,89.362587 75.971481,89.285011 76.793579,89.342865 
	C77.826126,89.661858 78.427795,89.845436 79.029465,90.029015 
	C78.989288,91.042793 78.949112,92.056580 78.513733,93.523743 
	C74.632935,95.830025 75.555405,99.129692 75.376495,102.519577 
	C74.844070,105.611275 74.389824,108.276939 73.611931,110.970642 
	C72.404663,111.204773 71.521027,111.410866 70.174377,111.724937 
	C71.121597,110.003540 71.795784,108.778320 72.472244,107.548973 
	C68.264786,105.300652 68.936218,109.135902 67.623993,110.900307 
	C66.884384,110.984344 66.458794,111.007957 66.021057,111.020088 
	C66.008911,111.008606 66.019264,111.019608 66.007034,110.615059 
	C65.980553,109.132095 65.966301,108.053680 65.952057,106.975266 
	C66.123543,106.689636 66.295029,106.404015 67.010948,106.032288 
	C68.157379,104.985809 68.759384,104.025436 69.361389,103.065056 
z"/>
<path fill="#626566" opacity="1.000000" stroke="none" 
	d="
M79.850853,38.128941 
	C76.769798,33.075150 72.507912,29.822567 66.893372,27.528488 
	C62.692135,25.811878 59.292061,22.134497 55.535255,19.330179 
	C55.752598,18.966030 55.969940,18.601881 56.187286,18.237732 
	C57.519745,18.998922 58.850681,19.762793 60.184925,20.520842 
	C65.931725,23.785881 71.778587,26.892021 77.363777,30.413286 
	C78.946396,31.411072 79.766403,33.618462 80.775536,35.748070 
	C80.432526,36.794514 80.250145,37.363998 80.014008,37.982876 
	C79.960258,38.032269 79.850853,38.128941 79.850853,38.128941 
z"/>
<path fill="#535556" opacity="1.000000" stroke="none" 
	d="
M31.591610,16.050558 
	C30.958200,16.051739 30.651350,15.981665 30.176479,15.995121 
	C30.936565,12.263159 36.893986,8.485739 42.363873,8.804750 
	C45.120476,8.965521 48.862305,8.538793 49.608986,13.698626 
	C42.895741,10.384108 37.287018,12.403286 31.591610,16.050558 
z"/>
<path fill="#F3F3F3" opacity="1.000000" stroke="none" 
	d="
M21.237305,94.987907 
	C22.778881,96.243279 24.320459,97.498650 25.514893,99.119492 
	C24.543030,100.329887 23.918308,101.174820 22.939449,101.893745 
	C21.042532,101.152344 19.499754,100.536949 17.956974,99.921555 
	C17.613243,100.349014 17.269510,100.776482 16.925779,101.203949 
	C20.379105,102.142845 22.547047,103.606407 19.802855,106.780273 
	C17.384016,102.766296 17.312244,107.020775 16.254982,107.437630 
	C15.546292,103.830116 14.837602,100.222603 14.610794,96.036407 
	C17.297255,96.362465 19.501833,97.267212 22.512569,98.502808 
	C21.857817,96.698174 21.547560,95.843040 21.237305,94.987907 
z"/>
<path fill="#3E4041" opacity="1.000000" stroke="none" 
	d="
M21.087879,94.670799 
	C21.547560,95.843040 21.857817,96.698174 22.512569,98.502808 
	C19.501833,97.267212 17.297255,96.362465 14.719438,95.595810 
	C14.346198,95.733894 14.299420,95.757080 14.384175,95.473114 
	C14.102486,94.744736 13.736040,94.300316 13.369596,93.855904 
	C12.894415,90.829651 12.419233,87.803406 12.336085,84.388100 
	C13.176327,83.989906 13.624535,83.980766 14.072742,83.971634 
	C16.361311,87.432320 18.649883,90.893005 21.087879,94.670799 
z"/>
<path fill="#686A6B" opacity="1.000000" stroke="none" 
	d="
M79.081985,89.650932 
	C78.427795,89.845436 77.826126,89.661858 77.057144,89.200211 
	C76.665497,88.330597 76.134506,87.659866 76.263695,87.159622 
	C77.737350,81.453018 79.311684,75.772408 81.330338,70.228340 
	C82.252289,71.576309 82.703049,72.780800 83.153793,73.985283 
	C81.814026,79.081139 80.474258,84.176994 79.081985,89.650932 
z"/>
<path fill="#535556" opacity="1.000000" stroke="none" 
	d="
M16.340912,107.791786 
	C17.312244,107.020775 17.384016,102.766296 19.745567,107.224350 
	C20.096920,110.230293 20.234528,112.608047 20.251450,115.372360 
	C20.649815,117.055420 21.168861,118.351929 21.520458,120.086533 
	C21.244104,122.684662 21.135199,124.844688 20.713909,126.980064 
	C19.614353,126.282211 18.827181,125.609009 18.040009,124.935806 
	C18.016518,122.907585 17.993031,120.879356 17.920141,118.036255 
	C17.390240,115.867195 16.909740,114.513008 16.429241,113.158829 
	C16.428442,111.487869 16.427641,109.816902 16.340912,107.791786 
z"/>
<path fill="#686A6B" opacity="1.000000" stroke="none" 
	d="
M23.293591,102.019753 
	C23.918308,101.174820 24.543030,100.329887 25.483036,99.483841 
	C27.580181,101.265999 29.362038,103.049263 31.548370,105.281631 
	C32.611351,106.215576 33.269852,106.700417 33.928356,107.185249 
	C33.928356,107.185249 33.941940,107.600670 34.031109,107.788559 
	C33.778904,108.387978 33.437527,108.799492 32.685532,109.436783 
	C29.281136,107.114952 26.287363,104.567352 23.293591,102.019753 
z"/>
<path fill="#D4D5D5" opacity="1.000000" stroke="none" 
	d="
M18.004620,125.376831 
	C18.827181,125.609009 19.614353,126.282211 21.008007,126.999146 
	C22.061506,127.381088 22.508522,127.719307 22.960003,128.364807 
	C22.964190,129.082031 22.963909,129.491974 22.709322,130.107330 
	C21.998806,131.537781 21.542595,132.762817 20.851234,134.097168 
	C20.414183,134.478424 20.212282,134.750397 19.606386,135.026321 
	C16.803431,135.342422 14.404473,135.654572 12.012217,135.736664 
	C12.018917,135.506607 12.038648,135.046707 12.414701,135.038269 
	C13.858194,134.352921 14.925634,133.676010 16.294754,132.985077 
	C17.061674,132.645508 17.526915,132.319992 17.992157,131.994492 
	C17.984514,129.935608 17.976871,127.876732 18.004620,125.376831 
z"/>
<path fill="#F9FAFA" opacity="1.000000" stroke="none" 
	d="
M7.415890,49.094208 
	C7.805768,54.023884 7.839978,59.048626 7.818525,64.537308 
	C6.842082,62.318707 5.318792,59.667786 5.175910,56.944435 
	C5.042380,54.399338 6.373655,51.777390 7.415890,49.094208 
z"/>
<path fill="#F9FAFA" opacity="1.000000" stroke="none" 
	d="
M54.838791,104.653244 
	C54.851608,106.176300 54.727398,107.382217 54.451744,110.058434 
	C51.936890,107.144447 50.277813,105.222061 48.306274,103.146606 
	C47.993820,102.993538 48.000778,103.000420 47.913681,102.751389 
	C48.219406,102.002075 48.612236,101.501801 49.005066,101.001526 
	C50.391506,101.000809 51.777950,101.000099 53.580143,100.998932 
	C54.231186,102.111015 54.466476,103.223557 54.838791,104.653244 
z"/>
<path fill="#D4D5D5" opacity="1.000000" stroke="none" 
	d="
M57.945824,98.623672 
	C56.868752,99.699036 55.754738,100.428528 54.384930,101.053528 
	C54.448593,98.419434 47.910210,95.947708 54.546886,93.043785 
	C55.667755,94.788773 56.788315,96.533287 57.945824,98.623672 
z"/>
<path fill="#1A1B1C" opacity="1.000000" stroke="none" 
	d="
M83.209503,73.519669 
	C82.703049,72.780800 82.252289,71.576309 81.617615,69.982849 
	C81.378693,62.863960 81.323692,56.134052 81.506409,48.587761 
	C82.186111,46.181152 82.628105,44.590923 83.070099,43.000694 
	C83.135139,53.018482 83.200172,63.036274 83.209503,73.519669 
z"/>
<path fill="#F3F3F3" opacity="1.000000" stroke="none" 
	d="
M75.127548,89.961021 
	C74.701675,91.287132 74.275810,92.613251 73.202187,93.878784 
	C72.035858,93.228477 71.517288,92.638741 70.954666,91.708694 
	C69.463112,89.392693 68.522400,89.746048 67.758804,92.004181 
	C67.521790,92.005737 67.047760,92.002136 66.781174,91.995026 
	C66.336975,91.980362 66.159348,91.972801 65.981728,91.965233 
	C65.983650,91.232765 65.985580,90.500305 66.360977,89.347664 
	C69.532158,89.272003 72.329849,89.616508 75.127548,89.961021 
z"/>
<path fill="#626566" opacity="1.000000" stroke="none" 
	d="
M83.205818,42.746521 
	C82.628105,44.590923 82.186111,46.181152 81.516113,48.157219 
	C80.764168,45.322868 80.240227,42.102680 79.783569,38.505714 
	C79.850853,38.128941 79.960258,38.032269 80.345261,38.001694 
	C81.172989,37.973511 81.615707,37.975903 82.058434,37.978294 
	C82.486130,39.482979 82.913834,40.987663 83.205818,42.746521 
z"/>
<path fill="#E7E7E7" opacity="1.000000" stroke="none" 
	d="
M75.454674,102.093529 
	C75.555405,99.129692 74.632935,95.830025 78.500137,93.904465 
	C79.084129,94.428322 79.286530,95.024826 79.742249,95.810776 
	C79.747589,96.495682 79.499626,96.991150 79.101562,98.076538 
	C77.785858,99.808823 76.620270,100.951172 75.454674,102.093529 
z"/>
<path fill="#EFEFEF" opacity="1.000000" stroke="none" 
	d="
M17.606909,131.949112 
	C17.526915,132.319992 17.061674,132.645508 15.892857,132.988663 
	C13.128675,133.356461 11.068073,133.706619 9.007471,134.056778 
	C10.772326,129.626160 14.048955,130.963181 17.606909,131.949112 
z"/>
<path fill="#EFEFEF" opacity="1.000000" stroke="none" 
	d="
M6.970352,142.010605 
	C6.486838,141.743988 6.003325,141.477386 5.265627,141.101837 
	C5.773880,139.020828 6.536316,137.048752 7.626476,135.389236 
	C7.972833,137.139404 7.991467,138.577026 7.986925,140.314026 
	C7.632616,141.079132 7.301484,141.544861 6.970352,142.010605 
z"/>
<path fill="#E7E7E7" opacity="1.000000" stroke="none" 
	d="
M75.156464,89.832405 
	C72.329849,89.616508 69.532158,89.272003 66.359390,88.981430 
	C68.770714,85.249847 71.775917,86.541771 75.002754,89.047455 
	C75.189011,89.440163 75.185379,89.703789 75.156464,89.832405 
z"/>
<path fill="#F3F3F3" opacity="1.000000" stroke="none" 
	d="
M14.336761,83.755592 
	C13.624535,83.980766 13.176327,83.989906 12.395802,84.066437 
	C11.128428,83.041985 10.193368,81.950142 9.414511,80.460281 
	C10.688213,80.202805 11.805715,80.343338 13.246766,80.616913 
	C13.913804,81.679825 14.257292,82.609688 14.336761,83.755592 
z"/>
<path fill="#F9FAFA" opacity="1.000000" stroke="none" 
	d="
M9.001411,134.289032 
	C11.068073,133.706619 13.128675,133.356461 15.591177,133.002716 
	C14.925634,133.676010 13.858194,134.352921 12.034048,135.020782 
	C10.517242,135.006805 9.757140,135.001877 8.997617,134.997589 
	C8.998195,134.998245 8.985909,134.985886 8.985909,134.985886 
	C8.985909,134.985886 8.995352,134.521301 9.001411,134.289032 
z"/>
<path fill="#E7E7E7" opacity="1.000000" stroke="none" 
	d="
M49.002869,100.645477 
	C48.612236,101.501801 48.219406,102.002075 47.916431,102.754639 
	C47.370785,102.117386 46.452053,101.293671 46.223286,100.309570 
	C46.114380,99.841080 47.318871,99.067268 47.928413,98.431763 
	C48.285828,99.050987 48.643246,99.670204 49.002869,100.645477 
z"/>
<path fill="#F9FAFA" opacity="1.000000" stroke="none" 
	d="
M11.045129,43.629578 
	C10.242222,43.929352 9.487551,43.849945 8.367287,43.887699 
	C8.256186,43.057613 8.510680,42.110371 9.084744,40.955643 
	C10.083678,41.125145 10.763041,41.502125 11.358313,42.193375 
	C11.213936,42.755230 11.153650,43.002819 11.045129,43.629578 
z"/>
<path fill="#626566" opacity="1.000000" stroke="none" 
	d="
M53.740074,16.964010 
	C53.028233,17.017277 52.232513,16.826992 51.436790,16.636707 
	C51.674610,16.277819 51.912430,15.918929 52.150246,15.560040 
	C52.652229,15.946847 53.154213,16.333654 53.740074,16.964010 
z"/>
<path fill="#F9FAFA" opacity="1.000000" stroke="none" 
	d="
M16.301765,113.580765 
	C16.909740,114.513008 17.390240,115.867195 17.826567,117.611107 
	C17.246359,116.668129 16.710323,115.335419 16.301765,113.580765 
z"/>
<path fill="#F9FAFA" opacity="1.000000" stroke="none" 
	d="
M8.010099,140.014648 
	C7.991467,138.577026 7.972833,137.139404 8.005889,135.355042 
	C8.057578,135.008286 8.521926,134.997757 8.753918,134.991821 
	C8.985909,134.985886 8.998195,134.998245 9.002236,135.385498 
	C8.674218,137.186722 8.342158,138.600693 8.010099,140.014648 
z"/>
<path fill="#E7E7E7" opacity="1.000000" stroke="none" 
	d="
M62.664989,94.039856 
	C62.998302,94.749321 62.996151,95.505974 62.997303,96.641418 
	C62.776917,96.042480 62.553219,95.064758 62.664989,94.039856 
z"/>
<path fill="#E7E7E7" opacity="1.000000" stroke="none" 
	d="
M65.765472,92.082718 
	C66.159348,91.972801 66.336975,91.980362 66.629097,92.312431 
	C66.516487,93.761139 66.289375,94.885323 66.062271,96.009514 
	C65.707115,95.232201 65.351959,94.454895 64.987183,93.332451 
	C65.088257,92.666946 65.278809,92.404579 65.765472,92.082718 
z"/>
<path fill="#F3F3F3" opacity="1.000000" stroke="none" 
	d="
M13.079588,94.013336 
	C13.736040,94.300316 14.102486,94.744736 14.401901,95.485382 
	C13.819777,95.244659 13.304679,94.707710 13.079588,94.013336 
z"/>
<path fill="#F3F3F3" opacity="1.000000" stroke="none" 
	d="
M33.909081,106.825775 
	C33.269852,106.700417 32.611351,106.215576 31.841206,105.419632 
	C32.449642,105.561111 33.169724,106.013702 33.909081,106.825775 
z"/>
<path fill="#686A6B" opacity="1.000000" stroke="none" 
	d="
M82.083359,37.665932 
	C81.615707,37.975903 81.172989,37.973511 80.399017,37.952301 
	C80.250145,37.363998 80.432526,36.794514 80.890335,36.073948 
	C81.479942,36.399765 81.794121,36.876667 82.083359,37.665932 
z"/>
<path fill="#626566" opacity="1.000000" stroke="none" 
	d="
M55.469833,15.525434 
	C55.458256,15.552019 55.481411,15.498848 55.469833,15.525434 
z"/>
<path fill="#F9FAFA" opacity="1.000000" stroke="none" 
	d="
M21.481174,214.009262 
	C20.337814,213.376526 18.340490,212.901245 18.190071,212.085434 
	C17.233519,206.897598 16.200941,201.644379 16.095078,196.394516 
	C15.816546,182.581879 15.999458,168.759949 16.347620,154.475189 
	C17.841225,154.042740 18.985783,154.076797 20.331013,154.527466 
	C20.848183,174.632477 21.164679,194.320877 21.481174,214.009262 
z"/>
<path fill="#4B4D4F" opacity="1.000000" stroke="none" 
	d="
M21.519070,214.407333 
	C21.164679,194.320877 20.848183,174.632477 20.594860,154.272125 
	C20.753399,153.375305 20.848764,153.150452 21.274332,152.849701 
	C22.216541,152.479462 22.828547,152.185150 23.465000,152.364761 
	C23.531605,158.143829 23.542210,163.449432 23.622204,168.753998 
	C23.814470,181.503265 24.039278,194.252029 24.156786,207.277832 
	C24.225273,208.096359 24.387934,208.638031 24.457855,209.627838 
	C24.779856,215.388535 25.194595,220.701141 25.541084,226.354675 
	C25.787640,227.541000 26.102444,228.386383 26.374668,229.641663 
	C26.833712,233.006561 27.335335,235.961563 27.836960,238.916565 
	C26.372852,236.928024 24.143793,235.125870 23.604403,232.912048 
	C22.492943,228.350266 22.283724,223.568665 21.595350,218.436462 
	C21.510603,216.932098 21.533783,215.868744 21.519070,214.407333 
z"/>
<path fill="#F9FAFA" opacity="1.000000" stroke="none" 
	d="
M14.021399,152.988831 
	C7.808344,151.446548 14.018933,148.101929 13.301500,145.416229 
	C14.107206,144.864578 14.591223,144.705765 15.075239,144.546936 
	C15.036976,144.352768 14.998713,144.158585 14.960451,143.964401 
	C13.640259,143.964401 12.320066,143.964401 10.888575,143.749374 
	C10.571317,143.268875 10.306396,143.091400 10.239038,142.713348 
	C13.330796,141.949036 16.166027,141.473282 18.978434,141.299988 
	C18.676226,142.365173 18.396843,143.127945 18.117458,143.890701 
	C22.351040,144.368576 18.417788,146.930954 19.251438,148.492874 
	C19.265070,148.705643 19.283909,149.131638 18.875193,149.101624 
	C15.518398,148.713364 13.787865,149.736740 14.021399,152.988831 
z"/>
<path fill="#E7E7E7" opacity="1.000000" stroke="none" 
	d="
M19.001259,140.997543 
	C16.166027,141.473282 13.330796,141.949036 9.998180,142.878662 
	C9.328859,143.878006 9.156923,144.423508 8.984984,144.968994 
	C8.337561,144.193634 7.690139,143.418274 7.006536,142.326752 
	C7.301484,141.544861 7.632616,141.079132 7.986923,140.314026 
	C8.342158,138.600693 8.674218,137.186722 9.001658,135.384857 
	C9.757140,135.001877 10.517242,135.006805 11.657995,135.029221 
	C12.038648,135.046707 12.018917,135.506607 11.866706,136.078918 
	C10.515551,138.923111 11.178456,140.149109 13.765950,139.948105 
	C15.527330,139.811264 17.263800,139.353760 19.006927,139.365448 
	C19.002052,140.126694 19.001657,140.562119 19.001259,140.997543 
z"/>
<path fill="#E1E2E2" opacity="1.000000" stroke="none" 
	d="
M14.315472,153.016663 
	C13.787865,149.736740 15.518398,148.713364 19.057384,149.344360 
	C20.080238,150.719971 20.512182,151.822784 20.944126,152.925613 
	C20.848764,153.150452 20.753399,153.375305 20.394186,153.855499 
	C18.985783,154.076797 17.841225,154.042740 16.347359,154.006866 
	C15.535216,153.684845 15.072380,153.364670 14.315472,153.016663 
z"/>
<path fill="#F9FAFA" opacity="1.000000" stroke="none" 
	d="
M7.000066,157.000061 
	C5.894962,155.845566 4.789858,154.691071 3.684755,153.536560 
	C3.916884,153.241364 4.149013,152.946167 4.381142,152.650970 
	C5.074391,153.026886 5.767641,153.402786 6.733374,153.920761 
	C7.006292,154.492828 7.006726,154.922821 7.003592,155.926422 
	C7.000038,156.666702 7.000052,156.833389 7.000066,157.000061 
z"/>
<path fill="#F9FAFA" opacity="1.000000" stroke="none" 
	d="
M9.963194,155.695618 
	C9.506403,156.254501 9.010263,156.514435 8.257168,156.636688 
	C8.000000,156.332031 7.999787,156.165039 7.999574,155.998032 
	C8.231062,155.478622 8.462550,154.959229 8.694040,154.439819 
	C9.103976,154.758759 9.513910,155.077713 9.963194,155.695618 
z"/>
<path fill="#E7E7E7" opacity="1.000000" stroke="none" 
	d="
M10.999874,143.964401 
	C12.320066,143.964401 13.640259,143.964401 14.960451,143.964401 
	C14.998713,144.158585 15.036976,144.352768 15.075239,144.546936 
	C14.591223,144.705765 14.107206,144.864578 13.302139,145.046967 
	C12.538777,145.055389 12.096466,145.040237 11.324842,144.757233 
	C10.996979,144.314392 10.998426,144.139389 10.999874,143.964401 
z"/>
<path fill="#EFEFEF" opacity="1.000000" stroke="none" 
	d="
M10.888575,143.749374 
	C10.998426,144.139389 10.996979,144.314392 10.992757,144.752075 
	C10.544450,145.010071 10.098916,145.005371 9.319185,144.984833 
	C9.156923,144.423508 9.328859,143.878006 9.741653,143.167206 
	C10.306396,143.091400 10.571317,143.268875 10.888575,143.749374 
z"/>
<path fill="#F9FAFA" opacity="1.000000" stroke="none" 
	d="
M4.965784,148.715454 
	C4.439463,148.832367 3.885223,148.656113 3.166854,148.231445 
	C3.647772,148.129440 4.292819,148.275864 4.965784,148.715454 
z"/>
<path fill="#EFEFEF" opacity="1.000000" stroke="none" 
	d="
M7.749688,155.998825 
	C7.999787,156.165039 8.000000,156.332031 8.000145,156.749481 
	C8.000077,156.999924 7.999997,157.000000 7.748624,156.998428 
	C7.497250,156.996857 6.997457,156.997559 6.997457,156.997559 
	C6.997457,156.997559 6.999999,157.000000 7.000032,157.000031 
	C7.000052,156.833389 7.000038,156.666702 7.000026,156.249573 
	C7.000028,155.999130 7.499802,155.999619 7.749688,155.998825 
z"/>
<path fill="#FAFAFA" opacity="1.000000" stroke="none" 
	d="
M72.999840,183.998169 
	C71.575935,184.552368 69.219254,184.776596 68.886650,185.716843 
	C67.290718,190.228424 66.153473,194.912445 65.037689,199.579285 
	C64.506340,201.801712 64.348602,204.118073 64.085678,206.399261 
	C63.043251,215.443741 61.868446,224.477356 61.076786,233.544174 
	C60.757523,237.200623 59.486580,239.160263 55.185112,238.575012 
	C54.737568,237.099045 54.778343,236.029022 55.061684,234.699600 
	C55.395283,233.259491 55.486317,232.078796 55.693001,230.527374 
	C55.581738,228.742142 55.354816,227.327652 55.067493,225.607834 
	C55.058399,224.894562 55.109707,224.486633 55.361763,224.053452 
	C55.562504,224.028214 55.965164,223.988068 56.356400,223.909149 
	C57.063137,222.382416 57.378635,220.934570 57.618156,219.290375 
	C57.402428,218.714615 57.262684,218.335220 57.295387,217.594849 
	C57.557564,216.178055 57.647289,215.122238 57.871384,213.831268 
	C57.998146,213.061218 57.990536,212.526306 58.120872,211.659164 
	C58.682930,208.591293 59.107033,205.855652 59.869270,203.075195 
	C60.422707,201.810013 60.638012,200.589676 60.669952,199.052307 
	C60.486923,198.491135 60.487251,198.246994 60.823547,197.876648 
	C61.375340,196.613220 61.591164,195.475998 61.683167,194.021835 
	C62.106319,191.145462 62.653301,188.586014 63.500084,185.969727 
	C63.948814,184.968338 64.097740,184.023788 64.250885,182.696167 
	C64.294350,181.549805 64.333595,180.786514 64.633835,180.004044 
	C65.277557,179.657379 65.660286,179.329910 66.388550,179.037033 
	C68.822670,180.713806 70.911255,182.355988 72.999840,183.998169 
z"/>
<path fill="#4B4D4F" opacity="1.000000" stroke="none" 
	d="
M55.127895,225.913162 
	C55.354816,227.327652 55.581738,228.742142 55.392147,230.613098 
	C54.923466,232.366043 54.871292,233.662537 54.819115,234.959015 
	C54.778343,236.029022 54.737568,237.099045 54.777283,238.563965 
	C54.681831,240.102310 54.505886,241.245773 53.812920,242.894470 
	C53.218697,244.967133 53.141487,246.534561 53.064278,248.101990 
	C52.894749,254.978653 54.553638,262.074066 50.518036,268.746826 
	C50.465340,267.859406 50.426830,267.210876 50.420071,265.997314 
	C50.037994,264.514282 49.624168,263.596283 49.578056,262.575134 
	C50.123520,260.914368 50.301266,259.356720 50.494072,257.349792 
	C50.892979,250.266861 51.276829,243.633224 51.814308,236.645508 
	C51.969994,235.527679 51.972054,234.763931 52.075760,233.621704 
	C52.428341,231.166290 52.679283,229.089371 53.217670,226.900772 
	C54.046043,226.497131 54.586967,226.205139 55.127895,225.913162 
z"/>
<path fill="#F9FAFA" opacity="1.000000" stroke="none" 
	d="
M73.258789,184.105499 
	C70.911255,182.355988 68.822670,180.713806 66.502098,178.738342 
	C66.535629,177.602386 66.801147,176.799698 67.394417,176.031128 
	C69.147911,177.043503 70.573654,178.021744 71.999390,179.000000 
	C72.166077,179.000427 72.332764,179.000854 72.783630,179.345123 
	C74.378540,180.792633 75.689270,181.896317 77.000000,183.000000 
	C76.546967,183.639160 76.093933,184.278336 75.319992,184.959061 
	C74.505302,184.738022 74.011520,184.475433 73.258789,184.105499 
z"/>
<path fill="#727475" opacity="1.000000" stroke="none" 
	d="
M53.291855,247.891403 
	C53.141487,246.534561 53.218697,244.967133 53.636463,243.203003 
	C54.200268,243.487350 54.423512,243.968399 54.716759,244.731644 
	C54.364323,245.902847 53.941879,246.791824 53.291855,247.891403 
z"/>
<path fill="#FAFAFA" opacity="1.000000" stroke="none" 
	d="
M71.993034,178.611816 
	C70.573654,178.021744 69.147911,177.043503 67.381126,175.625000 
	C67.369179,173.780777 67.827530,172.392761 68.003548,170.969833 
	C68.568779,166.400787 69.029655,161.818848 69.367386,156.789764 
	C69.983345,149.558502 70.762711,142.779343 71.542068,136.000183 
	C75.963531,136.670273 76.703346,139.315521 75.728477,144.701370 
	C74.320030,152.482666 73.769852,160.420898 72.899467,168.297241 
	C72.534576,171.599335 72.287384,174.914429 71.993034,178.611816 
z"/>
<path fill="#FAFAFA" opacity="1.000000" stroke="none" 
	d="
M75.376495,102.519577 
	C76.620270,100.951172 77.785858,99.808823 79.002029,98.335571 
	C79.686295,99.403366 81.209435,101.162941 80.811722,102.143158 
	C77.866028,109.403282 77.356293,116.983688 76.848801,124.651123 
	C76.729202,126.458000 74.801933,128.145233 73.362869,129.523102 
	C73.330620,125.072197 73.641762,120.985687 73.946899,116.479263 
	C73.939125,114.353767 73.937347,112.648178 73.935570,110.942596 
	C74.389824,108.276939 74.844070,105.611275 75.376495,102.519577 
z"/>
<path fill="#F9FAFA" opacity="1.000000" stroke="none" 
	d="
M73.952896,116.899178 
	C73.641762,120.985687 73.330620,125.072197 73.009598,129.578430 
	C72.339050,130.778442 71.678398,131.558701 70.670288,132.598969 
	C69.536240,133.233658 68.749649,133.608353 67.679123,133.702103 
	C65.941582,128.804123 66.983223,124.989738 71.062607,121.724899 
	C71.190941,119.282967 70.527222,116.769089 73.952896,116.899178 
z"/>
<path fill="#3E4041" opacity="1.000000" stroke="none" 
	d="
M67.963066,133.983047 
	C68.749649,133.608353 69.536240,133.233658 70.651222,132.955856 
	C71.065697,133.802582 71.151787,134.552414 71.389969,135.651215 
	C70.762711,142.779343 69.983345,149.558502 68.967697,156.737152 
	C68.464546,157.166901 68.197701,157.197144 67.536499,157.104370 
	C66.778786,155.889038 66.032196,154.766815 66.114594,153.709198 
	C66.627487,147.125778 67.326065,140.556808 67.963066,133.983047 
z"/>
<path fill="#FAFAFA" opacity="1.000000" stroke="none" 
	d="
M76.965958,182.656738 
	C75.689270,181.896317 74.378540,180.792633 73.033661,179.346008 
	C74.310318,180.106537 75.621109,181.210022 76.965958,182.656738 
z"/>
<path fill="#FAFAFA" opacity="1.000000" stroke="none" 
	d="
M67.679123,133.702103 
	C67.326065,140.556808 66.627487,147.125778 66.114594,153.709198 
	C66.032196,154.766815 66.778786,155.889038 67.337189,157.390274 
	C66.285271,159.593079 64.671745,161.241013 63.884323,163.217972 
	C62.904594,165.677750 62.607059,168.409225 61.818581,170.747498 
	C59.667423,169.369583 57.712605,168.267548 55.757782,167.165512 
	C55.442863,167.649399 55.127945,168.133286 54.813026,168.617172 
	C57.165848,170.411377 59.518669,172.205582 61.895229,174.406830 
	C61.963779,175.899536 62.008591,176.985199 62.039909,178.053635 
	C62.026413,178.036392 62.065140,178.039261 61.756264,178.047089 
	C61.344822,178.717728 61.242252,179.380539 61.139412,180.452728 
	C60.353458,184.241074 59.567776,187.620041 58.484428,191.050903 
	C58.051022,192.042786 57.915279,192.982773 57.779488,194.343201 
	C57.749008,196.158310 57.718571,197.552948 57.470764,199.239304 
	C56.876141,203.368530 56.498882,207.206070 55.846176,211.039352 
	C55.387333,211.035919 55.203938,211.036743 54.849434,210.802673 
	C54.229588,210.710617 53.780846,210.853455 53.332108,210.996292 
	C53.710793,211.402969 54.089478,211.809647 54.495239,212.457047 
	C54.500061,212.855682 54.432533,213.023697 54.465038,213.169388 
	C54.531422,213.466934 54.651627,213.752457 54.602463,214.425003 
	C54.112053,217.811523 53.768845,220.815979 53.204247,223.954895 
	C52.965313,225.063721 52.947769,226.038086 52.930225,227.012436 
	C52.679283,229.089371 52.428341,231.166290 51.756001,233.666321 
	C51.443295,235.059494 51.551987,236.029541 51.660679,236.999603 
	C51.276829,243.633224 50.892979,250.266861 50.121552,257.595886 
	C49.559429,259.753601 49.384888,261.215942 49.210342,262.678284 
	C49.624168,263.596283 50.037994,264.514282 50.329201,265.716553 
	C47.066914,266.259949 43.851940,269.102448 40.818222,265.934784 
	C39.295254,264.344574 37.630421,262.667877 36.774403,260.705505 
	C34.714302,255.982849 29.208136,252.691620 30.823420,246.318054 
	C31.027637,245.512238 29.117563,244.170563 28.195305,243.086868 
	C28.253719,242.028183 28.328867,240.666199 28.120487,239.110382 
	C27.335335,235.961563 26.833712,233.006561 26.721594,229.464096 
	C26.610510,227.922333 26.109921,226.968033 25.609333,226.013733 
	C25.194595,220.701141 24.779856,215.388535 24.738335,209.497986 
	C24.824686,208.280350 24.537823,207.640671 24.250957,207.001007 
	C24.039278,194.252029 23.814470,181.503265 23.622204,168.753998 
	C23.542210,163.449432 23.531605,158.143829 23.669083,152.210358 
	C23.880136,151.070404 23.911552,150.558792 24.071930,149.828583 
	C24.471315,149.414749 24.741737,149.219498 25.396114,148.936737 
	C26.186077,146.233017 26.592085,143.616806 27.301962,141.151184 
	C30.793209,143.022186 33.932354,143.375183 36.982182,140.636597 
	C36.996529,139.854675 37.002937,139.407440 37.008793,138.626282 
	C37.337139,137.528839 37.666042,136.765335 38.386024,135.999207 
	C41.936401,133.957397 45.030262,131.806168 48.274113,129.911758 
	C51.287437,128.151962 50.988003,126.243561 49.198414,123.899857 
	C49.624100,123.511345 49.820107,123.236786 50.016113,122.962219 
	C54.009159,123.042809 57.807571,122.775436 59.360893,117.477585 
	C60.085640,116.990082 60.486877,116.941048 61.146751,116.833847 
	C61.559624,116.474670 61.713860,116.173653 62.042427,115.581795 
	C63.488911,113.871155 64.761063,112.451363 66.033211,111.031570 
	C66.458794,111.007957 66.884384,110.984344 67.932251,111.196671 
	C68.675598,113.816078 68.584259,116.237671 69.002327,118.567856 
	C69.230324,119.838593 70.321861,120.954384 71.023949,122.140060 
	C66.983223,124.989738 65.941582,128.804123 67.679123,133.702103 
z"/>
<path fill="#F9FAFA" opacity="1.000000" stroke="none" 
	d="
M6.998640,157.340866 
	C6.997457,156.997559 7.497250,156.996857 7.747089,156.999954 
	C7.996929,157.956818 7.996929,158.910583 7.996929,159.864349 
	C7.791600,159.889023 7.586271,159.913696 7.380942,159.938385 
	C7.253902,159.186981 7.126862,158.435577 6.998640,157.340866 
z"/>
<path fill="#F9FAFA" opacity="1.000000" stroke="none" 
	d="
M37.994942,136.001831 
	C37.666042,136.765335 37.337139,137.528839 36.667786,138.635010 
	C35.872250,138.980148 35.417164,138.982635 34.660378,138.829651 
	C32.250278,137.116348 30.141880,135.558548 28.058830,133.626709 
	C29.346722,128.302673 29.099266,128.052002 22.955536,128.057526 
	C22.508522,127.719307 22.061506,127.381088 21.320393,127.023788 
	C21.135199,124.844688 21.244104,122.684662 21.648270,119.811066 
	C21.419731,117.726936 20.895931,116.356361 20.372135,114.985794 
	C20.234528,112.608047 20.096920,110.230293 20.016600,107.408470 
	C22.547047,103.606407 20.379105,102.142845 16.925779,101.203949 
	C17.269510,100.776482 17.613243,100.349014 17.956974,99.921555 
	C19.499754,100.536949 21.042532,101.152344 22.939451,101.893745 
	C26.287363,104.567352 29.281136,107.114952 32.611351,109.694534 
	C34.526237,111.621040 36.104683,113.515564 37.495209,115.765282 
	C34.280346,119.132347 37.305569,120.708275 38.960030,122.374580 
	C41.172005,124.602379 43.225662,126.676163 40.696419,129.871490 
	C37.585430,127.159698 34.786419,124.584839 31.649609,122.039566 
	C29.281548,123.300720 26.167873,124.245117 30.222458,127.298088 
	C31.642401,128.837769 32.806866,130.139191 34.041294,131.370453 
	C34.966824,132.293610 35.982384,133.126511 37.072147,134.258102 
	C37.455936,135.011688 37.725441,135.506760 37.994942,136.001831 
z"/>
<path fill="#E7E7E7" opacity="1.000000" stroke="none" 
	d="
M41.008400,130.008423 
	C43.225662,126.676163 41.172005,124.602379 38.960030,122.374580 
	C37.305569,120.708275 34.280346,119.132347 37.659004,116.061417 
	C39.825577,116.608696 41.640434,117.215042 43.777309,118.303375 
	C45.722466,120.528175 47.345600,122.270988 48.968735,124.013809 
	C50.988003,126.243561 51.287437,128.151962 48.274113,129.911758 
	C45.030262,131.806168 41.936401,133.957397 38.386024,135.999207 
	C37.725441,135.506760 37.455936,135.011688 37.468170,134.259125 
	C39.002121,133.891861 40.254341,133.782089 41.692848,133.656006 
	C41.421276,132.208740 41.214836,131.108582 41.008400,130.008423 
z"/>
<path fill="#AEAFAF" opacity="1.000000" stroke="none" 
	d="
M60.888111,116.892014 
	C60.486877,116.941048 60.085640,116.990082 59.390812,117.114624 
	C57.487007,117.673203 55.876797,118.156281 53.825523,118.771690 
	C53.918243,117.507805 54.014107,116.201019 54.185684,114.549347 
	C55.254051,114.160683 56.246704,114.116898 57.945045,114.021950 
	C59.138973,113.320168 59.627213,112.669548 60.115456,112.018936 
	C60.426201,111.923103 60.658226,111.731804 60.907509,111.235779 
	C61.430592,111.011871 61.857697,110.997238 62.991592,110.981827 
	C64.472008,110.993904 65.245636,111.006752 66.019264,111.019608 
	C66.019264,111.019608 66.008911,111.008606 66.021057,111.020088 
	C64.761063,112.451363 63.488911,113.871155 61.848122,115.719955 
	C61.232807,116.357216 61.035683,116.604897 60.888111,116.892014 
z"/>
<path fill="#F9FAFA" opacity="1.000000" stroke="none" 
	d="
M49.198418,123.899857 
	C47.345600,122.270988 45.722466,120.528175 44.106705,118.460068 
	C45.980404,119.549202 47.846729,120.963615 49.864586,122.670120 
	C49.820107,123.236786 49.624100,123.511345 49.198418,123.899857 
z"/>
<path fill="#EFEFEF" opacity="1.000000" stroke="none" 
	d="
M45.350647,113.986855 
	C45.154575,112.819786 45.290154,111.669350 45.425732,110.518921 
	C45.733372,110.498260 46.041012,110.477608 46.348648,110.456947 
	C46.567497,111.394669 46.786346,112.332382 47.008289,113.640762 
	C46.568352,114.008774 46.125324,114.006134 45.350647,113.986855 
z"/>
<path fill="#F9FAFA" opacity="1.000000" stroke="none" 
	d="
M66.370201,96.167847 
	C66.289375,94.885323 66.516487,93.761139 66.895676,92.319542 
	C67.047760,92.002136 67.521790,92.005737 68.134361,92.000778 
	C69.497528,92.013550 70.248116,92.031281 70.998711,92.049011 
	C71.517288,92.638741 72.035858,93.228477 72.834709,93.935165 
	C72.663292,95.279518 72.211601,96.506905 71.465034,97.899643 
	C69.672821,97.485390 68.175476,96.905785 66.370201,96.167847 
z"/>
<path fill="#D4D5D5" opacity="1.000000" stroke="none" 
	d="
M66.007034,110.615059 
	C65.245636,111.006752 64.472008,110.993904 63.310928,110.954346 
	C62.622162,110.059883 62.320847,109.192123 61.952385,108.130997 
	C63.214825,107.813904 64.313179,107.538017 65.681793,107.118698 
	C65.966301,108.053680 65.980553,109.132095 66.007034,110.615059 
z"/>
<path fill="#D4D5D5" opacity="1.000000" stroke="none" 
	d="
M69.017769,103.050003 
	C68.759384,104.025436 68.157379,104.985809 67.231133,105.908096 
	C66.941666,105.155350 66.976433,104.440697 67.259888,103.372818 
	C67.508568,103.019577 67.986343,103.023895 67.986343,103.023895 
	C68.215614,103.027573 68.444878,103.031258 69.017769,103.050003 
z"/>
<path fill="#E7E7E7" opacity="1.000000" stroke="none" 
	d="
M67.827682,102.772636 
	C67.986343,103.023895 67.508568,103.019577 67.270134,103.013580 
	C66.758797,102.823547 66.485886,102.639511 66.106903,102.227341 
	C66.000816,101.999222 66.012726,101.987114 66.012726,101.987106 
	C66.564827,102.165199 67.116920,102.343285 67.827682,102.772636 
z"/>
<path fill="#E7E7E7" opacity="1.000000" stroke="none" 
	d="
M65.994522,102.003777 
	C65.738411,101.656464 65.486343,101.306046 65.254890,100.942497 
	C65.250221,100.935165 65.485886,100.774818 65.609428,100.685852 
	C65.734444,100.959084 65.859459,101.232315 65.998596,101.746330 
	C66.012726,101.987114 66.000816,101.999222 65.994522,102.003777 
z"/>
<path fill="#F9FAFA" opacity="1.000000" stroke="none" 
	d="
M59.779633,112.050140 
	C59.627213,112.669548 59.138973,113.320168 58.320499,113.994987 
	C58.474781,113.373245 58.959297,112.727295 59.779633,112.050140 
z"/>
<path fill="#D4D5D5" opacity="1.000000" stroke="none" 
	d="
M71.062607,121.724899 
	C70.321861,120.954384 69.230324,119.838593 69.002327,118.567856 
	C68.584259,116.237671 68.675598,113.816078 68.246284,111.136246 
	C68.936218,109.135902 68.264786,105.300652 72.472244,107.548973 
	C71.795784,108.778320 71.121597,110.003540 70.174377,111.724937 
	C71.521027,111.410866 72.404663,111.204773 73.611931,110.970642 
	C73.937347,112.648178 73.939125,114.353767 73.946899,116.479263 
	C70.527222,116.769089 71.190941,119.282967 71.062607,121.724899 
z"/>
<path fill="#F3F3F3" opacity="1.000000" stroke="none" 
	d="
M20.251450,115.372360 
	C20.895931,116.356361 21.419731,117.726936 21.815720,119.372971 
	C21.168861,118.351929 20.649815,117.055420 20.251450,115.372360 
z"/>
<path fill="#F3F3F3" opacity="1.000000" stroke="none" 
	d="
M28.033480,134.000748 
	C30.141880,135.558548 32.250278,137.116348 34.712471,139.149628 
	C35.702259,140.073837 36.338253,140.522568 36.974247,140.971298 
	C33.932354,143.375183 30.793209,143.022186 27.302952,141.150879 
	C27.000076,141.000000 27.000053,141.002594 26.898712,140.744171 
	C26.533285,140.001373 26.269197,139.516983 25.971344,138.670334 
	C24.320515,136.867996 22.703453,135.427933 21.086388,133.987869 
	C21.542595,132.762817 21.998806,131.537781 22.908478,130.389587 
	C24.240519,130.643295 25.119099,130.820129 25.998840,130.998474 
	C26.000000,131.000000 26.002892,131.002213 26.007027,131.358536 
	C26.685266,132.476822 27.359373,133.238785 28.033480,134.000748 
z"/>
<path fill="#F9FAFA" opacity="1.000000" stroke="none" 
	d="
M19.011410,139.039642 
	C17.263800,139.353760 15.527330,139.811264 13.765950,139.948105 
	C11.178456,140.149109 10.515551,138.923111 11.860005,136.308960 
	C14.404473,135.654572 16.803431,135.342422 19.868309,135.229111 
	C20.697781,136.288025 20.861332,137.148117 20.854149,138.253250 
	C20.126080,138.678757 19.568747,138.859207 19.011410,139.039642 
z"/>
<path fill="#E7E7E7" opacity="1.000000" stroke="none" 
	d="
M25.997679,130.996948 
	C25.119099,130.820129 24.240519,130.643295 23.162785,130.184204 
	C22.963909,129.491974 22.964190,129.082031 22.960003,128.364807 
	C29.099266,128.052002 29.346722,128.302673 28.058830,133.626709 
	C27.359373,133.238785 26.685266,132.476822 26.146679,131.303894 
	C26.187361,130.927597 26.092520,130.962265 25.997679,130.996948 
z"/>
<path fill="#E7E7E7" opacity="1.000000" stroke="none" 
	d="
M21.024885,138.008194 
	C20.861332,137.148117 20.697781,136.288025 20.272306,135.225159 
	C20.212282,134.750397 20.414183,134.478424 20.851238,134.097168 
	C22.703453,135.427933 24.320515,136.867996 25.639807,138.658661 
	C24.900263,139.007462 24.458488,139.005661 23.721560,138.880081 
	C22.625898,138.506927 21.825392,138.257553 21.024885,138.008194 
z"/>
<path fill="#E7E7E7" opacity="1.000000" stroke="none" 
	d="
M70.954666,91.708694 
	C70.248116,92.031281 69.497528,92.013550 68.371376,91.999222 
	C68.522400,89.746048 69.463112,89.392693 70.954666,91.708694 
z"/>
<path fill="#AEAFAF" opacity="1.000000" stroke="none" 
	d="
M23.942972,150.047165 
	C23.911552,150.558792 23.880136,151.070404 23.644636,151.736420 
	C22.828547,152.185150 22.216541,152.479462 21.274330,152.849701 
	C20.512182,151.822784 20.080238,150.719971 19.466103,149.374390 
	C19.283909,149.131638 19.265070,148.705643 19.585884,148.425446 
	C21.252125,148.779221 22.597549,149.413193 23.942972,150.047165 
z"/>
<path fill="#F9FAFA" opacity="1.000000" stroke="none" 
	d="
M25.541082,226.354675 
	C26.109921,226.968033 26.610510,227.922333 26.764175,229.054199 
	C26.102444,228.386383 25.787640,227.541000 25.541082,226.354675 
z"/>
<path fill="#F9FAFA" opacity="1.000000" stroke="none" 
	d="
M24.156788,207.277832 
	C24.537823,207.640671 24.824686,208.280350 24.831072,209.049866 
	C24.387934,208.638031 24.225273,208.096359 24.156788,207.277832 
z"/>
<path fill="#E1E2E2" opacity="1.000000" stroke="none" 
	d="
M24.071934,149.828583 
	C22.597549,149.413193 21.252125,148.779221 19.572252,148.212677 
	C18.417788,146.930954 22.351040,144.368576 18.117458,143.890701 
	C18.396843,143.127945 18.676226,142.365173 18.978436,141.299988 
	C19.001657,140.562119 19.002052,140.126694 19.006931,139.365463 
	C19.568747,138.859207 20.126080,138.678757 20.854149,138.253250 
	C21.825392,138.257553 22.625898,138.506927 23.722771,139.204285 
	C24.025740,140.083817 24.032341,140.515366 23.879990,141.203583 
	C24.151413,143.981583 24.581789,146.502914 25.012161,149.024246 
	C24.741737,149.219498 24.471315,149.414749 24.071934,149.828583 
z"/>
<path fill="#E7E7E7" opacity="1.000000" stroke="none" 
	d="
M62.053406,178.070877 
	C62.008591,176.985199 61.963779,175.899536 61.933838,174.035843 
	C61.970776,172.513016 61.992847,171.768188 62.014915,171.023376 
	C62.607059,168.409225 62.904594,165.677750 63.884323,163.217972 
	C64.671745,161.241013 66.285271,159.593079 67.731537,157.513275 
	C68.197701,157.197144 68.464546,157.166901 69.131096,157.189270 
	C69.029655,161.818848 68.568779,166.400787 68.003548,170.969833 
	C67.827530,172.392761 67.369179,173.780777 67.053375,175.590897 
	C66.801147,176.799698 66.535629,177.602386 66.156563,178.703751 
	C65.660286,179.329910 65.277557,179.657379 64.417336,179.753632 
	C63.311031,179.038544 62.682217,178.554703 62.053406,178.070877 
z"/>
<path fill="#4B4D4F" opacity="1.000000" stroke="none" 
	d="
M62.039909,178.053635 
	C62.682217,178.554703 63.311031,179.038544 64.156342,179.772797 
	C64.333595,180.786514 64.294350,181.549805 63.934097,182.830444 
	C63.475491,184.240723 63.337887,185.133636 63.200279,186.026566 
	C62.653301,188.586014 62.106319,191.145462 61.401901,194.252502 
	C60.992165,195.867661 60.739872,196.935257 60.487579,198.002838 
	C60.487251,198.246994 60.486923,198.491135 60.288956,198.984558 
	C59.834152,199.220184 59.576992,199.206558 58.915314,199.108994 
	C58.236565,198.999222 57.962345,198.973404 57.688129,198.947601 
	C57.718571,197.552948 57.749008,196.158310 58.092705,194.201721 
	C58.531342,192.759537 58.656719,191.879257 58.782097,190.998993 
	C59.567776,187.620041 60.353458,184.241074 61.400925,180.300385 
	C61.796852,179.172180 61.930992,178.605713 62.065140,178.039261 
	C62.065140,178.039261 62.026413,178.036392 62.039909,178.053635 
z"/>
<path fill="#626566" opacity="1.000000" stroke="none" 
	d="
M57.470764,199.239304 
	C57.962345,198.973404 58.236565,198.999222 58.835724,199.442902 
	C59.284157,200.947189 59.407646,202.033615 59.531139,203.120026 
	C59.107033,205.855652 58.682930,208.591293 57.878223,211.556610 
	C57.038956,211.538712 56.580288,211.291153 56.121620,211.043594 
	C56.498882,207.206070 56.876141,203.368530 57.470764,199.239304 
z"/>
<path fill="#626566" opacity="1.000000" stroke="none" 
	d="
M53.425636,223.820435 
	C53.768845,220.815979 54.112053,217.811523 55.100174,214.419189 
	C56.409065,214.043015 57.073040,214.054733 57.737015,214.066437 
	C57.647289,215.122238 57.557564,216.178055 56.991829,217.801636 
	C56.376369,219.313782 56.236919,220.258133 56.143776,221.550842 
	C56.115108,222.595490 56.040138,223.291779 55.965164,223.988068 
	C55.965164,223.988068 55.562504,224.028214 54.927670,223.990509 
	C54.003769,223.908691 53.714699,223.864563 53.425636,223.820435 
z"/>
<path fill="#F9FAFA" opacity="1.000000" stroke="none" 
	d="
M59.869270,203.075195 
	C59.407646,202.033615 59.284157,200.947189 59.240250,199.526855 
	C59.576992,199.206558 59.834152,199.220184 60.472313,199.301575 
	C60.638012,200.589676 60.422707,201.810013 59.869270,203.075195 
z"/>
<path fill="#727475" opacity="1.000000" stroke="none" 
	d="
M57.871384,213.831268 
	C57.073040,214.054733 56.409065,214.043015 55.247375,214.037125 
	C54.651627,213.752457 54.531422,213.466934 54.465038,213.169388 
	C54.432533,213.023697 54.500061,212.855682 54.685257,212.317795 
	C55.065231,211.668304 55.122677,211.368225 55.020538,211.037552 
	C55.203938,211.036743 55.387333,211.035919 55.846176,211.039352 
	C56.580288,211.291153 57.038956,211.538712 57.740273,211.888855 
	C57.990536,212.526306 57.998146,213.061218 57.871384,213.831268 
z"/>
<path fill="#727475" opacity="1.000000" stroke="none" 
	d="
M53.204247,223.954895 
	C53.714699,223.864563 54.003769,223.908691 54.726929,224.015747 
	C55.109707,224.486633 55.058399,224.894562 55.067493,225.607834 
	C54.586967,226.205139 54.046043,226.497131 53.217670,226.900772 
	C52.947769,226.038086 52.965313,225.063721 53.204247,223.954895 
z"/>
<path fill="#727475" opacity="1.000000" stroke="none" 
	d="
M55.061684,234.699600 
	C54.871292,233.662537 54.923466,232.366043 55.276497,230.983826 
	C55.486317,232.078796 55.395283,233.259491 55.061684,234.699600 
z"/>
<path fill="#F9FAFA" opacity="1.000000" stroke="none" 
	d="
M56.356403,223.909149 
	C56.040138,223.291779 56.115108,222.595490 56.326920,221.320923 
	C56.873886,220.324020 57.284012,219.905380 57.694138,219.486755 
	C57.378635,220.934570 57.063137,222.382416 56.356403,223.909149 
z"/>
<path fill="#F9FAFA" opacity="1.000000" stroke="none" 
	d="
M60.823547,197.876648 
	C60.739872,196.935257 60.992165,195.867661 61.525726,194.569427 
	C61.591164,195.475998 61.375340,196.613220 60.823547,197.876648 
z"/>
<path fill="#E7E7E7" opacity="1.000000" stroke="none" 
	d="
M63.500084,185.969727 
	C63.337887,185.133636 63.475491,184.240723 63.929886,183.213516 
	C64.097740,184.023788 63.948814,184.968338 63.500084,185.969727 
z"/>
<path fill="#727475" opacity="1.000000" stroke="none" 
	d="
M57.618156,219.290375 
	C57.284012,219.905380 56.873886,220.324020 56.280617,220.972565 
	C56.236919,220.258133 56.376369,219.313782 56.819374,218.162628 
	C57.262684,218.335220 57.402428,218.714615 57.618156,219.290375 
z"/>
<path fill="#F9FAFA" opacity="1.000000" stroke="none" 
	d="
M49.578056,262.575134 
	C49.384888,261.215942 49.559429,259.753601 50.106491,258.045166 
	C50.301266,259.356720 50.123520,260.914368 49.578056,262.575134 
z"/>
<path fill="#F9FAFA" opacity="1.000000" stroke="none" 
	d="
M51.814308,236.645508 
	C51.551987,236.029541 51.443295,235.059494 51.654358,234.044800 
	C51.972054,234.763931 51.969994,235.527679 51.814308,236.645508 
z"/>
<path fill="#E7E7E7" opacity="1.000000" stroke="none" 
	d="
M25.396116,148.936737 
	C24.581789,146.502914 24.151413,143.981583 24.248903,141.222366 
	C25.517866,140.990524 26.258959,140.996552 27.000053,141.002594 
	C27.000053,141.002594 27.000076,141.000000 26.999084,141.000305 
	C26.592085,143.616806 26.186077,146.233017 25.396116,148.936737 
z"/>
<path fill="#F9FAFA" opacity="1.000000" stroke="none" 
	d="
M61.818581,170.747498 
	C61.992847,171.768188 61.970776,172.513016 61.910099,173.628815 
	C59.518669,172.205582 57.165848,170.411377 54.813026,168.617172 
	C55.127945,168.133286 55.442863,167.649399 55.757782,167.165512 
	C57.712605,168.267548 59.667423,169.369583 61.818581,170.747498 
z"/>
<path fill="#F9FAFA" opacity="1.000000" stroke="none" 
	d="
M58.484432,191.050903 
	C58.656719,191.879257 58.531342,192.759537 58.092751,193.781281 
	C57.915279,192.982773 58.051022,192.042786 58.484432,191.050903 
z"/>
<path fill="#F9FAFA" opacity="1.000000" stroke="none" 
	d="
M54.849434,210.802673 
	C55.122677,211.368225 55.065231,211.668304 54.658180,212.077072 
	C54.089478,211.809647 53.710793,211.402969 53.332108,210.996292 
	C53.780846,210.853455 54.229588,210.710617 54.849434,210.802673 
z"/>
<path fill="#E7E7E7" opacity="1.000000" stroke="none" 
	d="
M36.982182,140.636597 
	C36.338253,140.522568 35.702259,140.073837 35.014172,139.305115 
	C35.417164,138.982635 35.872250,138.980148 36.668343,138.968933 
	C37.002937,139.407440 36.996529,139.854675 36.982182,140.636597 
z"/>
<path fill="#E7E7E7" opacity="1.000000" stroke="none" 
	d="
M61.756264,178.047089 
	C61.930992,178.605713 61.796852,179.172180 61.401196,179.890991 
	C61.242252,179.380539 61.344822,178.717728 61.756264,178.047089 
z"/>
<path fill="#DCDCDC" opacity="1.000000" stroke="none" 
	d="
M61.146751,116.833847 
	C61.035683,116.604897 61.232807,116.357216 61.673790,116.010803 
	C61.713860,116.173653 61.559624,116.474670 61.146751,116.833847 
z"/>
<path fill="#F3F3F3" opacity="1.000000" stroke="none" 
	d="
M40.696419,129.871490 
	C41.214836,131.108582 41.421276,132.208740 41.692848,133.656006 
	C40.254341,133.782089 39.002121,133.891861 37.353882,134.000610 
	C35.982384,133.126511 34.966824,132.293610 34.041294,131.370453 
	C32.806866,130.139191 31.642401,128.837769 30.372238,126.983444 
	C30.860199,124.936928 31.423807,123.473450 31.987411,122.009972 
	C34.786419,124.584839 37.585430,127.159698 40.696419,129.871490 
z"/>
<path fill="#E7E7E7" opacity="1.000000" stroke="none" 
	d="
M31.649612,122.039566 
	C31.423807,123.473450 30.860199,124.936928 30.146812,126.715042 
	C26.167873,124.245117 29.281548,123.300720 31.649612,122.039566 
z"/>
<path fill="#F9FAFA" opacity="1.000000" stroke="none" 
	d="
M26.898712,140.744171 
	C26.258959,140.996552 25.517866,140.990524 24.407856,140.965698 
	C24.032341,140.515366 24.025740,140.083817 24.017925,139.328064 
	C24.458488,139.005661 24.900263,139.007462 25.673574,139.020935 
	C26.269197,139.516983 26.533285,140.001373 26.898712,140.744171 
z"/>
<path fill="#F3F3F3" opacity="1.000000" stroke="none" 
	d="
M25.998840,130.998474 
	C26.092520,130.962265 26.187361,130.927597 26.142546,130.947571 
	C26.002892,131.002213 26.000000,131.000000 25.998840,130.998474 
z"/>
</svg>