<svg version="1.1" id="Layer_1" xmlns="http://www.w3.org/2000/svg" xmlns:xlink="http://www.w3.org/1999/xlink" x="0px" y="0px"
	 width="100%" viewBox="0 0 80 256" enable-background="new 0 0 80 256" xml:space="preserve">
<path fill="#000000" opacity="1.000000" stroke="none" 
	d="
M48.356110,237.246399 
	C46.947613,241.725098 45.833157,245.991928 42.497009,249.013199 
	C40.125233,251.161148 37.880898,254.275024 33.913143,252.553711 
	C29.968718,250.842514 27.736496,247.656738 26.901428,243.499725 
	C26.707788,242.535797 26.788851,241.504654 26.827972,240.507767 
	C27.520769,222.853882 26.628798,205.168137 25.237808,187.652359 
	C24.265196,175.404907 23.570021,162.886826 20.446688,150.796143 
	C19.623049,147.607773 19.468840,144.238770 19.098103,140.942490 
	C17.865870,129.986557 15.095164,119.346138 12.729580,108.611084 
	C10.706049,99.428261 8.890472,90.241966 8.240421,80.724419 
	C7.854777,75.078117 5.832299,69.172691 6.868802,63.591488 
	C9.282576,50.594158 7.783321,37.137459 11.848833,24.378786 
	C13.586874,18.924345 18.132727,17.326120 22.916636,16.340183 
	C32.525726,14.359797 42.222504,13.407279 52.092285,13.704885 
	C56.881493,13.849295 61.311333,14.973420 65.641495,16.539085 
	C71.412285,18.625639 72.601082,24.229019 72.806946,29.193649 
	C73.337791,41.995243 73.681366,54.877182 72.811882,67.639282 
	C72.210915,76.460075 70.245888,85.293167 67.483780,93.835640 
	C65.141655,101.079216 64.647232,108.708290 63.109146,116.107666 
	C60.617470,128.094528 60.611141,140.359528 57.868763,152.386520 
	C55.722702,161.798309 56.682674,171.923462 56.320435,181.733795 
	C56.209866,184.728226 56.087227,187.745758 56.321068,190.725159 
	C57.176620,201.625916 54.400753,212.142380 52.885437,222.767380 
	C52.196983,227.594666 50.058228,232.215103 48.356110,237.246399 
M13.151938,82.354744 
	C12.782692,85.776871 14.225990,87.587158 17.486380,89.089958 
	C22.776014,91.528099 26.845829,95.798615 31.083424,99.802383 
	C38.285885,106.607422 47.576714,108.236107 53.030697,97.188095 
	C54.637127,93.933990 56.908611,90.573486 60.170731,89.045189 
	C65.302780,86.640846 66.009247,82.062164 66.566513,77.683701 
	C68.567024,61.965576 67.679924,46.136433 67.708557,30.348114 
	C67.722099,22.885103 65.514977,19.977116 58.281399,19.528961 
	C46.495979,18.798798 34.638214,18.660412 23.023710,21.357588 
	C19.197262,22.246185 15.931321,24.356815 15.639557,28.972757 
	C15.346174,33.614304 13.657134,38.153423 13.504775,42.649750 
	C13.066833,55.574062 10.730105,68.515404 13.151938,82.354744 
M21.398279,123.303375 
	C22.482143,129.010727 22.198965,135.093430 23.753227,140.488663 
	C26.712008,150.759338 27.693058,161.380493 28.612520,171.702713 
	C30.421268,192.008438 32.433376,212.391724 32.210873,232.855621 
	C32.178288,235.852356 32.226162,238.849960 32.233528,241.847153 
	C32.240009,244.483490 32.703079,247.378052 35.538242,247.856110 
	C37.925964,248.258759 39.585735,245.985733 40.632008,243.786789 
	C44.912415,234.790726 47.751095,225.141617 49.323093,215.520416 
	C51.482552,202.303711 51.694691,188.768265 52.037640,175.299301 
	C52.265049,166.367737 52.761600,157.380600 53.472679,148.428299 
	C53.988979,141.928207 56.186890,135.866806 56.702518,129.444519 
	C57.189075,123.384254 57.733608,117.373924 59.133137,111.349854 
	C60.264828,106.478661 61.399292,101.201904 60.686871,95.651588 
	C58.268642,97.090912 57.351707,99.048683 56.291496,100.937080 
	C52.579308,107.549057 47.153767,110.587349 39.379387,109.507729 
	C33.640423,108.710762 29.839088,105.149544 26.086571,101.369728 
	C22.937626,98.197868 19.568468,95.411385 14.993962,93.602013 
	C15.560073,103.860207 19.698088,112.916695 21.398279,123.303375 
z"/>
</svg>