<svg version="1.1" id="Layer_1" xmlns="http://www.w3.org/2000/svg" xmlns:xlink="http://www.w3.org/1999/xlink" x="0px" y="0px"
	 width="100%" viewBox="0 0 112 272" enable-background="new 0 0 112 272" xml:space="preserve">
<path fill="#000000" opacity="1.000000" stroke="none" 
	d="
M38.639198,252.103912 
	C34.215588,252.300903 30.730757,249.286285 26.564775,250.218460 
	C25.280195,250.505905 23.724678,250.153320 22.657068,250.747528 
	C15.361535,254.807892 10.719908,250.464142 8.985348,243.638580 
	C7.036303,235.969009 5.220977,228.085510 4.880430,220.228638 
	C4.348554,207.957642 3.643414,195.558243 5.873691,183.357056 
	C6.880302,177.850204 8.410122,172.322540 11.838414,167.692825 
	C16.298679,161.669510 14.913987,155.008545 13.877306,148.540680 
	C13.431773,145.761002 12.782184,143.029373 12.780511,140.193710 
	C12.771960,125.699821 11.920876,111.143044 12.995917,96.729942 
	C14.046634,82.642975 16.044426,68.572449 20.943687,55.015594 
	C23.612967,47.629372 23.750248,39.346764 26.233450,31.868204 
	C27.938562,26.732990 27.929893,21.111029 30.888411,16.354841 
	C33.940746,11.447825 38.140503,8.986942 42.216755,10.030221 
	C46.411419,11.103808 49.082504,15.182373 49.159252,20.933033 
	C49.240417,27.014614 49.177471,33.098114 49.177471,40.481972 
	C54.118637,33.484509 56.104790,26.557873 59.627590,20.436867 
	C60.821590,18.362247 61.806850,16.280270 64.681297,16.333086 
	C67.664696,16.387907 69.291855,17.786963 70.730499,20.534340 
	C73.317398,25.474545 74.063789,30.480455 73.636223,35.932713 
	C72.649529,48.515034 74.516457,60.644188 80.057533,72.670029 
	C81.270164,71.240288 80.853607,69.925949 80.856750,68.770355 
	C80.887962,57.275169 81.029793,45.777172 80.813522,34.286125 
	C80.738403,30.295130 81.890427,26.728691 83.247589,23.190712 
	C84.717339,19.359234 88.050125,18.771673 91.180038,21.629856 
	C95.596130,25.662546 98.024757,30.890232 99.687378,36.504665 
	C102.409325,45.696335 105.687767,54.783371 107.569077,64.148064 
	C109.750443,75.006348 111.568718,86.166100 110.010529,97.248627 
	C106.371986,123.127693 108.157654,149.121567 108.776718,174.986069 
	C109.053276,186.540619 112.048782,198.256836 111.257164,210.024750 
	C110.093430,227.324432 105.276909,243.613983 94.932320,257.753601 
	C86.903992,268.727142 76.132324,267.679565 69.941299,255.608948 
	C68.662155,253.115005 67.616173,251.820389 64.687134,253.001617 
	C57.158062,256.038025 54.922756,255.475525 49.166523,249.421753 
	C48.599098,248.824982 48.203167,248.065155 47.707809,247.352539 
	C44.405659,248.924088 42.214367,251.439682 38.639198,252.103912 
M103.709236,70.536316 
	C100.914734,54.583843 96.742218,39.119987 88.690933,24.195812 
	C85.822021,27.463877 86.236977,30.041569 86.231522,32.490158 
	C86.196648,48.151997 86.212555,63.813934 86.190857,79.475815 
	C86.188553,81.137405 86.293144,82.852753 85.937103,84.451622 
	C83.496582,95.411232 81.378502,106.436630 77.476105,117.047424 
	C75.609856,122.121803 72.352348,125.478241 67.414719,126.365456 
	C62.381123,127.269920 58.884678,123.537949 56.499691,119.746048 
	C49.488209,108.598511 45.718765,96.395775 45.626125,83.095642 
	C45.488159,63.287586 45.248260,43.479183 44.849445,23.674999 
	C44.778469,20.150492 44.717537,15.188973 40.355202,14.773790 
	C36.008648,14.360107 34.256950,18.927177 33.330078,22.662418 
	C30.591806,33.697418 28.509159,44.906162 25.466835,55.851479 
	C22.551620,66.339500 19.405376,76.728287 18.683332,87.656471 
	C18.310545,93.298683 18.146400,98.955116 17.744501,104.594894 
	C16.414389,123.260147 18.081484,141.836334 19.259424,160.430771 
	C19.407351,162.765854 20.730991,163.456955 22.739241,163.876678 
	C32.533176,165.923569 42.217915,165.001572 51.743408,162.523453 
	C59.164200,160.592896 66.328606,160.396240 73.728363,162.731186 
	C81.072212,165.048477 86.808350,170.350861 94.169426,172.736420 
	C101.617775,175.150284 103.645775,174.331207 103.665314,166.776505 
	C103.716591,146.949692 103.357124,127.109406 103.992279,107.301132 
	C104.376366,95.322723 105.577484,83.395699 103.709236,70.536316 
M44.016891,168.390503 
	C36.719391,170.817291 29.407022,171.393204 22.127598,168.384415 
	C18.567871,166.913055 16.326052,167.787048 14.602275,171.391876 
	C11.261522,178.378128 9.961966,185.868271 9.311064,193.375595 
	C7.942235,209.163239 9.881159,224.815384 12.387491,240.395020 
	C13.281772,245.953979 15.892468,247.920853 21.271381,246.511597 
	C25.246536,245.470123 29.158081,245.413696 33.111225,246.210007 
	C40.428761,247.684082 42.828217,246.228119 46.176003,239.707672 
	C48.246441,235.675110 48.690327,231.399658 49.561146,226.768829 
	C52.623859,230.913681 56.813988,233.263077 60.293907,236.439072 
	C66.757828,242.338425 70.889236,249.979263 76.159248,256.765533 
	C80.192558,261.959259 85.195518,261.934814 89.683479,257.144958 
	C91.604103,255.095139 93.287346,252.901703 94.603745,250.314423 
	C99.974701,239.758286 103.670097,228.793823 105.677017,217.031174 
	C107.788635,204.654938 106.920532,192.618912 104.545265,180.514526 
	C104.122787,178.361542 102.309784,178.322571 100.609528,178.314529 
	C94.216469,178.284271 88.794388,175.677979 83.432228,172.435562 
	C75.552399,167.670761 67.477432,163.796707 57.578037,166.035706 
	C53.438351,166.972000 49.289673,168.629379 44.016891,168.390503 
M80.371475,87.539314 
	C80.255859,85.184517 79.419640,83.082207 78.492393,80.916840 
	C75.690414,74.373520 72.431458,67.940132 70.928146,60.960339 
	C69.178802,52.838184 68.544418,44.562351 69.504852,36.230042 
	C70.141426,30.707340 69.332573,25.612394 65.014717,21.259647 
	C61.403309,25.439722 60.395733,30.312874 57.906113,34.397800 
	C52.291996,43.609344 48.543900,53.276901 49.910767,64.457428 
	C50.513371,69.386543 50.104908,74.438797 50.162781,79.435066 
	C50.316555,92.711395 52.840549,105.349388 59.964424,116.818596 
	C61.697369,119.608582 63.824123,122.579620 67.035690,122.187805 
	C70.139244,121.809158 72.101028,118.807793 73.169914,115.588051 
	C76.135857,106.653961 78.637794,97.609512 80.371475,87.539314 
M56.664017,249.695221 
	C59.036922,250.618652 61.199589,250.451141 62.905556,248.362991 
	C63.842648,247.215958 63.225777,246.046387 62.461018,245.232864 
	C59.597363,242.186722 57.127083,238.671097 53.248623,236.684647 
	C49.034473,243.671173 49.340508,244.976059 56.664017,249.695221 
z"/>
</svg>