<svg version="1.1" id="Layer_1" xmlns="http://www.w3.org/2000/svg" xmlns:xlink="http://www.w3.org/1999/xlink" x="0px" y="0px"
	 width="100%" viewBox="0 0 87 255" enable-background="new 0 0 87 255" xml:space="preserve">
<path fill="none" opacity="1.000000" stroke="#000000" stroke-linecap="round" stroke-linejoin="round" stroke-width="3.000000"
	d="
M72.500000,165.500000 
	C74.251244,159.166672 72.475349,152.814743 72.324249,146.504211 
	C72.076584,136.160461 70.162186,125.923470 69.689018,115.514137 
	C69.281326,106.545372 68.406708,97.489273 67.443901,88.506012 
	C65.445953,69.864532 64.808418,51.207832 66.035706,32.502342 
	C66.299141,28.487303 68.403526,24.618498 67.462624,20.508556 
	C66.019882,14.206526 62.232567,12.822909 57.001133,16.501612 
	C49.962383,21.451204 46.105270,28.436583 43.409786,36.469730 
	C40.232857,45.937695 38.897236,55.614704 37.894093,65.489243 
	C36.260075,81.573860 35.237904,97.816811 30.898449,113.471848 
	C27.861038,124.429611 24.973646,135.411560 22.548088,146.510513 
	C21.432447,151.615479 20.441410,156.807053 20.092890,162.006226 
	C19.584379,169.592072 16.966646,176.664169 15.576122,184.014404 
	C14.074681,191.951004 12.802382,199.933578 11.728134,207.963623 
	C10.300627,218.634323 9.546374,229.304413 9.087507,240.003754 
	C8.741517,248.071167 11.729492,251.103165 19.510656,250.081131 
	C30.802422,248.597992 42.192833,247.867722 53.486736,246.398071 
	C57.821896,245.833954 62.245335,245.469757 66.512894,245.246796 
	C78.742699,244.607834 81.982117,235.835068 81.436935,226.503677 
	C80.890663,217.153580 80.096344,207.800186 78.925705,198.509354 
	C77.765320,189.299896 75.993019,180.167801 74.504280,170.999298 
	C74.061447,168.272079 73.012444,166.103043 70.540123,164.440338 
	C65.918411,161.332092 62.321545,156.957642 57.545441,153.928360 
	C51.277290,149.952728 45.954517,149.766510 40.530804,154.535034 
	C35.214344,159.209274 29.680443,163.429459 23.031141,166.078171 
	C22.124168,166.439484 21.333021,166.331772 20.500000,166.500000 
"/>
</svg>