<svg version="1.1" id="Layer_1" xmlns="http://www.w3.org/2000/svg" xmlns:xlink="http://www.w3.org/1999/xlink" x="0px" y="0px"
	 width="100%" viewBox="0 0 96 288" enable-background="new 0 0 96 288" xml:space="preserve">
<path fill="#000000" opacity="1.000000" stroke="none" 
	d="
M74.562500,1.000000 
	C76.986565,3.274073 77.375916,5.950171 77.360374,8.892716 
	C77.277702,24.551664 77.266594,40.211483 77.333282,55.870564 
	C77.382156,67.346260 79.781082,78.653458 80.108292,90.093857 
	C80.568832,106.196297 83.627556,122.020142 84.685265,138.092941 
	C85.862839,155.987350 86.122543,173.972092 87.906021,191.732941 
	C89.057289,203.197937 91.623550,214.835068 93.572029,226.375229 
	C94.663017,232.836792 96.288315,239.273193 96.345482,245.979675 
	C96.413414,253.950348 93.976227,260.393158 87.143692,264.641418 
	C77.714996,270.503906 68.487823,276.632751 59.373245,282.982758 
	C51.564526,288.422974 43.065998,288.519714 34.436375,283.738098 
	C25.558874,278.819153 16.500547,274.351318 10.860806,265.297119 
	C8.666489,261.774323 8.349006,258.007111 9.043537,254.236435 
	C11.706885,239.776871 13.645906,225.111786 18.562038,211.191727 
	C23.064543,198.442917 25.011654,185.405884 26.466034,171.991684 
	C28.099276,156.927841 27.124195,141.653976 29.952839,126.823608 
	C31.970491,116.245216 32.112656,105.519844 34.154045,94.928642 
	C35.993389,85.385704 37.746197,75.751656 39.929108,66.310699 
	C45.282803,43.156326 52.831787,20.753950 67.790817,1.262736 
	C70.041664,1.000000 72.083336,1.000000 74.562500,1.000000 
M59.132195,277.658966 
	C65.469406,273.436584 71.071709,268.221313 78.170448,265.001617 
	C87.476379,260.780792 92.834221,253.960419 91.001160,242.840302 
	C89.904938,236.190140 88.956383,229.469833 88.123146,222.820892 
	C86.844681,212.619080 83.979073,202.741409 82.958206,192.537506 
	C82.794907,190.905289 82.879066,189.087250 80.882484,188.372742 
	C75.421410,186.418411 71.386818,182.313522 66.816490,179.027893 
	C61.360054,175.105225 54.922050,175.075455 49.191452,178.902405 
	C42.707977,183.232117 37.802334,189.626190 30.590899,192.998047 
	C29.358860,193.574112 28.618765,194.633163 28.210770,196.031967 
	C26.086752,203.314178 23.723673,210.529266 21.719479,217.843246 
	C18.623804,229.140427 15.640630,240.458694 14.512665,252.195587 
	C13.864179,258.943329 14.055617,264.809204 20.367750,269.443970 
	C25.332884,273.089691 30.546761,276.203125 35.809952,279.297943 
	C43.629189,283.895752 51.248047,283.512360 59.132195,277.658966 
M51.140671,172.315765 
	C52.558186,171.341141 54.162415,171.072556 55.843201,170.851593 
	C61.401485,170.120850 65.861366,172.533035 70.036201,175.695663 
	C73.775139,178.528061 77.236404,181.771942 82.528984,184.011414 
	C83.010033,176.606705 83.714241,169.851212 82.310799,163.491913 
	C78.966980,148.340363 80.549850,132.838196 77.978989,117.584808 
	C75.562035,103.244514 74.474106,88.579933 74.527229,73.933434 
	C74.552605,66.936302 72.542542,60.142101 72.638763,53.113834 
	C72.830193,39.129578 72.799004,25.141821 72.776878,11.155642 
	C72.773926,9.285131 73.473724,7.121851 71.251328,5.449761 
	C67.359154,7.455719 65.566765,11.502323 63.727032,14.888771 
	C54.205582,32.415222 47.751377,51.181431 43.494064,70.616096 
	C40.639812,83.645782 37.988441,96.805168 36.608978,110.048470 
	C35.251484,123.080887 33.718719,136.156067 33.196239,149.244003 
	C32.689163,161.946136 31.396664,174.535446 30.154604,187.289993 
	C31.535082,187.366653 32.466026,186.368988 33.586018,185.699478 
	C39.724602,182.029877 43.733803,175.599762 51.140671,172.315765 
z"/>
</svg>