<svg version="1.1" id="Layer_1" xmlns="http://www.w3.org/2000/svg" xmlns:xlink="http://www.w3.org/1999/xlink" x="0px" y="0px"
	 width="100%" viewBox="0 0 80 208" enable-background="new 0 0 80 208" xml:space="preserve">
<path fill="#000000" opacity="1.000000" stroke="none" 
	d="
M81.000000,137.535355 
	C80.042542,136.664291 79.085075,135.328568 77.998375,133.812561 
	C70.441063,135.749557 63.251816,135.025574 55.852364,131.809616 
	C49.306324,128.964569 42.393932,129.071182 36.110363,134.062317 
	C28.985447,139.721741 20.433153,140.614044 11.595119,140.279968 
	C4.448081,140.009811 4.421403,140.207932 3.090468,147.341354 
	C2.813070,148.828140 2.608799,150.304810 1.260748,151.733261 
	C1.000000,128.312439 1.000000,104.624878 1.173123,80.173935 
	C4.568143,73.294250 4.370171,66.301888 6.356752,59.804279 
	C10.461196,46.379658 14.706953,33.042355 20.306858,20.177570 
	C24.146614,11.356415 26.991953,10.752358 34.224571,16.807871 
	C37.666939,13.580685 41.092484,9.652769 46.318462,13.611710 
	C50.919849,7.293672 54.258400,5.855597 58.110416,8.806566 
	C62.442322,12.125179 66.299797,15.868778 69.413147,20.544239 
	C74.133850,27.633549 77.496613,35.332310 81.000000,43.000000 
	C81.000000,47.356899 81.000000,51.713799 81.000000,56.535347 
	C77.715378,47.454094 74.156853,38.015064 68.935532,29.327915 
	C65.946312,24.354494 63.085613,19.240225 58.633015,15.336556 
	C57.244057,14.118833 55.580437,12.764394 53.724396,13.757094 
	C51.536049,14.927529 52.034794,17.417299 52.523026,19.189842 
	C54.979141,28.106865 57.767693,36.981163 58.654259,46.199593 
	C59.768738,57.787857 60.091724,69.438797 58.322815,81.024391 
	C57.231922,88.169281 52.614586,92.425720 46.267292,95.053848 
	C43.154385,96.342766 37.258720,93.567078 35.044514,89.468246 
	C33.164986,85.988937 32.075310,82.246819 31.727917,78.118279 
	C30.258265,60.652462 30.925289,43.165302 30.722969,25.688236 
	C30.686670,22.552689 30.106730,19.813509 26.484585,18.128336 
	C24.809057,21.471102 22.565407,24.494846 21.735113,27.866627 
	C18.841446,39.617687 13.212930,50.466152 10.668303,62.304188 
	C8.690720,71.504250 7.323025,80.812721 5.809772,90.076622 
	C3.659375,103.241020 5.224971,116.238930 4.311710,129.261520 
	C4.023098,133.376953 5.608163,134.769653 9.704120,134.927338 
	C19.526136,135.305435 28.780926,134.673050 36.994343,128.077271 
	C45.229271,121.464203 53.764515,125.822189 61.919296,128.915451 
	C69.278069,131.706757 76.462708,130.162582 80.714249,124.188103 
	C81.000000,128.356903 81.000000,132.713806 81.000000,137.535355 
M39.952705,38.112381 
	C38.473476,43.135822 39.655540,48.612103 38.218884,53.409946 
	C35.680328,61.887691 35.893162,70.160088 37.199146,78.653534 
	C37.524536,80.769745 37.322281,82.929848 38.117508,85.028152 
	C40.075073,90.193413 44.986309,91.532806 49.275902,88.136147 
	C52.435246,85.634468 56.271255,73.945496 54.124912,69.205574 
	C49.750618,59.545509 48.418945,49.285145 47.426929,38.794632 
	C46.876038,32.968906 46.109863,27.012932 44.806473,21.219574 
	C44.460396,19.681314 43.891373,18.233788 41.981308,18.297426 
	C40.005497,18.363253 38.967541,19.725739 38.700047,21.491283 
	C38.507240,22.763863 38.441063,24.251272 38.916679,25.393814 
	C40.522320,29.250963 40.403561,33.198723 39.952705,38.112381 
z"/>
<path fill="#000000" opacity="1.000000" stroke="none" 
	d="
M81.000000,199.550018 
	C79.768661,200.821228 78.472458,201.560715 77.316978,202.477524 
	C71.635941,206.985077 65.534843,207.377350 59.184277,204.221390 
	C57.244827,203.257568 55.447632,202.950455 53.484833,203.767563 
	C45.431461,207.120193 38.272526,205.317963 31.819464,199.906784 
	C29.105448,197.630966 26.983171,195.871323 22.725601,197.732040 
	C18.575022,199.545990 8.413635,195.883148 4.112152,188.906754 
	C3.344207,187.661240 3.038598,186.072495 1.300986,185.142303 
	C1.000000,180.643097 1.000000,176.286194 1.000000,171.464645 
	C3.623736,172.853806 3.343662,175.975311 4.298037,178.557495 
	C8.328547,189.462616 14.423063,195.080841 25.969790,191.842178 
	C27.509924,191.410217 28.611736,190.550476 29.787655,189.645966 
	C38.836033,182.685898 44.504025,183.317368 51.971451,192.106277 
	C54.126823,194.643051 56.321983,197.202469 59.269993,198.801743 
	C67.165154,203.084808 72.555908,201.831070 78.169075,194.578232 
	C78.976616,193.534790 79.653336,192.390076 80.695297,191.146118 
	C81.000000,193.700012 81.000000,196.400024 81.000000,199.550018 
M44.143959,191.349731 
	C39.191647,188.451035 36.672909,189.135742 32.796337,194.475861 
	C37.632301,200.387238 43.892426,200.553833 51.049850,199.305771 
	C48.954643,196.269714 47.752716,193.265533 44.143959,191.349731 
z"/>
</svg>