<svg version="1.1" id="Layer_1" xmlns="http://www.w3.org/2000/svg" xmlns:xlink="http://www.w3.org/1999/xlink" x="0px" y="0px"
	 width="100%" viewBox="0 0 112 272" enable-background="new 0 0 112 272" xml:space="preserve">
<path fill="#000000" opacity="1.000000" stroke="none" 
	d="
M71.555832,1.000000 
	C75.172745,7.060743 76.031494,13.805509 76.001831,20.335148 
	C75.938957,34.180489 76.092010,48.152363 77.827316,61.716236 
	C79.477196,74.612465 79.626694,87.763084 82.772324,100.500313 
	C83.841789,104.830757 83.812019,109.450409 83.983978,113.879059 
	C84.454514,125.998184 86.906654,137.854309 88.396141,149.810104 
	C89.521957,158.846802 90.289528,167.931229 91.576004,176.924179 
	C92.754402,185.161758 95.648888,193.143600 97.592972,201.284500 
	C100.003067,211.376862 102.344559,221.489502 104.468460,231.645081 
	C106.198273,239.916306 102.981529,246.861557 97.137909,252.323166 
	C89.815224,259.167114 80.720497,263.689331 72.074059,268.465240 
	C64.801125,272.482513 55.903557,271.312805 48.131939,268.840240 
	C37.075546,265.322601 27.433817,259.050995 20.761230,249.205246 
	C15.741712,241.798645 14.329399,233.762863 17.394909,225.020233 
	C18.531326,221.779221 18.553123,218.160538 19.230831,214.743347 
	C23.102089,195.223511 23.359337,175.578384 22.180727,155.764618 
	C21.360455,141.974869 21.782322,128.111160 21.652832,114.280449 
	C21.593658,107.960243 20.777102,101.707939 20.215179,95.436371 
	C19.452702,86.926399 21.528099,78.321228 23.409029,69.952492 
	C25.323416,61.434891 27.884222,53.067947 29.892017,44.549252 
	C32.190441,34.797482 32.848751,24.502880 38.498173,15.678341 
	C40.325436,12.824106 42.160610,10.145925 45.831425,11.084477 
	C49.463833,12.013210 50.242321,15.214832 50.230671,18.626019 
	C50.205288,26.060146 50.222832,33.494419 50.679523,40.977760 
	C53.790138,36.496082 52.161396,31.083904 53.689255,26.303450 
	C55.643764,20.188059 55.560295,13.539596 58.681339,7.691177 
	C59.963509,5.288573 61.439095,3.180204 63.797958,1.272011 
	C66.370560,1.000000 68.741112,1.000000 71.555832,1.000000 
M69.656212,7.212244 
	C69.218033,4.825549 68.293114,3.827743 66.030556,5.742281 
	C64.456917,7.073871 63.462639,8.724220 62.534401,10.526655 
	C58.962177,17.463154 58.696289,25.311045 57.640278,32.650829 
	C56.295685,41.996418 53.931625,51.120502 52.577816,60.453270 
	C51.111618,70.560829 48.363281,80.626686 47.339573,90.701454 
	C45.616161,107.662354 42.769444,124.602402 43.305389,141.757980 
	C43.426270,145.627228 42.828255,149.386703 41.992676,153.127319 
	C41.740643,154.255600 41.437916,155.468719 39.686283,155.179443 
	C38.663219,154.387177 38.767147,153.192322 38.749191,152.053345 
	C38.368458,127.900063 39.769115,103.807571 43.910088,80.050552 
	C45.270004,72.248627 45.503914,64.642960 45.614475,56.915585 
	C45.781300,45.255924 45.684811,33.591911 45.621468,21.930176 
	C45.612007,20.189117 46.254692,18.257467 44.770592,16.695618 
	C42.379440,16.343931 41.213493,18.113642 40.736137,19.700686 
	C39.076824,25.217340 37.384312,30.777002 36.438824,36.442856 
	C35.046577,44.785954 33.101391,52.988865 30.872725,61.113129 
	C29.046307,67.771042 27.566217,74.489685 26.255810,81.247986 
	C24.556112,90.014015 26.099644,98.840950 26.010361,107.636421 
	C25.763824,131.923370 27.128218,156.147018 28.242493,180.384109 
	C28.286575,181.343002 28.085207,182.436554 29.491468,183.163162 
	C37.948936,179.993652 45.193584,174.396347 52.722233,169.332977 
	C55.640675,167.370178 58.658779,166.685654 62.076645,166.493729 
	C69.046417,166.102356 74.411522,169.966217 80.143387,172.874161 
	C81.917084,173.774002 83.686478,174.014023 85.391884,173.197021 
	C87.058037,172.398819 87.059120,170.401093 86.520851,169.211472 
	C84.324715,164.357819 84.903297,159.125549 84.098465,154.098038 
	C82.843704,146.259995 81.819077,138.381500 80.865982,130.499710 
	C79.656982,120.501717 79.115242,110.391083 77.287079,100.513863 
	C76.416603,95.810875 77.943329,90.933083 76.287064,86.717827 
	C72.695030,77.575981 73.385750,68.020729 72.980995,58.689404 
	C72.318146,43.407997 69.789307,28.219152 70.622498,12.861882 
	C70.709686,11.254764 70.047523,9.606991 69.656212,7.212244 
M22.585136,222.655777 
	C22.306702,224.295212 21.967657,225.927017 21.760447,227.575394 
	C20.919052,234.268829 20.679335,240.829895 24.873981,246.760818 
	C32.255180,257.197357 42.632072,263.025085 54.809437,265.479187 
	C59.212746,266.366577 64.378235,267.040161 68.573761,264.848633 
	C76.333939,260.795105 83.936691,256.337769 91.173309,251.414139 
	C97.985748,246.779114 101.988106,237.024902 100.165001,231.598724 
	C95.590134,217.982330 93.672005,203.709488 89.819908,189.915680 
	C88.210670,184.153244 88.297195,177.066803 79.291100,177.321487 
	C77.811882,177.363297 76.209808,176.149902 74.806656,175.285812 
	C66.330887,170.066360 58.609253,169.420547 50.282433,176.529312 
	C45.102066,180.951904 39.096443,185.082550 32.371784,187.095612 
	C27.751410,188.478760 26.372404,191.238541 26.331041,195.436386 
	C26.290009,199.600693 25.544058,203.764236 25.491339,207.849899 
	C25.426899,212.843796 22.644514,217.049606 22.585136,222.655777 
z"/>
</svg>