<svg version="1.1" id="Layer_1" xmlns="http://www.w3.org/2000/svg" xmlns:xlink="http://www.w3.org/1999/xlink" x="0px" y="0px"
	 width="100%" viewBox="0 0 96 288" enable-background="new 0 0 96 288" xml:space="preserve">
<path fill="#000000" opacity="1.000000" stroke="none" 
	d="
M97.000000,246.539368 
	C94.817741,257.926300 87.244934,264.315247 78.149452,269.442078 
	C75.843277,270.742004 73.350662,271.860077 71.365631,273.555634 
	C61.361679,282.100800 50.742741,280.017487 40.178860,275.292572 
	C33.500931,272.305756 27.345295,268.220184 22.217989,262.931671 
	C14.357569,254.824097 12.465342,245.546295 14.015623,234.044800 
	C15.911720,219.977737 20.546926,206.295578 19.906870,191.821823 
	C19.407101,180.520370 19.161982,169.131989 19.979996,157.867661 
	C20.941063,144.633438 20.097385,131.227783 22.890896,118.170380 
	C25.138647,107.663956 28.974874,97.558250 33.488602,87.876793 
	C39.592041,74.785591 43.917458,61.108875 48.325653,47.450588 
	C49.573917,43.582989 49.417690,39.245411 49.780827,35.112411 
	C50.467255,27.299929 53.865971,20.514109 57.862274,14.011958 
	C59.438900,11.446718 61.697365,9.073775 65.204323,9.919145 
	C68.670677,10.754725 69.647598,13.880032 70.055038,16.850374 
	C72.032829,31.269264 74.644783,45.633385 74.023041,60.300026 
	C73.452888,73.749756 72.489365,87.212433 72.684105,100.655136 
	C72.827789,110.573303 73.210205,120.582069 75.188339,130.413788 
	C76.071762,134.804535 76.711617,139.261612 77.163391,143.718857 
	C78.964439,161.488358 83.509537,178.729156 87.671738,195.999130 
	C89.227997,202.456436 93.087746,208.451645 94.122894,215.172424 
	C95.099045,221.510117 96.817337,227.772232 96.829239,234.633041 
	C97.000000,238.692902 97.000000,242.385818 97.000000,246.539368 
M73.815529,156.355728 
	C72.803093,146.663101 70.084999,137.142532 69.438133,127.516380 
	C68.416100,112.307205 65.434425,97.066528 68.073334,81.745705 
	C68.844200,77.270256 68.834610,72.795898 68.923172,68.300194 
	C69.191849,54.661491 69.378860,40.993271 66.620087,27.574987 
	C65.776192,23.470377 66.972099,18.746443 63.805069,14.534822 
	C59.038960,20.037565 55.789848,25.587360 55.388454,32.226681 
	C55.045937,37.892120 53.620571,43.341064 52.522533,48.802868 
	C48.974918,66.449272 40.821266,82.519882 34.134087,99.066658 
	C30.067938,109.127937 26.906603,119.481529 26.302734,130.156677 
	C25.099466,151.427963 24.973331,172.760361 24.427553,194.068161 
	C24.399445,195.165573 24.046757,196.463242 25.383736,197.084061 
	C30.121092,195.501205 33.791992,192.612793 37.155807,189.004105 
	C47.691090,177.701904 59.970146,179.397095 69.635048,185.462067 
	C73.163803,187.676453 76.237885,187.750153 80.489693,186.903259 
	C78.238197,176.806137 76.055428,167.017303 73.815529,156.355728 
M60.025005,186.544067 
	C53.707142,183.582413 48.134323,186.218506 43.283077,189.673538 
	C37.558075,193.750839 33.558884,200.199829 26.141981,202.006485 
	C25.147778,202.248657 24.632532,203.174820 24.399694,204.249146 
	C21.884966,215.852173 19.363184,227.471252 18.224457,239.293289 
	C17.768646,244.025421 18.328236,248.967545 20.790033,253.270691 
	C26.530764,263.305298 35.818832,268.803955 46.283813,272.662659 
	C54.271614,275.607971 61.777275,275.171936 68.853935,269.811310 
	C72.399490,267.125488 76.578415,265.292389 80.266441,262.774200 
	C85.684021,259.075073 89.841454,254.698624 91.653793,247.774307 
	C94.022987,238.722458 90.317932,230.382339 90.195885,221.666473 
	C90.071510,212.784042 85.215767,204.954697 83.012817,196.509262 
	C82.152412,193.210754 80.589935,192.074051 77.520905,192.149551 
	C74.168091,192.232040 70.792259,192.233246 68.003876,189.974533 
	C65.862839,188.240173 63.374062,187.425064 60.025005,186.544067 
z"/>
</svg>