<svg version="1.1" id="Layer_1" xmlns="http://www.w3.org/2000/svg" xmlns:xlink="http://www.w3.org/1999/xlink" x="0px" y="0px"
	 width="100%" viewBox="0 0 128 256" enable-background="new 0 0 128 256" xml:space="preserve">
<path fill="#000000" opacity="1.000000" stroke="none" 
	d="
M111.838310,134.548279 
	C107.679131,145.111374 112.529106,153.645035 116.524529,162.397949 
	C121.047623,172.306885 124.364723,182.683838 127.107178,193.188675 
	C129.290527,201.551865 122.355942,212.728226 113.658279,214.995255 
	C108.920677,216.230072 106.588799,218.800690 105.020386,223.234741 
	C101.839600,232.227112 95.507446,235.259888 86.410728,232.924347 
	C83.158257,232.089294 81.026917,234.976074 78.374489,236.025192 
	C74.369484,237.609283 70.681549,237.838638 66.855507,236.256531 
	C62.797447,234.578461 59.616436,233.901886 55.978672,238.058762 
	C49.526287,245.431839 37.902222,243.073318 29.580513,236.909851 
	C18.443291,228.661057 13.390090,216.724594 11.924683,203.583450 
	C10.506952,190.869843 10.646610,177.714249 16.094805,165.903503 
	C20.269241,156.854050 19.890236,147.824249 19.537968,138.611298 
	C19.235023,130.688354 17.206892,122.955231 15.451083,115.229584 
	C12.162532,100.759781 12.416849,86.226097 16.276669,72.045349 
	C20.689339,55.833469 27.568243,40.567379 37.399776,26.794409 
	C38.542606,25.193420 40.108318,23.899080 41.432411,22.421738 
	C44.509159,18.988899 47.813728,17.609566 51.690350,21.511009 
	C53.042778,19.922911 54.038223,18.351162 55.407974,17.241407 
	C57.388500,15.636804 59.368977,12.953599 62.273106,14.355790 
	C64.938965,15.642941 66.152847,18.353987 66.135941,21.443031 
	C66.101318,27.766853 66.361877,34.046875 67.195663,40.351952 
	C68.147278,47.547977 70.797325,53.844208 75.549011,60.861465 
	C74.396515,50.861210 74.118042,42.146496 73.845581,33.424107 
	C73.689964,28.442135 75.494072,24.281530 77.959969,20.350388 
	C81.183151,15.211969 86.553719,15.578411 89.771896,21.262264 
	C93.762352,28.310078 97.262901,35.633274 101.120560,42.758755 
	C106.667168,53.003944 110.973900,63.768173 113.331841,75.132042 
	C115.602188,86.073784 115.905617,97.247795 114.719749,108.404907 
	C113.808723,116.976265 112.837280,125.541199 111.838310,134.548279 
M16.260315,184.009079 
	C16.001747,193.963303 15.626226,203.850464 18.991352,213.560089 
	C21.780087,221.606644 25.551193,228.916550 32.730190,233.594818 
	C40.370312,238.573608 48.950569,241.057449 56.004452,231.675262 
	C58.886475,227.841919 62.061600,224.134918 65.589363,220.900497 
	C73.130943,213.986053 79.635262,215.294937 84.351837,224.284378 
	C87.232483,229.774673 93.853386,230.681076 97.988785,226.119095 
	C101.974197,221.722595 102.899368,216.123947 103.639503,210.590393 
	C104.433281,204.655716 109.550598,198.791183 114.237877,199.256088 
	C113.402023,203.642792 107.714165,205.964096 108.712715,211.274689 
	C118.987648,209.990494 123.912178,202.218491 121.577888,191.551041 
	C119.056496,180.028549 114.476349,169.185043 110.056396,158.349472 
	C105.991692,148.384811 98.768898,143.062286 87.232666,149.356979 
	C84.609222,150.788452 81.931007,152.128662 79.371101,153.665909 
	C68.924873,159.938904 58.383526,160.125900 47.696625,154.335022 
	C39.693882,149.998642 25.122816,152.507950 21.558491,163.575211 
	C19.474745,170.045242 18.935345,176.850586 16.260315,184.009079 
M79.497643,41.062000 
	C80.016151,58.018337 81.494019,74.941170 81.259682,91.924438 
	C81.225243,94.420059 80.746910,97.115280 81.501175,99.375313 
	C83.345718,104.902184 82.162941,110.178635 81.168999,115.544006 
	C79.516022,124.466896 72.425789,127.115532 65.572006,121.465736 
	C61.948582,118.478828 60.121197,114.440285 58.457645,110.275948 
	C54.474186,100.304214 49.195251,90.708588 46.953823,80.217270 
	C43.934246,66.083687 45.553368,51.793713 48.113785,37.655708 
	C48.950649,33.034744 49.945278,28.350998 47.302803,23.857426 
	C44.552044,24.647482 43.382973,26.480976 42.093113,28.188040 
	C34.330734,38.461151 29.117823,50.014759 24.447666,61.947525 
	C19.007019,75.848976 17.687140,90.021904 18.731752,104.813370 
	C19.411459,114.437866 22.791431,123.451118 23.525850,133.082932 
	C23.963867,138.827438 24.802988,144.771378 25.366173,151.170776 
	C33.590931,147.321350 41.395264,145.767868 49.139126,149.975250 
	C60.170498,155.968811 70.282478,154.339325 80.460869,147.634766 
	C86.567696,143.612167 93.347000,140.507355 101.103859,143.042191 
	C104.390938,144.116364 105.498260,142.695374 106.056595,139.596390 
	C108.438721,126.374573 108.957146,112.948250 110.612450,99.647919 
	C111.438705,93.009003 109.674156,86.526962 108.858818,79.968025 
	C107.510162,69.118988 103.947838,59.069679 99.310341,49.360954 
	C95.453842,41.287285 90.983841,33.508503 86.956062,25.513220 
	C86.172501,23.957819 85.607109,22.256767 83.786003,22.086460 
	C81.719627,21.893217 81.172256,23.881493 80.502441,25.343916 
	C78.313034,30.124123 79.535629,35.179920 79.497643,41.062000 
M75.850609,68.058296 
	C62.564068,54.724628 61.267117,37.379879 60.367420,18.841005 
	C56.452118,22.476303 54.095402,26.061340 53.634441,29.716400 
	C52.562428,38.216686 51.504093,46.722576 50.460335,55.229435 
	C48.715775,69.447968 51.094242,83.211479 57.574345,96.119156 
	C60.978485,102.899841 62.408573,110.601593 67.169449,116.739594 
	C68.656685,118.657043 70.555672,120.269485 73.119820,119.346169 
	C75.452377,118.506256 76.200523,116.462166 76.832932,113.963921 
	C78.358932,107.935593 76.904190,102.062683 76.784447,96.126678 
	C76.600197,86.992874 76.449974,77.858383 75.850609,68.058296 
M67.394661,231.719040 
	C70.523376,232.189697 73.691284,232.463928 76.770409,231.686142 
	C78.866562,231.156647 81.201851,230.174332 80.465469,227.351730 
	C79.600517,224.036331 78.083481,220.995071 73.815636,221.306870 
	C70.670227,221.536667 64.255836,227.692917 64.787598,230.021805 
	C64.924599,230.621826 66.004379,231.006592 67.394661,231.719040 
z"/>
</svg>