<svg version="1.1" id="Layer_1" xmlns="http://www.w3.org/2000/svg" xmlns:xlink="http://www.w3.org/1999/xlink" x="0px" y="0px"
	 width="100%" viewBox="0 0 106 198" enable-background="new 0 0 106 198" xml:space="preserve">
<path fill="none" opacity="1.000000" stroke="#000000" stroke-linecap="round" stroke-linejoin="round" stroke-width="3.000000"
	d="
M88.500000,71.000000 
	C83.970528,70.813393 79.881508,72.940620 75.498207,73.485596 
	C67.440483,74.487419 59.986458,72.591904 52.446949,69.635277 
	C41.213169,65.229942 29.798283,64.018265 18.950821,71.428001 
	C17.463396,72.444046 17.144438,73.566315 17.010483,75.000977 
	C16.016495,85.646591 13.987761,96.266548 15.057667,106.994247 
	C16.496046,121.416580 18.085995,135.773743 23.394003,149.540863 
	C29.660446,165.793823 39.298931,179.291016 52.944927,190.069717 
	C54.886051,191.602982 57.043480,192.735489 58.926128,191.843994 
	C61.429157,190.658737 62.521549,187.991547 62.002232,184.999619 
	C61.076355,179.665344 59.384239,174.534225 57.455997,169.516907 
	C52.730778,157.221786 48.485840,144.890244 47.871559,131.505890 
	C47.625134,126.136749 48.155113,120.831490 47.981293,115.500610 
	C47.852196,111.541199 49.211990,108.185509 52.029598,105.531425 
	C54.565628,103.142578 58.539558,103.389984 60.982773,106.016029 
	C66.732780,112.196320 68.809402,120.010170 69.930779,128.009705 
	C71.860474,141.775528 70.784035,155.663818 71.003548,169.499939 
	C71.030884,171.223022 70.868187,172.886612 71.951591,174.531876 
	C74.195328,177.939240 77.048431,178.723831 79.942123,175.939850 
	C82.229836,173.738892 84.000000,171.000000 86.000000,168.500000 
"/>
<path fill="none" opacity="1.000000" stroke="#000000" stroke-linecap="round" stroke-linejoin="round" stroke-width="3.000000"
	d="
M33.500000,21.500000 
	C34.333332,21.333334 35.547096,21.462914 35.942463,20.955194 
	C41.176559,14.233746 49.753433,14.515350 56.574482,11.151008 
	C60.209084,9.358317 64.316315,11.713862 66.860680,14.145763 
	C71.508194,18.587854 75.787643,17.404884 80.502174,15.004272 
	C85.994843,12.207433 88.638268,12.786312 91.971054,18.018438 
	C98.583427,28.399181 100.599388,39.251053 97.311874,51.583141 
	C95.755638,57.420864 93.421097,62.683441 90.864639,67.934097 
	C89.987152,69.736343 89.414330,70.863914 89.884163,73.025185 
	C92.188866,83.627083 93.924599,94.355614 95.790710,105.036568 
	C97.185150,113.017838 97.020950,121.338394 96.904434,129.498642 
	C96.777534,138.386475 95.578316,147.209030 91.985626,155.493759 
	C90.235382,159.529800 88.333328,163.500000 86.499992,167.500000 
"/>
<path fill="none" opacity="1.000000" stroke="#000000" stroke-linecap="round" stroke-linejoin="round" stroke-width="3.000000"
	d="
M39.000000,16.500000 
	C34.856285,15.826065 31.145294,13.810657 27.036844,12.843487 
	C18.985828,10.948198 13.146352,13.478386 9.955204,20.980947 
	C7.751124,26.162857 7.424487,31.563047 7.545195,36.998997 
	C7.789552,48.003357 9.531663,58.710728 15.020165,68.488678 
	C15.535584,69.406914 16.333334,70.166664 17.000002,71.000000 
"/>
<path fill="none" opacity="1.000000" stroke="#000000" stroke-linecap="round" stroke-linejoin="round" stroke-width="2.000000"
	d="
M75.000000,18.000000 
	C76.636688,21.760336 80.008583,22.243050 83.500000,22.500000 
"/>
</svg>