<svg version="1.1" id="Layer_1" xmlns="http://www.w3.org/2000/svg" xmlns:xlink="http://www.w3.org/1999/xlink" x="0px" y="0px"
	 width="100%" viewBox="0 0 144 240" enable-background="new 0 0 144 240" xml:space="preserve">
<path fill="#000000" opacity="1.000000" stroke="none" 
	d="
M63.458069,241.000000 
	C58.975933,236.597733 53.766613,233.394165 50.500465,228.198624 
	C44.935558,219.346344 39.578423,210.499802 37.524548,199.967651 
	C35.918869,191.733856 32.953197,183.742523 31.652605,175.476547 
	C28.684795,156.614548 26.409191,137.662766 28.586924,118.474251 
	C29.109884,113.866333 29.341963,109.299431 30.393270,104.700241 
	C31.786425,98.605568 28.916189,92.923561 26.033937,87.755302 
	C18.887503,74.940811 14.132986,61.473579 13.813210,46.713291 
	C13.635951,38.531364 15.221773,30.501751 17.509132,22.687635 
	C20.367001,12.924526 28.203905,8.328837 37.951801,11.212959 
	C42.375240,12.521729 46.536877,12.505907 50.686985,11.589401 
	C58.209721,9.928086 64.678444,11.904863 71.150482,15.595995 
	C77.385307,19.151846 84.215393,18.913204 90.591331,15.988139 
	C95.778069,13.608639 100.853371,11.595665 106.266548,14.372560 
	C111.188339,16.897381 116.605141,15.822482 121.772217,17.163153 
	C130.215454,19.353874 134.169754,25.155563 137.511795,31.816473 
	C140.337418,37.448109 141.075699,43.692482 141.505432,50.095734 
	C142.424103,63.784664 139.198181,76.232773 133.351776,88.504936 
	C126.081528,103.765869 125.782990,120.215797 126.600945,136.810562 
	C127.192093,148.804016 130.484161,160.342438 131.820068,172.225662 
	C132.579483,178.980728 133.519409,185.730011 133.093719,192.419785 
	C132.275101,205.284760 128.190720,217.072037 118.894653,226.543732 
	C115.701714,229.796997 112.016205,232.360229 107.374123,230.296997 
	C102.871971,228.295975 101.159233,224.023407 100.812881,219.321716 
	C100.278183,212.063049 101.273392,204.791229 99.674759,197.481735 
	C98.791298,193.442184 96.516670,190.277466 95.194519,186.576096 
	C92.648529,179.448624 88.796333,172.808640 88.349632,164.949493 
	C88.205612,162.415817 88.311775,160.001938 88.647820,157.538406 
	C89.139709,153.932404 88.461166,150.757629 84.669533,149.361481 
	C82.278885,148.481201 76.959946,151.984650 76.373787,155.167480 
	C75.298195,161.008011 73.256821,166.688187 73.264725,172.719925 
	C73.273239,179.217300 72.610229,185.797455 73.412567,192.194443 
	C74.971329,204.622421 75.142548,217.227280 77.999275,229.491714 
	C79.014977,233.852325 76.742760,237.153152 74.220993,240.720337 
	C70.638710,241.000000 67.277428,241.000000 63.458069,241.000000 
M57.460598,230.037125 
	C59.758102,232.443817 61.997128,234.982361 64.997139,236.497299 
	C70.152611,239.100708 72.995903,237.305359 72.990906,231.539139 
	C72.989326,229.721664 72.770042,227.877335 72.414589,226.092255 
	C71.316711,220.578644 70.903503,214.945450 70.122940,209.407837 
	C68.313660,196.572159 68.211838,183.526230 68.764725,170.536697 
	C69.011917,164.729263 69.986610,159.008926 72.015610,153.519211 
	C73.965904,148.242447 81.030647,143.969376 85.886147,145.106110 
	C90.621582,146.214737 94.077820,150.970047 93.091988,156.696777 
	C91.439445,166.296448 94.872841,174.559799 98.683716,182.847519 
	C103.297852,192.882111 107.018150,203.109756 106.188698,214.444748 
	C106.031097,216.598389 106.070740,218.784302 106.236794,220.938568 
	C106.391273,222.942688 106.767937,225.042389 109.076080,225.754608 
	C111.148918,226.394226 112.996155,225.792923 114.561279,224.252121 
	C118.742798,220.135544 122.400040,215.621765 124.501099,210.087738 
	C130.339264,194.710480 128.535248,178.723724 126.064095,163.314194 
	C124.525673,153.720886 123.889038,143.985260 121.994980,134.420303 
	C120.783424,128.301941 120.311569,121.778854 122.093979,115.575096 
	C124.243225,108.094498 123.241623,100.006126 126.693367,92.787056 
	C127.106201,91.923645 127.795418,90.583672 126.362457,89.580391 
	C120.501236,90.756134 114.500687,90.725952 108.569336,89.940125 
	C103.765991,89.303741 99.345245,89.724121 95.325851,92.492165 
	C88.443710,97.231674 81.429276,98.307449 73.834526,94.027100 
	C68.390083,90.958656 62.538788,91.610336 56.835285,93.296318 
	C49.703842,95.404388 42.728622,98.213882 34.884575,96.857590 
	C35.071354,100.553413 34.846764,103.829514 34.675365,107.103592 
	C34.256977,115.095856 31.811312,122.876480 32.289909,130.914978 
	C33.550396,152.086258 34.836990,173.176956 40.550304,193.864975 
	C44.125469,206.810699 48.190464,219.166763 57.460598,230.037125 
M67.819427,24.271894 
	C63.018951,24.405716 58.399944,24.225878 53.626183,22.701649 
	C48.625397,21.104929 44.305710,18.359415 39.592052,16.334959 
	C32.223534,13.170272 25.040144,15.239200 22.610868,22.169222 
	C20.212292,29.011677 18.694284,36.156448 18.351963,43.464958 
	C17.664078,58.151188 22.504210,71.422531 28.973846,84.238594 
	C31.725151,89.688797 35.191933,94.344345 42.413029,92.620422 
	C47.219673,91.472908 52.051678,90.321152 56.716122,88.717064 
	C62.283619,86.802429 67.494263,86.539833 73.072372,88.986946 
	C78.872040,91.531281 84.950432,94.656975 91.217155,89.740280 
	C96.891541,85.288330 103.510544,85.341911 110.240234,85.757126 
	C113.559204,85.961906 116.899307,85.809479 120.229355,85.854797 
	C122.275429,85.882622 124.089806,85.217682 125.977081,84.460930 
	C134.379425,81.091759 135.275436,73.053337 136.509354,66.032883 
	C138.232864,56.226887 137.194763,46.334190 134.572601,36.517685 
	C129.952713,19.222496 112.458160,17.922750 101.350288,24.539675 
	C102.652313,26.560961 105.395607,28.332838 102.502441,31.412148 
	C99.593231,28.969154 97.367241,26.172554 93.781143,24.730993 
	C85.359116,21.345451 77.085075,21.198467 67.819427,24.271894 
M61.309803,16.058710 
	C58.170536,15.144694 55.069756,14.600314 51.196495,17.293566 
	C57.258511,18.582752 62.147228,20.820501 68.318596,19.651836 
	C66.176720,17.380503 63.841022,17.387249 61.309803,16.058710 
M96.744652,20.848354 
	C99.114174,20.641708 100.808556,19.231848 103.376137,17.683575 
	C99.347717,16.855728 96.725456,17.989243 94.110184,19.150398 
	C94.425529,20.564930 95.253693,20.698269 96.744652,20.848354 
z"/>
</svg>