<svg version="1.1" id="Layer_1" xmlns="http://www.w3.org/2000/svg" xmlns:xlink="http://www.w3.org/1999/xlink" x="0px" y="0px"
	 width="100%" viewBox="0 0 128 256" enable-background="new 0 0 128 256" xml:space="preserve">
<path fill="#000000" opacity="1.000000" stroke="none" 
	d="
M26.080200,156.149567 
	C29.355471,151.612320 28.178967,146.984818 27.681959,142.368652 
	C25.958824,126.364403 23.127069,110.457024 23.683733,94.253433 
	C24.269497,77.202843 28.923525,61.342915 37.110985,46.432491 
	C40.544682,40.179279 43.926140,33.887253 47.034882,27.469273 
	C49.126778,23.150566 50.771633,18.604479 56.932701,19.801674 
	C60.439686,20.483135 64.146774,26.476303 64.211975,31.884752 
	C64.335831,42.157574 64.688332,52.451237 62.897423,62.729614 
	C67.885391,57.506081 70.207237,50.967789 71.472969,44.284801 
	C72.700859,37.801674 73.354866,31.120567 72.848801,24.436291 
	C72.610535,21.289284 73.015190,18.152439 76.191689,16.733963 
	C79.690056,15.171753 81.645485,18.168119 83.737160,20.205513 
	C84.795372,21.236263 85.600716,22.526621 86.508430,23.684353 
	C92.169365,21.046665 95.163757,21.641026 99.291359,26.768435 
	C105.039085,33.908417 109.258156,41.977921 113.256241,50.203194 
	C116.800941,57.495693 119.847343,64.992073 121.998947,72.750275 
	C124.945343,83.374382 125.926384,94.286873 124.846214,105.343971 
	C123.256302,121.619156 117.687920,137.410461 119.099960,154.064758 
	C119.481934,158.570068 120.358170,162.747055 122.071625,166.998795 
	C130.565536,188.075455 130.219101,216.586960 113.939041,234.698227 
	C109.073090,240.111496 102.782280,243.012573 95.970490,244.777374 
	C90.564598,246.177917 86.211624,243.565918 82.595978,239.813828 
	C79.911064,237.027588 77.492928,235.950302 73.553421,237.982635 
	C68.329285,240.677689 62.875183,239.680145 57.806007,236.802826 
	C55.333271,235.399277 53.111187,234.749237 49.975761,235.825317 
	C44.493492,237.706848 37.365463,233.127182 34.564793,226.034363 
	C32.813889,221.600098 30.780895,218.650299 25.696280,217.261719 
	C18.355556,215.257004 13.996333,209.491577 11.574265,202.367996 
	C10.922774,200.451874 10.738478,198.422424 11.333815,196.453705 
	C15.445124,182.857971 19.669710,169.301178 26.080200,156.149567 
M93.300774,155.855682 
	C78.982346,163.144318 65.640999,161.691010 52.882332,151.889359 
	C49.109394,148.990845 44.251648,148.716904 39.499733,149.570282 
	C36.149467,150.171967 33.197510,151.137131 31.539835,154.641861 
	C25.508322,167.393997 20.618858,180.572952 16.805155,194.130753 
	C14.437593,202.547485 17.768185,211.186707 30.146278,214.143524 
	C32.457352,208.363281 24.859320,206.308670 24.967688,201.262924 
	C30.207422,202.300903 35.109482,208.234741 35.157570,213.914291 
	C35.191143,217.879181 36.163006,221.416733 37.902042,224.907822 
	C39.573715,228.263718 41.180153,231.278793 45.595917,231.722443 
	C50.415562,232.206680 52.848408,229.632721 54.938148,225.902710 
	C59.741844,217.328506 65.092018,216.489670 72.413765,223.362701 
	C76.151192,226.871124 79.355072,230.940781 82.935417,234.625259 
	C88.999298,240.865494 97.650284,241.479584 104.949593,236.704407 
	C116.361832,229.238556 120.833946,217.609299 122.422791,205.178604 
	C124.152931,191.642471 122.419655,178.150330 116.792961,165.351196 
	C112.814964,156.302368 103.309624,151.977646 93.300774,155.855682 
M38.396603,52.875599 
	C30.180471,70.520264 27.384441,89.111488 28.208124,108.455917 
	C28.381811,112.535027 30.505844,116.077690 30.237314,120.175850 
	C29.811985,126.667046 31.595289,133.025955 31.534266,139.551285 
	C31.486013,144.711380 33.878738,146.087952 38.916733,145.213577 
	C44.875290,144.179443 50.477737,145.102081 55.523670,148.622040 
	C66.742477,156.448090 78.343422,158.649933 91.017250,151.824844 
	C95.267235,149.536163 100.045708,149.194077 105.071014,150.446030 
	C107.813583,151.129272 110.256119,153.514801 113.327240,152.698959 
	C115.145515,139.668365 116.218010,126.902191 119.178009,114.206238 
	C122.199310,101.247406 121.680466,87.582474 117.682587,74.411110 
	C112.932434,58.761326 106.746170,43.835117 96.989632,30.560020 
	C95.600838,28.670364 94.347115,26.068136 91.728561,26.825548 
	C88.628441,27.722254 89.241646,30.951899 89.518822,33.280190 
	C90.381409,40.525703 91.711678,47.714893 92.608643,54.957127 
	C93.652924,63.388824 94.238708,71.890892 92.261841,80.253098 
	C89.659554,91.260834 84.427780,101.320450 80.431709,111.827850 
	C78.575020,116.709900 76.299721,121.200935 72.086845,124.496887 
	C68.381660,127.395630 64.378006,127.105743 61.049587,123.686447 
	C56.719395,119.238029 55.974751,113.343216 56.449768,107.912254 
	C58.597569,83.355911 57.988815,58.701248 59.564175,34.134186 
	C59.678436,32.352333 59.276279,30.468485 58.766365,28.734344 
	C58.227051,26.900236 57.874962,24.517494 55.295448,24.458818 
	C53.068161,24.408152 52.476929,26.488312 51.618111,28.076273 
	C47.278885,36.099545 42.944553,44.125465 38.396603,52.875599 
M86.847618,50.141647 
	C86.406616,44.358669 86.379158,38.503460 85.385986,32.816917 
	C84.668182,28.707016 82.531250,24.909594 78.189857,21.381994 
	C78.198402,27.626390 76.934006,32.839550 76.623238,37.946381 
	C75.891930,49.963856 71.681206,60.125103 63.744556,68.936150 
	C62.792061,69.993568 62.334949,71.166069 62.374062,72.559410 
	C62.733883,85.376442 61.522221,98.149986 61.357273,110.944489 
	C61.307594,114.797989 60.817131,120.331383 65.817787,121.507790 
	C71.168610,122.766571 72.965797,117.531761 74.699333,113.721115 
	C78.252693,105.910172 81.628319,98.000381 84.656387,89.972595 
	C89.444092,77.279793 90.449043,64.257996 86.847618,50.141647 
M73.308662,229.100052 
	C71.604271,226.588181 69.361443,224.602585 66.718353,223.220535 
	C63.008450,221.280640 60.815945,223.693253 59.069496,226.486465 
	C57.251507,229.394089 57.222080,232.292694 60.686127,233.928787 
	C64.599419,235.777023 68.719276,235.350296 72.637863,233.733231 
	C74.500320,232.964645 74.863869,231.427338 73.308662,229.100052 
z"/>
</svg>