<svg version="1.1" id="Layer_1" xmlns="http://www.w3.org/2000/svg" xmlns:xlink="http://www.w3.org/1999/xlink" x="0px" y="0px"
	 width="100%" viewBox="0 0 80 256" enable-background="new 0 0 80 256" xml:space="preserve">
<path fill="#000000" opacity="1.000000" stroke="none" 
	d="
M81.000000,41.571537 
	C71.878242,37.650322 64.981644,30.227682 56.831837,24.554804 
	C49.671032,19.570343 41.858940,19.487947 34.368816,24.048883 
	C28.119558,27.854223 22.031666,31.535561 14.495555,32.687824 
	C10.566323,33.288605 8.848242,37.240696 8.484140,41.381580 
	C7.536372,52.160446 11.027625,62.402786 12.168997,72.926979 
	C13.084142,81.365196 15.989331,89.211586 19.954655,96.672081 
	C20.483871,97.667755 21.336540,98.491524 22.229628,99.639366 
	C29.211197,95.433525 35.633698,99.072311 41.450184,101.878616 
	C47.304279,104.703072 51.835720,105.858849 57.379856,101.420357 
	C61.814041,97.870445 67.319427,96.206329 73.267212,96.626160 
	C75.562393,96.788170 77.897301,96.387581 80.607056,96.121658 
	C81.000000,112.687561 81.000000,129.375122 80.849350,146.890579 
	C79.190849,158.344009 77.679893,168.969116 76.178146,179.595520 
	C75.922783,181.402512 76.042992,183.341125 75.419037,185.004913 
	C70.908211,197.032883 69.534676,209.736984 67.390762,222.256607 
	C66.758202,225.950531 66.611984,229.915604 67.722939,233.662796 
	C70.057419,241.536972 70.257851,249.314041 67.000000,257.000000 
	C62.310745,257.000000 57.621487,257.000000 52.466118,257.000000 
	C42.451859,244.870056 36.311840,231.126877 31.345039,216.544586 
	C27.180431,204.317490 25.506994,191.986435 24.204992,179.254898 
	C23.445646,171.829712 21.640575,164.195801 23.145437,157.111053 
	C24.913782,148.785858 24.825468,140.603180 24.550840,132.395172 
	C24.098043,118.862206 20.550110,105.968513 13.471380,94.326187 
	C11.336552,90.815056 10.006480,86.974915 9.172317,83.285629 
	C6.076576,69.593971 3.222323,55.794552 3.909282,41.588284 
	C4.302816,33.449997 7.864376,29.512108 15.728537,27.622450 
	C21.196365,26.308599 26.554922,24.236145 30.978043,20.662848 
	C41.467556,12.188715 53.660015,15.344956 62.681995,22.972086 
	C68.249611,27.678917 73.509537,32.796333 80.665504,35.884121 
	C81.000000,37.714359 81.000000,39.428715 81.000000,41.571537 
M78.607040,103.244186 
	C78.040833,101.784363 76.840797,101.445839 75.425674,101.305099 
	C69.711739,100.736832 64.148628,102.052269 59.988174,105.585686 
	C53.249645,111.308632 46.772469,111.127541 40.072990,106.479790 
	C36.548859,104.034935 32.647449,103.815964 28.771671,103.324043 
	C25.806377,102.947685 23.878834,103.821800 25.305422,107.643661 
	C26.569973,111.031433 27.416590,114.616417 28.069929,118.183525 
	C30.154346,129.564087 29.860947,141.121628 28.995533,152.514435 
	C27.933268,166.498734 28.872295,180.146469 30.910654,193.989456 
	C32.886623,207.408768 37.333588,219.818878 42.640686,232.063751 
	C45.479076,238.612686 48.861980,244.910599 53.123268,250.670792 
	C55.229893,253.518448 58.181641,255.487289 61.714386,254.408249 
	C65.241371,253.330994 63.869186,249.864792 63.623291,247.465149 
	C61.855869,230.217758 61.871418,213.069443 66.819534,196.301819 
	C69.201500,188.230072 71.549957,180.043015 72.403511,171.808334 
	C73.594910,160.314255 76.121880,148.961136 76.262772,137.357925 
	C76.398064,126.215195 79.107117,115.267906 78.607040,103.244186 
z"/>
</svg>