<svg version="1.1" id="Layer_1" xmlns="http://www.w3.org/2000/svg" xmlns:xlink="http://www.w3.org/1999/xlink" x="0px" y="0px"
	 width="100%" viewBox="0 0 96 256" enable-background="new 0 0 96 256" xml:space="preserve">
<path fill="#000000" opacity="1.000000" stroke="none" 
	d="
M55.437500,257.000000 
	C56.517868,255.052017 56.809856,252.821335 56.766312,250.412598 
	C56.654869,244.248550 56.752354,238.080765 56.645157,231.916580 
	C56.344524,214.628769 58.604549,197.645462 62.338314,180.799484 
	C64.495888,171.064957 66.049522,161.276764 65.736824,151.181915 
	C65.263023,135.885986 67.378624,120.939270 72.151421,106.264442 
	C73.560570,101.931755 75.159004,97.325760 75.985947,92.199669 
	C69.640747,93.437195 66.744743,97.923943 63.909016,102.002060 
	C56.412800,112.782532 47.561039,111.931587 38.670147,105.691978 
	C35.019085,103.129684 31.825214,99.889931 27.832893,97.806000 
	C20.938908,94.207443 18.345703,95.722755 18.421196,103.366035 
	C18.572453,118.679741 17.999004,134.062988 19.282696,149.286148 
	C20.654024,165.548538 20.607471,181.880722 22.335215,198.086090 
	C23.603914,209.985870 27.382994,221.288193 33.321327,231.698425 
	C38.427921,240.650589 44.456902,249.000397 51.855408,256.697693 
	C49.958332,257.000000 47.916668,257.000000 45.437500,257.000000 
	C41.889912,250.894806 36.627228,246.370270 33.104633,240.511307 
	C24.184053,225.674149 18.375450,210.207687 17.269796,192.521042 
	C16.538488,180.822678 15.747868,169.073593 14.836918,157.358612 
	C13.464775,139.712616 13.737642,122.048248 14.070271,104.409752 
	C14.213312,96.824669 12.251095,89.921288 10.011680,83.099899 
	C5.456905,69.225769 6.451664,55.186478 7.769941,41.144947 
	C8.255307,35.975109 12.131956,32.431080 16.518847,29.604839 
	C23.344545,25.207409 30.545597,21.421738 37.075287,16.530529 
	C43.611912,11.634128 48.261032,11.109451 54.415207,15.889997 
	C61.623512,21.489391 69.984741,24.623877 77.903389,28.711117 
	C85.208336,32.481590 88.909523,38.185169 89.292297,46.519917 
	C90.021400,62.395916 86.281769,77.215416 81.123978,92.132515 
	C76.841446,104.518204 73.849258,117.374626 71.772385,130.534485 
	C69.463951,145.161636 71.241463,159.798935 69.209030,174.314194 
	C68.271729,181.008301 65.768219,187.266037 64.609482,193.948547 
	C63.328968,201.333420 62.617260,208.725464 62.292080,216.090195 
	C61.704735,229.392426 62.051704,242.735931 62.004250,256.531097 
	C59.958332,257.000000 57.916668,257.000000 55.437500,257.000000 
M11.574648,64.138931 
	C11.326432,71.746193 14.250918,78.784637 15.620544,86.099525 
	C15.953446,87.877487 16.894356,90.569763 19.057598,90.529968 
	C27.888962,90.367493 33.622669,95.974030 39.896118,100.835381 
	C48.572559,107.558838 55.224724,106.462090 61.575970,97.407280 
	C65.209534,92.226990 69.514191,88.104935 75.962753,86.816940 
	C76.929047,86.623947 78.109306,86.608269 78.473740,85.504585 
	C79.916458,81.135315 81.748917,76.820343 82.543312,72.327255 
	C84.079102,63.640770 83.612473,54.792034 83.862419,45.997807 
	C84.054016,39.256371 81.219292,35.118530 75.253746,32.417027 
	C67.277924,28.805176 59.206570,25.376797 52.090939,20.062143 
	C48.640121,17.484732 44.235813,17.092350 40.808205,19.660925 
	C33.220413,25.347050 24.579348,29.357361 17.083878,35.144527 
	C14.475202,37.158653 12.486509,39.642971 12.209661,42.920742 
	C11.636818,49.702969 10.760163,56.492565 11.574648,64.138931 
z"/>
</svg>