<svg version="1.1" id="Layer_1" xmlns="http://www.w3.org/2000/svg" xmlns:xlink="http://www.w3.org/1999/xlink" x="0px" y="0px"
	 width="100%" viewBox="0 0 80 272" enable-background="new 0 0 80 272" xml:space="preserve">
<path fill="#000000" opacity="1.000000" stroke="none" 
	d="
M42.999535,16.764980 
	C47.829811,16.790707 52.162617,16.737413 56.490841,16.854164 
	C68.092651,17.167124 75.086792,24.544712 75.405312,35.963657 
	C75.712669,46.982632 75.189827,58.057186 73.766441,68.835075 
	C72.595215,77.703522 72.829430,87.048470 68.826546,95.574585 
	C67.394394,98.625076 68.116829,102.427612 67.591217,105.895477 
	C65.631027,118.828415 64.721687,131.883698 64.146896,144.956604 
	C63.864059,151.389282 64.184860,157.756317 62.563625,164.232407 
	C61.245197,169.498932 61.921249,175.411179 62.015018,180.919189 
	C62.250950,194.777527 60.629574,208.515762 59.676296,222.232330 
	C59.103012,230.481293 58.680412,238.746796 58.358078,247.015564 
	C58.267242,249.345840 58.583008,251.564560 59.407379,253.842514 
	C61.157158,258.677612 59.091473,263.335907 56.274361,266.683777 
	C51.641922,272.189026 44.496567,268.790222 40.757751,263.359344 
	C35.955658,256.384064 32.905090,248.363708 30.291470,240.336456 
	C26.213675,227.812241 22.025152,215.250793 20.322170,202.127625 
	C18.728716,189.848465 16.477541,177.696625 15.639768,165.253387 
	C14.536564,148.867798 14.398833,132.352264 12.212093,116.128754 
	C11.028289,107.346069 9.874621,98.369026 7.560264,89.530441 
	C4.709770,78.644333 5.081863,66.730614 6.194236,55.273178 
	C7.051347,46.444950 6.549489,37.637394 6.844973,28.825737 
	C7.135425,20.164101 10.783032,15.295732 20.534410,16.400568 
	C27.776999,17.221159 35.172554,16.691648 42.999535,16.764980 
M53.789238,230.619980 
	C55.118740,221.205292 53.936386,211.586060 55.461082,202.267578 
	C57.804234,187.946960 57.051193,173.496582 58.388527,159.160889 
	C59.127296,151.241608 58.624886,143.321625 59.891068,135.340439 
	C61.610180,124.504257 61.038086,113.356644 62.828499,101.850998 
	C57.367546,104.007729 54.512005,108.009651 51.141335,111.326454 
	C46.861477,115.537941 41.838947,117.467247 36.186436,115.347786 
	C31.416904,113.559418 26.814224,111.208832 22.785789,107.843864 
	C21.020105,106.368988 19.359222,104.297661 16.465008,104.029587 
	C16.366623,105.298866 16.104898,106.305801 16.243732,107.254097 
	C17.509439,115.899445 18.069715,124.669518 18.846142,133.314819 
	C20.431704,150.969666 20.471399,168.751419 23.028969,186.382950 
	C24.730225,198.111191 26.184126,209.824402 29.474163,221.268616 
	C33.227703,234.325104 37.448833,247.165726 43.552036,259.347198 
	C45.198990,262.634369 47.697014,264.243408 51.146282,263.614502 
	C54.892761,262.931427 53.965313,259.464600 53.993706,257.052368 
	C54.093563,248.568115 53.876163,240.080154 53.789238,230.619980 
M10.390659,61.978424 
	C9.302195,71.207451 12.233786,80.121552 12.572405,89.248817 
	C12.669989,91.879120 13.947046,94.288528 16.038553,96.226791 
	C21.175747,100.987556 26.658640,105.295982 32.774586,108.681450 
	C38.735661,111.981186 44.102695,111.115204 49.043308,106.301239 
	C52.855465,102.586807 56.818527,99.077530 61.171078,96.010025 
	C63.137676,94.624054 64.529739,92.867920 64.970291,90.391815 
	C65.942871,84.925568 67.960823,79.753448 68.072922,74.005295 
	C68.334557,60.588631 71.341370,47.337696 70.791466,33.831730 
	C70.617340,29.555170 68.681122,26.595938 65.103737,24.589039 
	C61.156971,22.374918 57.081249,21.102333 52.346161,21.230627 
	C41.704479,21.518955 31.047075,21.289137 20.396965,21.181593 
	C13.655012,21.113516 13.039139,21.566244 12.483633,28.282280 
	C12.333077,30.102474 12.424344,31.941460 12.362091,33.770374 
	C12.051457,42.896324 12.826492,52.098949 10.390659,61.978424 
z"/>
</svg>