<svg version="1.1" id="Layer_1" xmlns="http://www.w3.org/2000/svg" xmlns:xlink="http://www.w3.org/1999/xlink" x="0px" y="0px"
	 width="100%" viewBox="0 0 72 251" enable-background="new 0 0 72 251" xml:space="preserve">
<path fill="none" opacity="1.000000" stroke="#000000" stroke-linecap="round" stroke-linejoin="round" stroke-width="3.000000"
	d="
M12.500000,84.000000 
	C11.273383,87.729996 12.404004,91.669868 13.271633,94.927658 
	C15.780931,104.349617 16.056705,114.077179 18.165846,123.462730 
	C20.215971,132.585693 19.646086,141.928665 21.781435,151.051163 
	C23.121588,156.776474 22.362091,162.999374 22.493208,169.000153 
	C22.686201,177.832901 22.059845,186.769150 23.212893,195.471786 
	C24.417423,204.563019 25.630386,213.724304 28.780602,222.578064 
	C30.745363,228.100128 32.052505,233.786270 34.879009,239.064789 
	C36.717663,242.498505 39.346298,243.521423 42.474442,242.876114 
	C45.794796,242.191147 47.055553,239.354553 47.009357,235.999878 
	C46.965759,232.833801 47.019665,229.666534 46.996727,226.500031 
	C46.872013,209.286469 48.598309,192.155304 49.681728,175.011490 
	C50.484207,162.313248 52.164558,149.580032 54.291710,137.049515 
	C55.966911,127.181351 57.523487,117.192268 60.290096,107.440453 
	C62.097336,101.070259 64.016594,94.478676 64.738434,87.970985 
	C65.969933,76.868477 69.078041,65.711517 67.318115,54.528625 
	C65.876762,45.370037 66.837212,35.979404 64.083366,26.974504 
	C63.215878,24.137859 63.976833,20.731426 62.861038,18.057997 
	C60.777653,13.066225 55.503132,11.522408 50.984943,11.247141 
	C44.133984,10.829750 37.442219,9.147690 30.495672,9.354970 
	C25.084282,9.516440 19.800159,10.218674 14.505268,11.034204 
	C9.925964,11.739519 7.520606,14.813197 6.969360,19.496393 
	C5.598623,31.141722 5.570631,42.852840 6.176244,54.490829 
	C6.595007,62.538120 6.740026,70.796211 9.939019,78.525238 
	C10.906473,80.862694 11.462917,82.545151 14.370322,83.800369 
	C17.447958,85.129082 20.111906,88.488487 21.855104,91.581657 
	C24.404083,96.104630 27.128090,100.154457 32.511261,100.920898 
	C38.630589,101.792145 43.354145,98.347839 47.438778,94.436073 
	C51.992298,90.075264 56.383835,85.642319 62.504623,83.513290 
	C62.801979,83.409859 63.166668,83.500000 63.500000,83.500000 
"/>
</svg>