<svg version="1.1" id="Layer_1" xmlns="http://www.w3.org/2000/svg" xmlns:xlink="http://www.w3.org/1999/xlink" x="0px" y="0px"
	 width="100%" viewBox="0 0 80 256" enable-background="new 0 0 80 256" xml:space="preserve">
<path fill="#000000" opacity="1.000000" stroke="none" 
	d="
M28.466862,257.000000 
	C25.972403,251.958237 25.631241,246.915482 26.314594,241.410217 
	C27.149836,234.681335 27.094893,227.735977 26.485228,220.968857 
	C26.036058,215.983215 25.963736,211.012314 25.657154,206.038300 
	C24.647013,189.649597 23.117928,173.282715 22.534161,156.880920 
	C22.019022,142.407288 20.990952,127.988464 19.810465,113.568977 
	C18.946434,103.014946 17.760290,92.493774 15.353905,82.167282 
	C12.601975,70.357964 12.180774,58.285400 10.777009,46.317764 
	C9.877827,38.651890 9.756854,31.042650 9.828827,23.401070 
	C9.896687,16.196001 18.287838,8.399580 27.500210,8.026444 
	C41.975933,7.440122 56.489677,7.628898 70.984596,7.769692 
	C75.980042,7.818214 78.067856,11.839131 78.053474,15.970696 
	C77.978172,37.601345 81.605598,59.500454 77.592628,80.765594 
	C75.009323,94.454796 75.067924,108.428123 71.548813,121.896828 
	C71.219856,123.155823 71.388191,124.546989 71.342415,125.877373 
	C70.907455,138.519760 71.370323,151.277390 69.762314,163.768524 
	C68.463409,173.858597 67.842857,184.130325 64.769104,194.079102 
	C63.103394,199.470459 62.867538,205.396545 61.408829,211.034332 
	C57.332497,226.788940 52.165688,242.074356 44.070686,256.649231 
	C38.977909,257.000000 33.955814,257.000000 28.466862,257.000000 
M46.114891,241.628159 
	C47.214218,239.216080 48.471268,236.862305 49.387653,234.382614 
	C56.109837,216.192856 59.483139,197.185623 62.994911,178.213089 
	C65.229263,166.141907 64.783104,153.836853 66.251839,141.653732 
	C67.909126,127.906517 66.708160,113.821075 69.683578,100.080681 
	C70.032448,98.469597 70.421242,96.454384 68.708191,94.665657 
	C64.889481,97.272446 61.207840,100.048470 57.279198,102.414345 
	C48.325924,107.806091 39.574585,108.913383 32.074833,99.781456 
	C29.629749,96.804245 26.920013,93.442635 22.109755,92.243690 
	C24.280384,99.633514 23.843058,106.781342 24.815409,113.796448 
	C26.447466,125.571075 27.694004,137.563675 27.112123,149.595718 
	C26.799576,156.058548 27.587280,162.483276 28.281067,168.948563 
	C30.388533,188.587738 29.864080,208.414536 32.024582,228.084457 
	C32.650608,233.783997 32.581573,239.624756 30.649918,245.363602 
	C29.446497,248.938873 30.271389,253.229355 34.299393,254.544098 
	C38.489098,255.911606 40.924644,252.556671 42.638851,249.071075 
	C43.736813,246.838547 44.802521,244.590149 46.114891,241.628159 
M20.962931,83.156227 
	C24.868008,88.662376 31.046797,91.667984 35.586334,96.544182 
	C40.578785,101.906898 47.632366,102.524628 54.054031,98.999413 
	C59.780800,95.855667 64.711418,91.616158 69.405403,87.187363 
	C71.710350,85.012642 73.744545,82.350273 73.721992,78.585556 
	C73.600319,58.271885 73.620026,37.957039 73.683235,17.642887 
	C73.695190,13.799094 71.897987,12.156381 68.237236,12.172353 
	C55.247040,12.229032 42.132179,11.203958 29.305164,12.679871 
	C18.581949,13.913715 14.978670,16.693800 15.066280,27.232386 
	C15.221078,45.852779 16.695978,64.271004 20.962931,83.156227 
z"/>
</svg>