<svg version="1.1" id="Layer_1" xmlns="http://www.w3.org/2000/svg" xmlns:xlink="http://www.w3.org/1999/xlink" x="0px" y="0px"
	 width="100%" viewBox="0 0 80 256" enable-background="new 0 0 80 256" xml:space="preserve">
<path fill="#000000" opacity="1.000000" stroke="none" 
	d="
M58.416664,257.000000 
	C62.742004,241.646286 65.132217,226.012909 65.974037,209.885635 
	C67.199707,186.405014 65.558365,162.898727 67.174973,139.501068 
	C68.034309,127.063675 68.163475,114.310097 72.495567,102.273727 
	C72.697525,101.712593 72.521484,101.015404 72.521484,99.567963 
	C67.023399,104.664787 62.536251,109.718697 57.212620,113.908714 
	C46.266445,122.523987 34.315914,123.707382 23.739965,113.023491 
	C23.325623,112.604927 22.654459,112.440582 22.162678,112.188400 
	C21.279390,129.060822 25.124310,145.322723 26.362587,161.816498 
	C26.986263,170.123856 29.833191,178.262375 31.651587,186.482361 
	C35.247490,202.737503 38.654552,218.964432 39.664177,235.712662 
	C40.074516,242.519669 42.048012,249.336029 41.917564,256.662476 
	C40.285641,257.000000 38.571285,257.000000 36.428463,257.000000 
	C35.833431,245.759033 35.926857,234.507034 33.019115,223.493439 
	C32.175224,220.297058 32.477283,216.903015 32.116978,213.602753 
	C30.891890,202.381470 27.603054,191.637115 25.207680,180.694046 
	C20.696047,160.083008 18.550385,139.232605 17.537758,118.176788 
	C17.039576,107.817955 13.321026,97.999008 10.194155,88.100548 
	C5.995756,74.810059 3.166911,61.222958 7.399994,47.254196 
	C7.635802,46.476051 7.678727,45.599617 7.627515,44.780426 
	C7.032414,35.261208 12.605309,30.169836 20.510426,26.722956 
	C25.106220,24.719044 29.530739,22.242361 33.006386,18.699890 
	C44.735538,6.745227 52.002529,6.532199 66.045456,18.110104 
	C72.365295,23.320591 76.959641,30.085096 80.824692,37.706306 
	C81.000000,53.354229 81.000000,68.708458 80.871658,84.879478 
	C79.489120,88.303673 79.708412,91.245895 78.956635,93.926987 
	C74.912888,108.348351 72.881126,123.178757 72.463974,137.988495 
	C71.682686,165.726379 72.001030,193.498459 70.241043,221.212479 
	C69.865242,227.130219 69.135849,232.991898 67.825111,238.867767 
	C66.457146,245.000198 64.424957,250.911652 63.000000,257.000000 
	C61.611111,257.000000 60.222221,257.000000 58.416664,257.000000 
M26.308020,109.190681 
	C28.924883,111.470650 31.434675,113.792282 34.818047,115.091888 
	C42.640148,118.096489 48.897259,114.488914 54.581635,110.154633 
	C67.174767,100.552483 76.772301,88.634781 79.163742,72.439438 
	C80.449692,63.730721 81.000999,54.596741 78.744652,46.149029 
	C75.686028,34.697647 68.470695,25.460979 58.865112,18.312616 
	C52.045399,13.237463 46.547947,12.750899 40.887363,18.012758 
	C34.095425,24.326288 26.475706,29.136969 18.243614,33.147381 
	C14.760674,34.844158 12.911668,37.937138 12.453104,41.379238 
	C9.267647,65.290199 10.184951,88.462433 26.308020,109.190681 
z"/>
</svg>