<svg version="1.1" id="Layer_1" xmlns="http://www.w3.org/2000/svg" xmlns:xlink="http://www.w3.org/1999/xlink" x="0px" y="0px"
	 width="100%" viewBox="0 0 80 256" enable-background="new 0 0 80 256" xml:space="preserve">
<path fill="#000000" opacity="1.000000" stroke="none" 
	d="
M81.000000,38.562500 
	C72.532852,29.235811 60.492374,24.573202 50.178162,17.446890 
	C48.153122,16.047747 45.989735,15.704969 43.635391,17.139069 
	C34.861099,22.483742 26.020308,27.674797 16.539948,31.769100 
	C11.166749,34.089634 8.901261,38.682804 9.098055,44.709793 
	C9.380135,53.348736 8.706040,62.043823 10.385086,70.590416 
	C11.240077,74.942444 12.493978,79.231117 13.828725,83.466118 
	C14.326989,85.047050 15.775846,86.422264 17.534325,86.480186 
	C23.831528,86.687599 27.209166,90.933426 30.575224,95.378822 
	C34.187401,100.149254 37.483551,105.253380 45.001144,103.833305 
	C48.553436,103.162270 50.999920,101.029510 53.571915,99.098343 
	C59.534813,94.621124 64.898804,89.307594 73.244690,89.556084 
	C76.246956,89.645462 76.792969,86.550148 77.630074,84.247246 
	C78.694901,81.317886 78.231453,77.928795 80.657005,75.151627 
	C81.000000,79.356903 81.000000,83.713799 80.774780,88.843826 
	C78.660004,92.087029 79.080009,94.983757 79.064636,97.789116 
	C78.965263,115.919632 79.586464,134.066605 78.102661,152.167542 
	C76.993111,165.703003 77.242836,179.282120 75.660103,192.846451 
	C74.510460,202.699097 72.300499,211.888870 68.720093,221.020264 
	C63.430958,234.509506 55.232578,246.056015 46.000000,257.000000 
	C41.975456,257.000000 37.950912,257.000000 33.463184,257.000000 
	C30.494591,252.940659 31.096766,248.578735 31.095928,244.046066 
	C31.093611,231.492310 31.907202,218.917831 30.496883,206.365601 
	C29.611095,198.481827 28.822239,190.529434 26.492540,182.994934 
	C21.976955,168.391006 24.443447,153.311737 22.584940,138.580963 
	C21.292042,128.333282 19.774645,118.111336 17.002407,108.035683 
	C13.924374,96.848618 9.240382,86.158241 6.768861,74.865677 
	C4.535025,64.659088 3.554890,54.152538 3.893098,43.669598 
	C4.175844,34.905758 9.507020,29.119156 17.228617,26.105587 
	C24.868210,23.124022 31.963945,19.354401 38.629662,14.696957 
	C44.064072,10.899849 49.354767,10.800067 54.730766,14.721147 
	C63.026733,20.771954 72.384567,25.201010 80.741776,31.777584 
	C81.000000,34.041668 81.000000,36.083332 81.000000,38.562500 
M25.369978,123.359329 
	C26.026983,128.787979 26.879475,134.201553 27.300125,139.648453 
	C28.164532,150.841400 26.353958,162.055740 28.997431,173.323212 
	C31.510897,184.036560 33.772293,194.830322 34.948132,205.941818 
	C36.340736,219.101715 36.005089,232.092621 35.705902,245.174271 
	C35.623768,248.765533 34.385509,253.363419 38.207085,254.970856 
	C41.981743,256.558563 44.220783,252.236023 46.374794,249.709946 
	C52.825348,242.145142 58.196346,233.996201 62.638088,224.914307 
	C67.346664,215.286865 69.126755,205.333160 70.774345,195.089813 
	C72.185356,186.317368 71.000069,177.411987 72.130974,168.710190 
	C75.130241,145.632126 73.484543,122.481110 73.940384,99.367393 
	C74.040382,94.297081 70.974960,92.602081 66.526100,95.302254 
	C63.135624,97.360062 60.167309,100.100380 56.880188,102.345253 
	C53.615662,104.574692 50.712757,107.502121 46.563435,108.182503 
	C39.118271,109.403313 33.137871,107.253441 29.015251,100.662018 
	C26.889408,97.263123 24.519556,94.058380 20.975409,91.943649 
	C20.054714,91.394279 19.086252,91.107826 18.165077,91.693611 
	C17.387562,92.188019 17.319973,93.082253 17.599598,93.930344 
	C20.693760,103.314842 23.472439,112.780815 25.369978,123.359329 
z"/>
</svg>