<svg version="1.1" id="Layer_1" xmlns="http://www.w3.org/2000/svg" xmlns:xlink="http://www.w3.org/1999/xlink" x="0px" y="0px"
	 width="100%" viewBox="0 0 128 224" enable-background="new 0 0 128 224" xml:space="preserve">
<path fill="#000000" opacity="1.000000" stroke="none" 
	d="
M72.416664,225.000000 
	C70.882706,216.249619 74.658356,208.139069 75.315018,199.533493 
	C76.630348,182.295868 78.112953,165.186356 74.589081,148.072495 
	C73.945290,144.945877 71.860191,142.756058 69.188240,141.354492 
	C65.244652,139.285873 62.284134,141.105728 62.060497,145.568222 
	C61.770447,151.356064 62.648945,157.165390 60.749767,162.910049 
	C58.718922,169.052979 56.406277,175.043365 53.618454,180.875092 
	C49.615482,189.248749 48.421902,198.224045 48.747643,207.358719 
	C48.850342,210.238678 48.874599,213.027267 48.085949,215.730499 
	C46.304714,221.835983 39.456902,224.414719 34.553635,220.362747 
	C27.296814,214.365860 22.027164,207.015137 19.510887,197.535553 
	C16.546366,186.367279 16.184881,175.115173 17.879169,163.989395 
	C19.191360,155.372696 19.946428,146.624847 22.047342,138.121048 
	C22.325846,136.993774 22.721901,135.833267 22.685669,134.700241 
	C22.357059,124.424461 23.899202,114.175270 22.871914,103.876968 
	C21.873646,93.869583 19.071016,84.533783 14.885556,75.360619 
	C10.234193,65.166359 5.633853,54.492203 7.643040,42.961281 
	C9.513349,32.227394 10.183927,20.688673 19.532679,12.788401 
	C23.834530,9.153069 28.687523,6.769804 34.481556,6.926958 
	C37.515266,7.009243 40.288097,6.507545 43.146946,5.217278 
	C48.295456,2.893634 53.401134,3.449370 58.415501,6.372178 
	C64.784676,10.084688 72.072174,9.143102 78.025963,6.657969 
	C83.592003,4.334679 89.207039,2.045487 94.704468,3.027103 
	C103.888451,4.666984 112.419464,1.597470 121.634697,1.165044 
	C124.282310,1.000000 126.564629,1.000000 129.000000,1.000000 
	C129.000000,5.349849 129.000000,9.700797 129.000000,14.525871 
	C128.718307,14.826662 128.352905,14.716327 128.167801,14.470311 
	C126.164124,11.807364 125.750031,7.701169 121.323380,7.266963 
	C115.937668,6.738684 110.831779,7.089806 105.851105,9.727705 
	C100.324669,12.654641 94.760086,15.577970 88.118286,15.628362 
	C85.265717,15.650004 82.374641,15.836576 79.714958,15.064131 
	C68.378258,11.771638 58.078419,12.903173 49.195660,21.329590 
	C48.878513,21.630442 48.289448,21.706608 47.813595,21.755262 
	C47.522377,21.785038 47.205326,21.562176 46.896370,21.452087 
	C46.718807,21.176500 46.358269,20.870607 46.398045,20.631235 
	C47.316620,15.103344 45.376774,12.794720 38.680065,11.506666 
	C30.401409,9.914340 20.367304,15.607580 17.321287,23.612469 
	C11.523417,38.849182 11.091864,54.172943 17.472845,69.255676 
	C19.595396,74.272758 24.374880,76.389908 29.964296,76.841515 
	C35.954300,77.325485 41.820400,75.663506 47.831577,76.422218 
	C52.121574,76.963684 55.896488,78.559914 59.309006,80.880653 
	C63.850273,83.969048 68.429527,83.938324 72.908989,81.489082 
	C81.228775,76.940086 89.763733,77.814529 97.984177,80.830818 
	C101.801285,82.231415 105.643776,83.078583 109.475899,83.512871 
	C113.645439,83.985397 117.087654,82.662788 119.452110,77.963791 
	C122.570122,71.767204 125.251183,65.386597 128.649353,59.085838 
	C129.000000,62.692909 129.000000,66.385818 128.721695,70.734009 
	C122.736618,79.830116 118.831810,88.763741 120.209038,99.335152 
	C120.721367,103.267723 122.456184,106.869476 122.305969,111.034683 
	C121.957787,120.688698 122.214554,130.363739 122.163681,140.029938 
	C122.153214,142.018463 122.183350,144.092117 121.661049,145.978790 
	C118.974770,155.682373 119.632118,165.862625 116.643005,175.651291 
	C114.354759,183.144760 113.315399,191.120728 110.704132,198.614761 
	C107.346375,208.251083 101.893707,216.757278 96.000000,225.000000 
	C93.958336,225.000000 91.916664,225.000000 89.437500,225.000000 
	C100.510643,213.249252 105.917435,198.677734 110.080460,183.020584 
	C116.656860,158.286758 117.392906,133.225311 116.608658,107.998016 
	C116.409554,101.593201 115.632866,95.137749 115.549316,88.321434 
	C106.976967,88.773674 99.443909,86.139519 91.702736,83.767212 
	C86.745033,82.247910 80.969490,82.144974 75.759041,85.222847 
	C69.381134,88.990356 62.833931,88.661896 56.478710,84.729897 
	C51.472477,81.632515 46.108593,80.704781 40.221130,81.659386 
	C34.829189,82.533653 29.325388,83.050034 23.813757,80.575836 
	C22.653769,85.639763 25.666521,89.491035 26.471678,93.724586 
	C28.016235,101.845955 27.539478,110.015213 27.652897,118.098358 
	C27.785198,127.527084 28.325748,137.217484 26.026852,146.431595 
	C23.790592,155.394684 23.286682,164.406433 22.781738,173.495483 
	C22.187433,184.193008 22.425741,194.843903 27.361641,204.623260 
	C29.341688,208.546280 32.353077,212.026138 35.297092,215.351761 
	C36.714069,216.952423 39.132717,217.243713 41.381145,216.400497 
	C43.719154,215.523682 43.932369,213.471573 43.989670,211.464767 
	C44.136578,206.319687 43.910332,201.195816 44.315170,196.018921 
	C44.955112,187.835663 48.460388,180.818130 51.627338,173.565643 
	C55.366837,165.002014 57.968845,156.195007 57.141350,146.636505 
	C56.774067,142.393921 58.184238,138.971741 62.381725,136.764801 
	C69.016617,133.276321 77.089272,139.951828 79.083885,147.116119 
	C83.541687,163.127823 82.343430,179.479645 80.746384,195.567657 
	C79.803520,205.065704 78.648376,214.667938 77.023193,224.573441 
	C75.611107,225.000000 74.222221,225.000000 72.416664,225.000000 
M86.174591,10.931072 
	C90.026031,10.310463 94.454056,11.814465 97.510139,7.905091 
	C91.087898,6.518438 85.478622,7.585858 82.875504,10.808195 
	C83.821205,10.862023 84.625603,10.907808 86.174591,10.931072 
M48.824390,10.427812 
	C50.749756,10.714367 52.519283,12.693394 54.991577,10.783607 
	C52.797527,8.990560 51.079872,6.235683 48.824390,10.427812 
z"/>
</svg>