<svg version="1.1" id="Layer_1" xmlns="http://www.w3.org/2000/svg" xmlns:xlink="http://www.w3.org/1999/xlink" x="0px" y="0px"
	 width="100%" viewBox="0 0 96 192" enable-background="new 0 0 96 192" xml:space="preserve">
<path fill="#000000" opacity="1.000000" stroke="none" 
	d="
M97.000000,11.571538 
	C90.332420,8.562858 84.206329,10.742761 78.172638,13.426312 
	C78.036385,15.181063 79.144279,15.375528 80.028587,15.748541 
	C81.400276,16.327139 83.258026,16.765661 82.253174,18.779774 
	C81.376938,20.536079 79.652061,19.954679 78.299156,19.269775 
	C71.084709,15.617468 63.855312,12.049150 56.180416,9.379388 
	C53.716160,8.522182 51.975082,8.277262 49.776699,9.850930 
	C45.873634,12.644859 41.758106,15.143364 37.715672,17.740887 
	C32.436954,21.132803 28.369965,21.147324 25.554657,17.805243 
	C26.050968,16.263792 27.401333,16.077171 28.711374,15.841792 
	C29.978626,15.614102 31.384378,15.861094 32.455425,14.822540 
	C28.800734,10.789350 24.022308,10.981643 21.636774,15.573561 
	C15.397478,27.583588 15.814381,40.125275 19.332245,52.789577 
	C19.728592,54.216427 20.408522,55.570370 21.016512,56.931515 
	C23.225567,61.877060 26.353140,65.111298 32.331341,65.895935 
	C39.334526,66.815094 46.159657,67.217575 53.064915,65.685715 
	C57.260323,64.754997 60.957882,62.536808 65.098083,61.315262 
	C74.297356,58.601044 83.063400,58.841084 91.535866,63.202404 
	C93.801376,64.368614 95.116371,64.358299 96.726707,62.161793 
	C97.000000,84.354225 97.000000,106.708458 97.000000,129.531342 
	C94.650719,136.835602 92.748573,143.866852 89.860649,150.466766 
	C83.515434,164.967804 74.481155,177.542374 61.675900,187.182739 
	C58.465092,189.599976 54.911423,190.713211 51.511673,188.714233 
	C48.184189,186.757767 47.799786,182.951859 48.453026,179.351868 
	C50.083469,170.366608 54.182003,162.168442 56.952042,153.539856 
	C61.773960,138.519699 64.577187,123.412346 61.803333,107.613686 
	C61.298111,104.736145 59.871155,102.892380 57.256302,102.394104 
	C54.559368,101.880188 52.626198,103.342117 51.213337,105.804024 
	C46.485199,114.042809 44.398067,122.966461 44.269352,132.348175 
	C44.116261,143.506470 44.172287,154.668945 44.263397,165.828583 
	C44.297619,170.020477 43.048534,173.363586 39.089962,175.205734 
	C34.964294,177.125687 32.422882,174.164429 30.045553,171.738434 
	C23.529938,165.089447 19.673660,156.867004 16.910572,148.101990 
	C11.463105,130.821625 13.104183,113.146080 15.221473,95.726982 
	C16.175331,87.879517 17.282671,79.741829 20.236618,72.088150 
	C21.353230,69.195007 20.901733,65.950478 18.948801,62.658806 
	C12.133971,51.172405 9.570899,38.896069 13.165812,25.540552 
	C14.299432,21.329023 15.358903,17.229185 17.579657,13.486501 
	C21.286505,7.239271 26.778458,5.210358 33.201992,8.698005 
	C37.555317,11.061638 40.921268,10.869461 44.514843,7.812116 
	C50.384171,2.818604 56.345932,3.330375 62.918415,6.833392 
	C69.113586,10.135305 75.984116,9.745001 82.205185,6.859694 
	C86.950676,4.658754 91.398766,4.398749 96.597168,5.906700 
	C97.000000,7.714359 97.000000,9.428718 97.000000,11.571538 
M92.580673,126.913361 
	C94.292854,110.059975 96.244728,93.248192 93.893585,76.242638 
	C93.168396,70.997444 91.457558,67.312790 86.238457,65.939644 
	C77.466232,63.631664 68.937500,64.333511 60.538124,67.924202 
	C54.905678,70.332047 49.037319,71.852921 42.794025,72.272186 
	C36.898663,72.668091 31.626333,69.203926 25.828413,69.957558 
	C21.672823,81.963196 19.878803,94.332832 18.692287,106.503242 
	C16.888052,125.009819 17.502338,143.625610 27.442600,160.542999 
	C29.915823,164.752197 32.952091,168.149200 36.632450,171.142349 
	C39.281914,168.986145 38.686378,166.349045 38.800613,163.927872 
	C39.464378,149.859650 37.560173,135.746307 40.590645,121.682678 
	C42.125504,114.559776 44.286091,107.876831 48.208263,101.913925 
	C52.692257,95.096863 62.459480,96.101631 65.346268,103.799454 
	C66.809647,107.701637 67.956932,111.909859 68.293236,116.269653 
	C68.930420,124.529785 66.887383,132.470062 65.559959,140.430939 
	C63.323566,153.843079 56.954456,166.102844 53.654461,179.268341 
	C53.204021,181.065414 51.890575,182.593857 53.989498,184.052719 
	C55.863995,185.355591 57.260361,184.477921 58.865696,183.232758 
	C72.082062,172.981628 81.416443,159.985794 86.845390,144.172958 
	C88.725754,138.696045 90.618507,133.223373 92.580673,126.913361 
z"/>
</svg>