<svg version="1.1" id="Layer_1" xmlns="http://www.w3.org/2000/svg" xmlns:xlink="http://www.w3.org/1999/xlink" x="0px" y="0px"
	 width="100%" viewBox="0 0 80 304" enable-background="new 0 0 80 304" xml:space="preserve">
<path fill="#000000" opacity="1.000000" stroke="none" 
	d="
M81.000000,220.531342 
	C77.768295,216.793106 78.980293,211.416763 77.367516,206.686630 
	C76.169319,203.172485 74.356918,201.273834 71.468498,200.133881 
	C67.617897,198.614197 64.694870,196.169312 61.948750,193.150314 
	C55.128742,185.652679 45.383015,183.012634 33.424103,189.531998 
	C30.076696,191.356827 26.766752,192.397263 23.018112,192.271576 
	C20.374113,192.182907 18.946621,193.128906 18.139847,196.026459 
	C16.415327,202.220093 14.667665,208.423279 11.930805,214.330460 
	C10.727852,216.926895 10.737785,220.147690 10.486570,223.109543 
	C9.983530,229.040482 9.361652,234.969849 8.754144,240.860184 
	C8.197476,246.257553 9.973716,252.225082 14.310736,256.783478 
	C21.208271,264.033081 30.147030,268.313110 38.544411,273.156921 
	C46.055462,277.489471 53.878506,273.379089 60.844379,270.081146 
	C68.514603,266.449738 75.358040,261.360962 80.682556,254.116760 
	C81.000000,256.041656 81.000000,258.083344 81.000000,260.562500 
	C72.491631,269.426208 62.786354,275.406860 50.999390,278.693054 
	C43.831745,280.691437 38.489296,278.700134 33.062920,275.232361 
	C27.192703,271.480957 20.819868,268.563721 15.346610,264.144012 
	C6.116369,256.690460 2.258810,247.338943 4.455645,235.558136 
	C5.452302,230.213425 5.219868,224.787933 6.276682,219.331390 
	C8.367772,208.534622 13.018058,198.623810 15.485817,187.975113 
	C17.718561,178.340546 19.595848,168.652039 21.659445,158.992050 
	C23.934361,148.342789 25.879665,137.509933 27.093462,126.835495 
	C28.639412,113.240005 29.493135,99.345177 28.458599,85.478516 
	C27.220123,68.878273 27.183647,52.256737 28.421650,35.601612 
	C28.880415,29.429735 30.936224,23.610722 31.104347,17.422829 
	C31.175858,14.790815 31.776838,11.592769 35.215027,10.667218 
	C38.724239,9.722548 41.271503,11.126314 43.331718,14.004550 
	C47.749142,20.175947 50.868935,26.858755 51.224159,34.521553 
	C51.651070,43.730602 54.742035,52.295956 57.313118,60.976185 
	C62.200832,77.477600 70.540810,92.640327 75.939262,108.994392 
	C79.981956,121.241371 79.845383,133.733261 80.866302,146.613983 
	C81.000000,171.354233 81.000000,195.708450 81.000000,220.531342 
M66.933548,191.605804 
	C68.403534,192.678329 69.753616,194.001709 71.367523,194.773132 
	C75.172089,196.591644 76.725319,195.712112 76.644142,191.570419 
	C76.181335,167.956848 77.850624,144.277985 73.250648,120.803391 
	C71.225266,110.467422 67.974777,100.695801 63.873219,91.103981 
	C57.977253,77.315788 52.145260,63.479507 48.587975,48.874084 
	C46.833725,41.671516 46.073418,34.231712 44.685646,26.933046 
	C43.960804,23.120951 41.612003,20.016865 39.503426,16.856979 
	C38.953907,16.033476 38.182484,15.279713 37.013054,15.609632 
	C35.890839,15.926229 35.491234,16.852991 35.435009,17.897715 
	C34.998135,26.015257 32.940178,34.004799 32.549435,42.026112 
	C31.862553,56.126625 31.417891,70.333664 33.242493,84.417908 
	C34.016399,90.391762 35.113548,96.514519 33.929806,102.295433 
	C31.094023,116.144241 32.821327,130.355194 29.194122,144.266220 
	C26.956268,152.848816 25.185047,161.922256 24.497032,170.937836 
	C24.099285,176.149811 20.696260,180.915329 22.215120,186.390488 
	C26.403536,187.755722 30.032433,186.184418 33.342014,184.409988 
	C43.167606,179.141998 59.348389,180.206146 66.933548,191.605804 
z"/>
</svg>