<svg version="1.1" id="Layer_1" xmlns="http://www.w3.org/2000/svg" xmlns:xlink="http://www.w3.org/1999/xlink" x="0px" y="0px"
	 width="100%" viewBox="0 0 96 272" enable-background="new 0 0 96 272" xml:space="preserve">
<path fill="#000000" opacity="1.000000" stroke="none" 
	d="
M35.468658,273.000000 
	C29.775427,267.106018 21.996956,265.179565 15.863206,260.672882 
	C6.995432,254.157379 3.732849,245.921417 5.334637,234.785507 
	C6.757685,224.892258 10.600801,215.697220 12.200546,206.014420 
	C13.579819,197.666107 15.807381,189.530396 17.202456,181.192856 
	C20.372250,162.248886 21.475677,143.060379 24.417961,124.130913 
	C25.915977,114.493279 26.636087,104.827530 27.930580,95.217697 
	C31.280357,70.350174 32.381481,45.347847 33.829079,20.351641 
	C34.094490,15.768699 34.197376,10.999002 37.152916,7.024889 
	C39.236916,4.222679 41.195454,3.453074 44.606342,5.799245 
	C52.381409,11.147307 53.396809,19.600456 54.840851,27.548883 
	C55.724384,32.412090 58.225044,36.925617 57.226295,42.139938 
	C57.725994,42.104294 58.225693,42.068649 58.725391,42.033005 
	C58.725391,36.716438 58.806026,31.398272 58.700371,26.083807 
	C58.612823,21.680132 59.488239,16.758080 63.667286,15.707907 
	C67.662750,14.703867 70.471466,18.828445 72.325233,22.541708 
	C76.214607,30.332479 76.456245,39.104889 79.033195,47.250549 
	C82.552475,58.374851 83.752136,70.046288 87.352318,81.203133 
	C90.612999,91.307869 89.640907,102.037468 88.901367,112.458397 
	C88.287010,121.115311 88.030304,129.757080 88.163254,138.394531 
	C88.396935,153.575104 85.320198,168.598160 86.026009,183.746674 
	C86.602913,196.128479 88.402832,208.397873 90.812279,220.601776 
	C92.482201,229.059937 93.461044,237.840607 92.010506,246.389236 
	C90.424850,255.734238 83.297394,261.300171 75.874466,266.270691 
	C72.728127,268.377502 69.500275,270.362640 66.154739,272.701538 
	C55.979107,273.000000 45.958210,273.000000 35.468658,273.000000 
M58.068199,74.299149 
	C57.004589,68.783516 55.728283,63.298870 54.919136,57.746155 
	C52.877956,43.738716 51.027508,29.708082 46.853867,16.111475 
	C46.344467,14.452002 45.566467,12.988120 44.472042,11.790084 
	C42.448524,9.575002 40.715233,9.667939 40.063351,12.965714 
	C39.386669,16.388943 38.331818,19.819328 38.253033,23.265120 
	C37.839085,41.369759 37.209698,59.398720 34.618069,77.408882 
	C33.070309,88.164803 32.788097,99.141960 31.596436,110.020309 
	C30.189892,122.860283 27.202499,135.460968 26.434647,148.353333 
	C26.138435,153.326797 25.669886,158.202728 24.555397,163.122757 
	C23.454853,167.981247 23.773550,173.161224 23.466694,178.248947 
	C29.869911,178.842087 34.055439,175.188980 38.721725,172.895065 
	C44.341793,170.132278 49.690929,169.796844 55.199139,173.487991 
	C61.940521,178.005524 68.958191,182.109329 75.826317,186.439743 
	C78.990707,188.434906 80.769318,188.011307 80.927963,183.916870 
	C81.185730,177.264374 81.639122,170.618332 81.825180,163.964401 
	C82.239380,149.151932 81.452324,134.206421 83.202019,119.559692 
	C84.838898,105.857422 84.719307,92.762451 81.565567,79.306778 
	C77.768196,63.105003 72.991280,47.120186 70.354774,30.622953 
	C69.870735,27.594229 69.077019,23.499659 65.741425,21.540537 
	C64.456696,22.153181 64.199844,22.960869 64.234200,23.803558 
	C65.172348,46.812218 62.213909,69.873787 66.809731,92.884193 
	C69.219063,104.947205 68.641045,117.579483 70.148338,129.927460 
	C71.169472,138.292725 70.327522,146.891129 70.216675,155.383926 
	C70.195061,157.039856 70.809952,159.134872 67.774643,160.265656 
	C63.625053,131.832932 64.836700,103.006721 58.068199,74.299149 
M59.595066,181.974304 
	C57.952938,180.839783 56.326843,179.681168 54.665562,178.575409 
	C50.314037,175.679077 46.041298,174.113892 40.886986,177.293472 
	C35.683292,180.503525 29.908319,182.649063 23.972799,184.253815 
	C21.817551,184.836517 20.485149,186.210037 20.449562,188.507538 
	C20.346067,195.188660 17.558176,201.318344 16.569263,207.828613 
	C15.010469,218.090546 10.214234,227.635483 9.872660,238.211380 
	C9.684294,244.043594 10.575201,249.098923 15.076097,253.467773 
	C22.090294,260.276154 31.295891,263.564423 39.119011,269.068665 
	C41.578850,270.799377 45.611752,271.673950 49.154808,271.160736 
	C57.373417,269.970154 65.388138,268.195831 72.370735,263.215759 
	C81.989059,256.355865 89.352760,248.495285 87.885651,235.339981 
	C87.528763,232.139847 85.955650,229.288376 85.898407,226.224503 
	C85.708969,216.084518 82.165314,206.429535 81.852592,196.329056 
	C81.798973,194.597015 81.491302,192.787659 79.417847,192.498413 
	C71.767036,191.431152 66.582031,185.787918 59.595066,181.974304 
z"/>
</svg>