<svg version="1.1" id="Layer_1" xmlns="http://www.w3.org/2000/svg" xmlns:xlink="http://www.w3.org/1999/xlink" x="0px" y="0px"
	 width="100%" viewBox="0 0 80 288" enable-background="new 0 0 80 288" xml:space="preserve">
<path fill="#000000" opacity="1.000000" stroke="none" 
	d="
M31.541931,1.000000 
	C38.374134,11.685222 44.910507,22.309460 48.961292,34.157524 
	C52.635593,44.904419 56.461918,55.538013 58.652958,66.833168 
	C60.695381,77.362167 63.391617,87.817726 64.693069,98.464119 
	C66.193764,110.740356 68.274094,122.927803 68.621239,135.399963 
	C68.962051,147.644089 71.536652,159.804611 71.627434,172.132599 
	C71.690018,180.632507 73.405090,188.901474 75.427910,197.078064 
	C76.724388,202.318634 78.754089,207.377823 80.727554,212.759155 
	C81.000000,218.688034 81.000000,224.376083 81.000000,230.532059 
	C77.423660,224.386353 77.100014,216.771652 74.487358,209.853104 
	C72.683617,205.076645 70.894241,200.278946 70.423210,195.109940 
	C70.358131,194.395721 69.696869,193.478851 69.052231,193.113754 
	C61.630669,188.910248 55.870190,182.507217 48.856739,177.829880 
	C41.623985,173.006287 36.457783,173.474106 29.757025,178.889725 
	C25.866493,182.034088 22.052584,185.212341 17.434786,187.263412 
	C14.694007,188.480774 14.419677,191.060471 14.242441,193.557709 
	C13.261177,207.383713 9.735139,220.788330 7.596488,234.419754 
	C6.720208,240.005051 6.574622,245.753998 7.440032,251.348297 
	C8.047919,255.277893 10.829352,258.297485 14.259839,260.155945 
	C23.175276,264.985809 31.445120,270.702118 39.562168,276.767639 
	C48.754017,283.636261 58.208450,280.639252 67.054855,275.709015 
	C71.785408,273.072601 75.930084,269.384918 80.669586,266.085846 
	C81.000000,268.041656 81.000000,270.083344 81.000000,272.562500 
	C75.193176,274.829437 70.816360,279.160675 65.466194,281.843964 
	C55.515797,286.834351 45.811260,287.559692 36.690941,280.528046 
	C28.771540,274.422272 20.298611,269.265198 11.750719,264.152374 
	C5.458073,260.388489 2.652928,254.959641 2.427264,247.226120 
	C2.010069,232.928818 4.714112,218.964859 7.668742,205.355362 
	C10.396031,192.793045 9.254719,180.338104 10.802996,167.948654 
	C13.042039,150.031631 12.605094,131.902344 15.573159,114.039581 
	C16.602175,107.846642 17.319170,101.418320 17.305983,95.213867 
	C17.280125,83.046608 19.449598,71.113525 20.055754,59.020851 
	C20.748585,45.198925 20.516626,31.410641 20.718233,17.611824 
	C20.794970,12.359698 19.217024,7.087311 20.973549,1.424503 
	C24.361288,1.000000 27.722574,1.000000 31.541931,1.000000 
M51.674976,58.619965 
	C46.442291,39.245354 39.651997,20.594067 27.352503,3.859102 
	C24.861086,6.517155 23.705475,8.490520 24.980312,10.968929 
	C26.514696,13.951921 26.237215,17.121029 26.228771,20.268368 
	C26.188261,35.370304 26.349415,50.440212 24.458469,65.519165 
	C23.097525,76.371719 24.541744,87.651505 22.541075,98.329727 
	C19.903984,112.404716 19.689409,126.657791 17.719446,140.763519 
	C16.148083,152.015121 16.188572,163.618256 15.316605,175.054749 
	C15.157680,177.139175 14.636927,179.375183 16.279387,181.325714 
	C19.056273,181.732574 20.894857,180.111816 22.823523,178.496475 
	C28.730818,173.548889 34.569252,168.874847 43.293114,170.348541 
	C49.502880,171.397522 53.704842,175.074860 57.931854,179.030380 
	C60.650307,181.574234 63.325382,184.114624 67.076935,184.997482 
	C69.307289,177.686142 65.915863,171.207779 65.615417,164.472580 
	C65.066704,152.171494 65.416016,139.700409 63.399590,127.632942 
	C61.550961,116.569695 61.395794,105.354706 58.922146,94.327362 
	C56.329338,82.768791 54.672832,70.974716 51.674976,58.619965 
z"/>
</svg>