<svg version="1.1" id="Layer_1" xmlns="http://www.w3.org/2000/svg" xmlns:xlink="http://www.w3.org/1999/xlink" x="0px" y="0px"
	 width="100%" viewBox="0 0 80 256" enable-background="new 0 0 80 256" xml:space="preserve">
<path fill="#000000" opacity="1.000000" stroke="none" 
	d="
M81.000000,202.531342 
	C80.597031,202.099869 79.829903,201.193115 79.846130,200.300613 
	C80.063499,188.340622 74.977631,177.425034 73.189728,165.873337 
	C72.745720,163.004593 71.610954,161.252792 68.837456,159.921936 
	C62.850655,157.049194 57.299042,153.487549 52.495972,148.704575 
	C47.429806,143.659622 41.223614,144.040909 35.867321,148.880722 
	C32.671528,151.768387 29.343023,154.529633 25.903008,157.120422 
	C22.831861,159.433411 21.737822,162.599411 21.337799,166.139786 
	C20.373667,174.672775 19.151957,183.223450 17.610077,191.609695 
	C15.909951,200.856644 15.447231,210.054138 15.156412,219.321838 
	C14.796732,230.783920 19.698441,235.567184 31.317411,235.649231 
	C45.751835,235.751144 59.929920,238.850113 74.335197,239.372177 
	C76.337929,239.444778 78.287392,239.806046 80.611786,239.037903 
	C81.000000,240.388885 81.000000,241.777786 81.000000,243.583344 
	C79.237854,245.161972 77.224960,245.703354 75.271942,245.052490 
	C66.610352,242.165894 57.554108,243.179398 48.704109,242.206436 
	C41.122150,241.372864 33.572845,240.300827 25.966503,239.589005 
	C15.664345,238.624924 9.907204,231.775375 10.049938,220.794510 
	C10.201075,209.167358 10.566901,197.413422 12.873633,186.016006 
	C16.226971,169.447372 17.283558,152.678070 19.274700,135.977783 
	C21.266356,119.273216 21.280674,102.491882 23.132547,85.874023 
	C25.144991,67.815269 25.931513,49.793304 25.703360,31.689299 
	C25.636644,26.395403 24.648235,21.117912 24.209227,15.822379 
	C23.867342,11.698417 24.462402,7.878747 28.288429,5.289474 
	C30.921684,3.507412 33.348873,3.482672 36.136520,5.164117 
	C45.700279,10.932753 50.243073,19.930117 53.461834,30.188076 
	C58.532776,46.348804 59.119671,63.010170 60.607105,79.668709 
	C61.430378,88.889008 63.632969,98.115158 66.194153,107.203735 
	C70.037888,120.843559 73.229889,134.713898 75.778534,148.654510 
	C77.347298,157.235321 77.657654,166.047226 80.802444,174.690613 
	C81.000000,184.020889 81.000000,193.041794 81.000000,202.531342 
M45.237446,21.373837 
	C42.514267,18.049267 40.912758,13.810644 37.119984,11.360256 
	C35.169449,10.100078 33.180565,8.430096 30.721344,9.805265 
	C28.580271,11.002533 29.430048,13.336583 29.173893,15.247708 
	C28.337172,21.490372 31.252308,27.317297 31.204998,33.426792 
	C31.129345,43.196518 30.770372,52.901817 29.738132,62.700661 
	C28.180073,77.491058 28.231627,92.440895 26.586176,107.332176 
	C25.039734,121.327431 25.741486,135.570648 22.463167,149.443726 
	C22.195099,150.578125 21.823986,152.123230 23.380297,153.099426 
	C27.477770,149.764893 31.541214,146.399368 35.668594,143.114182 
	C40.702271,139.107620 46.141956,138.904556 51.416283,142.305099 
	C55.165627,144.722443 58.499474,147.787094 62.000587,150.585587 
	C64.435020,152.531464 66.803436,154.610352 71.079582,153.759399 
	C69.719879,146.872452 69.611649,140.149918 67.513794,133.388290 
	C64.653809,124.170265 63.333092,114.509193 60.303696,105.234604 
	C55.811749,91.482368 55.378780,76.906395 53.978024,62.681557 
	C52.602463,48.712589 50.522827,35.151848 45.237446,21.373837 
z"/>
</svg>