<svg version="1.1" id="Layer_1" xmlns="http://www.w3.org/2000/svg" xmlns:xlink="http://www.w3.org/1999/xlink" x="0px" y="0px"
	 width="100%" viewBox="0 0 96 288" enable-background="new 0 0 96 288" xml:space="preserve">
<path fill="#000000" opacity="1.000000" stroke="none" 
	d="
M97.000000,283.531342 
	C93.019402,287.122955 88.539665,288.170807 83.473770,288.011993 
	C70.498848,287.605225 57.489727,287.929382 44.541100,287.166534 
	C35.526794,286.635468 26.404551,285.375793 18.422176,280.489410 
	C14.993685,278.390656 12.922180,274.939331 12.778023,270.991333 
	C12.480944,262.855316 11.441956,254.699921 11.326612,246.677658 
	C11.199726,237.852432 12.258070,228.810852 13.130972,219.903198 
	C13.869626,212.365494 15.227191,204.833817 16.989227,197.461609 
	C21.628603,178.050888 22.282330,158.217484 24.279621,138.496796 
	C25.427408,127.163879 26.141716,115.697433 28.077574,104.514725 
	C29.760321,94.794151 28.950506,84.914017 31.021385,75.412102 
	C32.987175,66.392365 33.747185,57.201923 36.027935,48.180843 
	C37.904739,40.757511 39.014606,32.978279 40.876968,25.454748 
	C41.861828,21.476131 43.314938,17.562544 45.004143,13.821670 
	C47.263050,8.819170 51.197407,8.307812 55.340019,11.834676 
	C60.306438,16.062901 61.150253,21.889402 61.159828,27.654648 
	C61.189816,45.710869 67.120766,62.326729 72.805038,79.061562 
	C74.922012,85.294090 76.571358,91.687553 78.367325,98.026512 
	C80.976334,107.235107 83.220238,116.542747 84.715057,125.992142 
	C86.645821,138.197250 88.450287,150.389603 89.615768,162.744598 
	C90.944023,176.825134 90.034859,191.064346 92.582375,204.948898 
	C93.766266,211.401459 95.393776,217.835602 96.814484,224.660065 
	C97.000000,244.354233 97.000000,263.708466 97.000000,283.531342 
M94.580276,237.130615 
	C92.313271,231.707550 92.680725,225.695679 90.939568,220.210556 
	C89.081825,214.358185 90.219894,207.365128 84.919197,202.790878 
	C79.330093,197.967712 74.943558,192.121506 70.457314,186.361298 
	C65.673256,180.218704 60.413651,178.330978 52.999287,180.643829 
	C49.482666,181.740799 46.503330,183.806335 43.768291,186.321304 
	C38.170650,191.468552 32.921455,197.081818 25.182249,199.308701 
	C23.406834,199.819550 20.606802,200.034607 20.425497,202.997864 
	C20.000217,209.948563 18.158840,216.724030 17.469904,223.582581 
	C15.957139,238.642624 16.353039,253.794357 17.228670,268.913788 
	C17.485884,273.355072 19.600306,276.956818 23.577303,278.224792 
	C29.839539,280.221344 36.374962,282.192657 42.867134,282.468109 
	C57.669575,283.096222 72.516258,282.640533 87.344315,282.731293 
	C91.819656,282.758728 93.926743,280.428986 94.838905,276.356506 
	C95.426170,273.734558 95.602234,271.112549 95.713287,268.439545 
	C96.135994,258.264801 94.771355,248.161621 94.580276,237.130615 
M36.075832,82.012833 
	C35.619579,83.938660 34.389248,85.560265 34.309517,87.682365 
	C34.028667,95.156937 34.001453,102.683365 33.027870,110.078194 
	C31.966259,118.141640 31.485386,126.282951 30.128321,134.280411 
	C28.855028,141.784180 28.948341,149.374435 27.677982,156.919937 
	C26.236742,165.480392 26.709061,174.361694 24.458921,182.952209 
	C23.535503,186.477600 23.793331,190.312424 23.490294,194.317505 
	C26.270857,193.938538 28.294504,193.403473 30.014482,191.925781 
	C33.789577,188.682480 37.670818,185.558167 41.361683,182.222565 
	C45.660236,178.337784 50.569363,175.704727 56.251484,174.726700 
	C64.942352,173.230789 70.247627,178.398544 74.884132,184.626892 
	C78.199249,189.080185 81.691261,193.343552 87.085846,197.806854 
	C85.946213,193.606812 85.681656,190.659851 85.743423,187.683838 
	C86.094666,170.763657 84.295563,154.019333 81.631348,137.342148 
	C81.108131,134.066986 81.145744,130.677460 80.382042,127.469887 
	C77.521225,115.454361 74.512306,103.472374 71.399109,91.519432 
	C69.989677,86.108009 68.760300,80.542641 66.469955,75.491119 
	C62.351887,66.408409 60.964142,56.598312 58.031868,47.213215 
	C56.130421,41.127399 57.365906,34.595779 56.535286,28.372993 
	C55.887894,23.522882 55.927017,17.889776 49.948441,13.684569 
	C42.457710,36.221336 37.760059,58.330624 36.075832,82.012833 
z"/>
</svg>