<svg version="1.1" id="Layer_1" xmlns="http://www.w3.org/2000/svg" xmlns:xlink="http://www.w3.org/1999/xlink" x="0px" y="0px"
	 width="100%" viewBox="0 0 96 272" enable-background="new 0 0 96 272" xml:space="preserve">
<path fill="#000000" opacity="1.000000" stroke="none" 
	d="
M59.600006,1.000000 
	C64.575066,4.514596 65.343475,10.178006 66.753197,14.990355 
	C70.590767,28.090570 72.866302,41.585300 75.294983,55.052208 
	C78.206642,71.197182 79.550156,87.477371 80.908707,103.719780 
	C82.219154,119.387077 84.556381,134.930923 85.686905,150.638718 
	C86.861588,166.960022 89.085396,183.388321 93.505394,199.362381 
	C94.900253,204.403503 95.583298,209.755630 95.373260,215.113022 
	C95.275894,217.596619 95.188263,220.125610 96.768692,222.699768 
	C97.000000,234.687561 97.000000,246.375122 96.862823,258.867981 
	C95.525352,264.419830 94.065903,269.055023 91.000000,273.000000 
	C86.643097,273.000000 82.286201,273.000000 77.464645,273.000000 
	C77.698975,271.347351 79.207809,271.184845 80.706207,270.929077 
	C88.311584,269.630798 91.382088,267.013824 91.563324,259.194183 
	C91.863724,246.233749 92.270157,233.263535 91.146790,220.268524 
	C90.446884,212.172119 89.002663,204.262238 87.745293,196.282639 
	C87.316017,193.558304 86.157730,192.022675 83.715408,191.361160 
	C75.638924,189.173584 70.217751,183.125504 64.175598,177.995743 
	C61.759262,175.944260 59.379841,173.903320 56.315910,172.874054 
	C48.462917,170.235947 43.420280,171.722153 38.329208,178.201981 
	C33.911781,183.824387 29.477680,189.424393 23.988745,194.085464 
	C21.349483,196.326675 20.446877,199.337402 19.591482,202.680649 
	C14.305341,223.341171 12.163571,244.268265 13.219528,265.558868 
	C13.349137,268.172119 13.733137,270.489288 15.801633,272.698547 
	C14.285642,273.000000 12.571282,273.000000 10.428463,273.000000 
	C9.574164,271.579620 8.791703,270.162842 8.777365,268.738312 
	C8.625098,253.610214 7.749041,238.417191 10.030532,223.406128 
	C11.508391,213.682541 14.124435,204.132004 16.228704,194.503525 
	C16.370607,193.854233 16.665073,193.186127 16.606417,192.552917 
	C15.662165,182.359375 18.586029,172.452423 18.782391,162.326294 
	C18.994097,151.408859 19.868557,140.624664 22.057291,129.758789 
	C23.829981,120.958351 24.771332,111.832001 26.857132,103.047668 
	C30.133514,89.249191 33.536495,75.466286 39.071095,62.281567 
	C41.409725,56.710392 42.186275,50.497757 43.860519,44.630238 
	C46.689346,34.716404 47.168064,24.540026 47.898083,14.340961 
	C48.271549,9.123249 51.297798,4.770227 55.794647,1.266627 
	C57.066669,1.000000 58.133339,1.000000 59.600006,1.000000 
M80.654396,142.754593 
	C81.404633,138.898010 78.675392,135.725983 78.437492,132.171478 
	C77.584312,119.423897 75.943420,106.752754 74.932220,94.034523 
	C74.042175,82.839958 73.014320,71.649048 71.221481,60.609089 
	C69.344604,49.051636 67.536758,37.452206 64.822037,26.015030 
	C63.228958,19.303368 60.624615,13.063519 58.656204,6.189544 
	C53.988922,8.301641 53.301800,11.699666 53.130672,15.489903 
	C52.748112,23.963060 51.609051,32.373058 49.801861,40.632374 
	C47.517269,51.073536 44.161640,61.197048 40.693428,71.347115 
	C34.831745,88.501938 30.068647,106.180710 27.563696,124.115837 
	C25.650330,137.815308 22.367262,151.500061 23.242691,165.555801 
	C23.416571,168.347580 22.840340,171.189392 22.573059,174.004608 
	C22.114796,178.831421 22.016655,183.640167 22.522411,189.157471 
	C23.971722,187.851135 24.801781,187.264603 25.429993,186.510025 
	C29.039854,182.174072 32.719116,177.888260 36.152008,173.414459 
	C41.025517,167.063232 48.957031,165.192978 56.602131,167.845169 
	C63.861908,170.363693 68.689911,175.763046 74.116089,180.576141 
	C77.011856,183.144745 79.822479,186.102753 84.258850,185.758270 
	C85.297081,183.574402 84.554398,181.665131 84.326286,179.707504 
	C82.929443,167.719666 80.351196,155.849808 80.654396,142.754593 
z"/>
</svg>